<?xml version="1.0" encoding="utf-8"?>
<svg version="1.1" xmlns:xlink="http://www.w3.org/1999/xlink" width="101px" height="33px" xmlns="http://www.w3.org/2000/svg">
  <g transform="matrix(1 0 0 1 -140 -5582 )">
    <path d="M 140.5 5586  A 3.5 3.5 0 0 1 144 5582.5 L 237 5582.5  A 3.5 3.5 0 0 1 240.5 5586 L 240.5 5611  A 3.5 3.5 0 0 1 237 5614.5 L 144 5614.5  A 3.5 3.5 0 0 1 140.5 5611 L 140.5 5586  Z " fill-rule="nonzero" fill="#39b3d7" stroke="none" />
    <path d="M 140.5 5586  A 3.5 3.5 0 0 1 144 5582.5 L 237 5582.5  A 3.5 3.5 0 0 1 240.5 5586 L 240.5 5611  A 3.5 3.5 0 0 1 237 5614.5 L 144 5614.5  A 3.5 3.5 0 0 1 140.5 5611 L 140.5 5586  Z " stroke-width="1" stroke="#269abc" fill="none" />
  </g>
</svg>