<?xml version="1.0" encoding="utf-8"?>
<svg version="1.1" xmlns:xlink="http://www.w3.org/1999/xlink" width="19px" height="14px" xmlns="http://www.w3.org/2000/svg">
  <g transform="matrix(1 0 0 1 -327 -68 )">
    <path d="M 18.7649739583333 11.4078125  C 18.9216579861111 11.5463541666667  19 11.7104166666667  19 11.9  L 19 13.3  C 19 13.4895833333333  18.9216579861111 13.6536458333333  18.7649739583333 13.7921875  C 18.6082899305555 13.9307291666667  18.4227430555555 14  18.2083333333333 14  L 0.791666666666686 14  C 0.577256944444457 14  0.391710069444457 13.9307291666667  0.235026041666686 13.7921875  C 0.0783420138889142 13.6536458333333  0 13.4895833333333  0 13.3  L 0 11.9  C 0 11.7104166666667  0.0783420138889142 11.5463541666667  0.235026041666686 11.4078125  C 0.391710069444457 11.2692708333333  0.577256944444457 11.2  0.791666666666686 11  L 18.2083333333333 11  C 18.4227430555555 11.2  18.6082899305555 11.2692708333333  18.7649739583333 11.4078125  Z M 18.7649739583333 5.8078125  C 18.9216579861111 5.94635416666667  19 6.11041666666667  19 6.3  L 19 7.7  C 19 7.88958333333333  18.9216579861111 8.05364583333333  18.7649739583333 8.1921875  C 18.6082899305555 8.33072916666666  18.4227430555555 8.4  18.2083333333333 8.4  L 0.791666666666686 8.4  C 0.577256944444457 8.4  0.391710069444457 8.33072916666666  0.235026041666686 8.1921875  C 0.0783420138889142 8.05364583333333  0 7.88958333333333  0 7.7  L 0 6.3  C 0 6.11041666666667  0.0783420138889142 5.94635416666667  0.235026041666686 5.8078125  C 0.391710069444457 5.66927083333334  0.577256944444457 5.6  0.791666666666686 5.6  L 18.2083333333333 5.6  C 18.4227430555555 5.6  18.6082899305555 5.66927083333334  18.7649739583333 5.8078125  Z M 18.7649739583333 0.207812499999996  C 18.9216579861111 0.346354166666664  19 0.510416666666664  19 0.699999999999996  L 19 2.1  C 19 2.28958333333333  18.9216579861111 2.45364583333333  18.7649739583333 2.5921875  C 18.6082899305555 2.73072916666666  18.4227430555555 2.8  18.2083333333333 3  L 0.791666666666686 3  C 0.577256944444457 2.8  0.391710069444457 2.73072916666666  0.235026041666686 2.5921875  C 0.0783420138889142 2.45364583333333  0 2.28958333333333  0 2.1  L 0 0.699999999999996  C 0 0.510416666666664  0.0783420138889142 0.346354166666664  0.235026041666686 0.207812499999996  C 0.391710069444457 0.0692708333333343  0.577256944444457 0  0.791666666666686 0  L 18.2083333333333 0  C 18.4227430555555 0  18.6082899305555 0.0692708333333343  18.7649739583333 0.207812499999996  Z " fill-rule="nonzero" fill="#dd9931" stroke="none" transform="matrix(1 0 0 1 327 68 )" />
  </g>
</svg>