<?xml version="1.0" encoding="utf-8"?>
<svg version="1.1" xmlns:xlink="http://www.w3.org/1999/xlink" width="18px" height="18px" xmlns="http://www.w3.org/2000/svg">
  <g transform="matrix(1 0 0 1 -12 -4068 )">
    <path d="M 10.39453125 4.60546875  C 10.46484375 4.67578125  10.5 4.76562500000045  10.5 4.87500000000045  L 10.5 10.125  C 10.5 10.2343749999995  10.46484375 10.3242187500005  10.39453125 10.3945312500005  C 10.32421875 10.4648437500005  10.234375 10.5000000000005  10.125 10.5000000000005  L 6.37499999999997 10.5000000000005  C 6.26562500000003 10.5000000000005  6.17578125000003 10.4648437500005  6.10546875000003 10.3945312500005  C 6.03515625000003 10.3242187500005  6.00000000000003 10.2343749999995  6.00000000000003 10.125  L 6.00000000000003 9.37500000000045  C 6.00000000000003 9.26562500000045  6.03515625000003 9.17578125  6.10546875000003 9.10546875  C 6.17578125000003 9.03515625  6.26562500000003 9  6.37499999999997 9  L 9 9  L 9 4.87500000000045  C 9 4.76562500000045  9.03515625 4.67578125  9.10546875 4.60546875  C 9.17578125 4.53515625  9.26562500000003 4.5  9.37500000000003 4.5  L 10.125 4.5  C 10.234375 4.5  10.32421875 4.53515625  10.39453125 4.60546875  Z M 14.51953125 12.19921875  C 15.08984375 11.22265625  15.375 10.1562500000005  15.375 9  C 15.375 7.84374999999955  15.08984375 6.77734375  14.51953125 5.80078125  C 13.94921875 4.82421875  13.17578125 4.05078125  12.19921875 3.48046875  C 11.22265625 2.91015625  10.15625 2.62500000000045  9 2.62500000000045  C 7.84375 2.62500000000045  6.77734374999997 2.91015625  5.80078125 3.48046875  C 4.82421875000003 4.05078125  4.05078125000003 4.82421875  3.48046875 5.80078125  C 2.91015624999997 6.77734375  2.62500000000003 7.84374999999955  2.62500000000003 9  C 2.62500000000003 10.1562500000005  2.91015624999997 11.22265625  3.48046875 12.19921875  C 4.05078125000003 13.17578125  4.82421875000003 13.94921875  5.80078125 14.51953125  C 6.77734374999997 15.08984375  7.84375 15.3749999999995  9 15.3749999999995  C 10.15625 15.3749999999995  11.22265625 15.08984375  12.19921875 14.51953125  C 13.17578125 13.94921875  13.94921875 13.17578125  14.51953125 12.19921875  Z M 16.79296875 4.482421875  C 17.59765625 5.861328125  18 7.36718750000045  18 9  C 18 10.6328124999995  17.59765625 12.138671875  16.79296875 13.517578125  C 15.98828125 14.896484375  14.896484375 15.98828125  13.517578125 16.7929687500005  C 12.138671875 17.5976562500005  10.6328125 18  9 18  C 7.36718750000003 18  5.86132812500003 17.5976562500005  4.482421875 16.7929687500005  C 3.10351562499997 15.98828125  2.01171875000003 14.896484375  1.20703124999997 13.517578125  C 0.402343749999972 12.138671875  0 10.6328124999995  0 9  C 0 7.36718750000045  0.402343749999972 5.861328125  1.20703124999997 4.482421875  C 2.01171875000003 3.103515625  3.10351562499997 2.01171875  4.482421875 1.20703124999955  C 5.86132812500003 0.402343749999545  7.36718750000003 0  9 0  C 10.6328125 0  12.138671875 0.402343749999545  13.517578125 1.20703124999955  C 14.896484375 2.01171875  15.98828125 3.103515625  16.79296875 4.482421875  Z " fill-rule="nonzero" fill="#b8741a" stroke="none" transform="matrix(1 0 0 1 12 4068 )" />
  </g>
</svg>