<?xml version="1.0" encoding="utf-8"?>
<svg version="1.1" xmlns:xlink="http://www.w3.org/1999/xlink" width="22px" height="22px" xmlns="http://www.w3.org/2000/svg">
  <g transform="matrix(1 0 0 1 -175 -4619 )">
    <path d="M 186 4619  C 192.16 4619  197 4623.84  197 4630  C 197 4636.16  192.16 4641  186 4641  C 179.84 4641  175 4636.16  175 4630  C 175 4623.84  179.84 4619  186 4619  Z " fill-rule="nonzero" fill="#000000" stroke="none" />
    <path d="M 186 4619.5  C 191.88 4619.5  196.5 4624.12  196.5 4630  C 196.5 4635.88  191.88 4640.5  186 4640.5  C 180.12 4640.5  175.5 4635.88  175.5 4630  C 175.5 4624.12  180.12 4619.5  186 4619.5  Z " stroke-width="1" stroke="#ffffff" fill="none" />
  </g>
</svg>