<?xml version="1.0" encoding="utf-8"?>
<svg version="1.1" xmlns:xlink="http://www.w3.org/1999/xlink" width="19px" height="15px" xmlns="http://www.w3.org/2000/svg">
  <g transform="matrix(1 0 0 1 -12 -5946 )">
    <path d="M 17.9397321428569 5.76349431818182  C 18.3426339285713 5.48650568181818  18.696056547619 5.17755681818182  19 4.83664772727273  L 19 13.2954545454545  C 19 13.7642045454545  18.8338913690476 14.1654829545454  18.5016741071431 14.4992897727273  C 18.169456845238 14.8330965909091  17.7700892857144 15  17.3035714285713 15  L 1.69642857142866 15  C 1.22991071428561 15  0.830543154761953 14.8330965909091  0.498325892856943 14.4992897727273  C 0.166108630952441 14.1654829545454  0 13.7642045454545  0 13.2954545454545  L 0 4.83664772727273  C 0.311011904761953 5.18465909090907  0.66796875 5.49360795454543  1.07087053571439 5.76349431818182  C 3.62965029761902 7.51065340909091  5.38616071428561 8.73579545454545  6.34040178571439 9.43892045454545  C 6.74330357142866 9.73721590909091  7.07021949404756 9.96981534090912  7.32114955357134 10.13671875  C 7.57207961309524 10.3036221590909  7.90606398809524 10.4740767045454  8.32310267857134 10.6480823863636  C 8.74014136904756 10.8220880681818  9.12890625 10.9090909090909  9.48939732142866 10.9090909090909  L 9.5 10.9090909090909  L 9.51060267857134 10.9090909090909  C 9.87109375 10.9090909090909  10.2598586309524 10.8220880681818  10.6768973214287 10.6480823863636  C 11.0939360119048 10.4740767045454  11.4279203869048 10.3036221590909  11.6788504464287 10.13671875  C 11.9297805059524 9.96981534090912  12.2566964285713 9.73721590909091  12.6595982142856 9.43892045454545  C 13.8612351190476 8.56534090909091  15.6212797619048 7.34019886363636  17.9397321428569 5.76349431818182  Z M 18.4963727678569 0.500710227272729  C 18.8321242559524 0.834517045454571  19 1.23579545454546  19 1.70454545454546  C 19 2.26562499999998  18.8268229166666 2.80184659090909  18.48046875 3.31321022727273  C 18.1341145833334 3.82457386363636  17.7029389880952 4.26136363636364  17.1869419642856 4.62357954545454  C 14.5292038690476 6.47727272727273  12.8751860119048 7.63139204545457  12.2248883928569 8.0859375  C 12.1542038690476 8.13565340909088  12.0039992559524 8.24396306818185  11.7742745535713 8.41086647727273  C 11.5445498511905 8.57776988636361  11.3537016369048 8.71271306818185  11.2017299107144 8.81569602272727  C 11.0497581845239 8.9186789772727  10.865978422619 9.03409090909091  10.650390625 9.16193181818182  C 10.434802827381 9.28977272727273  10.2315848214287 9.38565340909091  10.0407366071431 9.44957386363636  C 9.84988839285694 9.51349431818182  9.67317708333342 9.54545454545455  9.51060267857134 9.54545454545455  L 9.5 9.54545454545455  L 9.48939732142866 9.54545454545455  C 9.32682291666658 9.54545454545455  9.15011160714306 9.51349431818182  8.95926339285694 9.44957386363636  C 8.76841517857134 9.38565340909091  8.56519717261902 9.28977272727273  8.349609375 9.16193181818182  C 8.13402157738098 9.03409090909091  7.95024181547609 8.9186789772727  7.79827008928561 8.81569602272727  C 7.64629836309524 8.71271306818185  7.45545014880951 8.57776988636361  7.22572544642866 8.41086647727273  C 6.99600074404756 8.24396306818185  6.84579613095244 8.13565340909088  6.77511160714306 8.0859375  C 6.13188244047609 7.63139204545457  5.20591517857134 6.98330965909091  3.99720982142866 6.14169034090909  C 2.78850446428561 5.30007102272727  2.06398809523805 4.79403409090909  1.82366071428561 4.62357954545454  C 1.38541666666658 4.32528409090909  0.971912202380977 3.91512784090909  0.583147321428662 3.39311079545454  C 0.194382440476094 2.87109375  0 2.38636363636364  0 1.93892045454546  C 0 1.38494318181818  0.146670386904756 0.923295454545429  0.440011160714395 0.553977272727271  C 0.733351934523906 0.184659090909117  1.15215773809524 0  1.69642857142866 0  L 17.3035714285713 0  C 17.7630208333334 0  18.160621279762 0.166903409090883  18.4963727678569 0.500710227272729  Z " fill-rule="nonzero" fill="#dd9931" stroke="none" transform="matrix(1 0 0 1 12 5946 )" />
  </g>
</svg>