<?xml version="1.0" encoding="utf-8"?>
<svg version="1.1" xmlns:xlink="http://www.w3.org/1999/xlink" width="11px" height="21px" xmlns="http://www.w3.org/2000/svg">
  <g transform="matrix(1 0 0 1 -169 -6908 )">
    <path d="M 8.09722222222222 0  C 9.34490740740741 0  10.3125 0.0504807692307691  11 0.151442307692307  L 11 3.48317307692308  L 9.00115740740741 3.48317307692308  C 8.27121913580247 3.48317307692308  7.77893518518519 3.63461538461539  7.52430555555556 3.9375  C 7.26967592592593 4.24038461538461  7.14236111111111 4.69471153846154  7.14236111111111 5.30048076923077  L 7.14236111111111 7.68569711538461  L 10.8726851851852 7.68569711538461  L 10.3761574074074 11.4212740384615  L 7.14236111111111 11.4212740384615  L 7.14236111111111 21  L 3.24652777777778 21  L 3.24652777777778 11.4212740384615  L 0 11.4212740384615  L 0 7.68569711538461  L 3.24652777777778 7.68569711538461  L 3.24652777777778 4.93449519230769  C 3.24652777777778 3.36959134615385  3.68788580246914 2.15594951923077  4.57060185185185 1.29356971153846  C 5.45331790123457 0.431189903846156  6.62885802469136 0  8.09722222222222 0  Z " fill-rule="nonzero" fill="#027db4" stroke="none" transform="matrix(1 0 0 1 169 6908 )" />
  </g>
</svg>