<?xml version="1.0" encoding="utf-8"?>
<svg version="1.1" xmlns:xlink="http://www.w3.org/1999/xlink" width="28px" height="25px" xmlns="http://www.w3.org/2000/svg">
  <g transform="matrix(1 0 0 1 -303 -7124 )">
    <path d="M 20.1418269230769 8.75355113636359  C 20.354967948718 8.5286458333333  20.4615384615386 8.26231060606058  20.4615384615386 7.95454545454544  C 20.4615384615386 7.64678030303029  20.354967948718 7.38044507575758  20.1418269230769 7.15553977272729  C 19.928685897436 6.93063446969699  19.676282051282 6.81818181818185  19.3846153846155 6.81818181818185  L 17.2307692307692 6.81818181818185  L 17.2307692307692 4.54545454545456  C 17.2307692307692 4.23768939393942  17.1241987179486 3.9713541666667  16.9110576923077 3.74644886363641  C 16.6979166666667 3.52154356060602  16.4455128205128 3.40909090909087  16.1538461538462 3.40909090909087  C 15.8621794871794 3.40909090909087  15.6097756410256 3.52154356060602  15.3966346153845 3.74644886363641  C 15.1834935897434 3.9713541666667  15.0769230769231 4.23768939393942  15.0769230769231 4.54545454545456  L 15.0769230769231 6.81818181818185  L 12.9230769230769 6.81818181818185  C 12.6314102564103 6.81818181818185  12.3790064102566 6.93063446969699  12.1658653846155 7.15553977272729  C 11.9527243589744 7.38044507575758  11.8461538461538 7.64678030303029  11.8461538461538 7.95454545454544  C 11.8461538461538 8.26231060606058  11.9527243589744 8.5286458333333  12.1658653846155 8.75355113636359  C 12.3790064102566 8.97845643939399  12.6314102564103 9.09090909090913  12.9230769230769 9.09090909090913  L 15.0769230769231 9.09090909090913  L 15.0769230769231 11.3636363636364  C 15.0769230769231 11.6714015151516  15.1834935897434 11.9377367424243  15.3966346153845 12.1626420454546  C 15.6097756410256 12.3875473484848  15.8621794871794 12.5  16.1538461538462 12.5  C 16.4455128205128 12.5  16.6979166666667 12.3875473484848  16.9110576923077 12.1626420454546  C 17.1241987179486 11.9377367424243  17.2307692307692 11.6714015151516  17.2307692307692 11.3636363636364  L 17.2307692307692 9.09090909090913  L 19.3846153846155 9.09090909090913  C 19.676282051282 9.09090909090913  19.928685897436 8.97845643939399  20.1418269230769 8.75355113636359  Z M 10.1382211538462 21.1203835227273  C 10.5588942307692 21.5642755681818  10.7692307692308 22.0999053030303  10.7692307692308 22.7272727272727  C 10.7692307692308 23.3546401515152  10.5588942307692 23.8902698863636  10.1382211538462 24.3341619318182  C 9.71754807692309 24.7780539772727  9.20993589743603 25  8.61538461538453 25  C 8.02083333333326 25  7.51322115384619 24.7780539772727  7.09254807692309 24.3341619318182  C 6.671875 23.8902698863636  6.46153846153857 23.3546401515152  6.46153846153857 22.7272727272727  C 6.46153846153857 22.0999053030303  6.671875 21.5642755681818  7.09254807692309 21.1203835227273  C 7.51322115384619 20.6764914772727  8.02083333333326 20.4545454545454  8.61538461538453 20.4545454545454  C 9.20993589743603 20.4545454545454  9.71754807692309 20.6764914772727  10.1382211538462 21.1203835227273  Z M 25.2151442307692 21.1203835227273  C 25.6358173076923 21.5642755681818  25.8461538461538 22.0999053030303  25.8461538461538 22.7272727272727  C 25.8461538461538 23.3546401515152  25.6358173076923 23.8902698863636  25.2151442307692 24.3341619318182  C 24.7944711538462 24.7780539772727  24.2868589743591 25  23.6923076923077 25  C 23.0977564102566 25  22.5901442307692 24.7780539772727  22.1694711538462 24.3341619318182  C 21.7487980769231 23.8902698863636  21.5384615384614 23.3546401515152  21.5384615384614 22.7272727272727  C 21.5384615384614 22.0999053030303  21.7487980769231 21.5642755681818  22.1694711538462 21.1203835227273  C 22.5901442307692 20.6764914772727  23.0977564102566 20.4545454545454  23.6923076923077 20.4545454545454  C 24.2868589743591 20.4545454545454  24.7944711538462 20.6764914772727  25.2151442307692 21.1203835227273  Z M 27.6802884615386 2.61008522727271  C 27.8934294871794 2.83499053030301  28 3.10132575757573  28 3.40909090909087  L 28 12.5  C 28 12.7840909090909  27.9102564102566 13.0356297348484  27.7307692307692 13.2546164772727  C 27.551282051282 13.473603219697  27.321314102564 13.6008522727273  27.0408653846155 13.6363636363636  L 9.47355769230774 15.8025568181818  C 9.48477564102564 15.8854166666667  9.51001602564088 16.012665719697  9.54927884615381 16.1843039772727  C 9.58854166666674 16.3559422348484  9.62219551282055 16.5127840909091  9.65024038461547 16.6548295454546  C 9.67828525641028 16.796875  9.69230769230774 16.9270833333333  9.69230769230774 17.0454545454546  C 9.69230769230774 17.2348484848484  9.55769230769226 17.6136363636364  9.28846153846143 18  L 24.7692307692308 18  C 25.0608974358977 18.1818181818182  25.3133012820514 18.2942708333333  25.5264423076923 18.5191761363636  C 25.7395833333333 18.744081439394  25.8461538461538 19.0104166666667  25.8461538461538 19.3181818181818  C 25.8461538461538 19.625946969697  25.7395833333333 19.8922821969697  25.5264423076923 20.1171875  C 25.3133012820514 20.3420928030303  25.0608974358977 20.4545454545454  24.7692307692308 20  L 7.53846153846143 20  C 7.24679487179469 20.4545454545454  6.99439102564088 20.3420928030303  6.78125 20.1171875  C 6.56810897435912 19.8922821969697  6.46153846153857 19.625946969697  6.46153846153857 19.3181818181818  C 6.46153846153857 19.1524621212121  6.52323717948718 18.9186789772727  6.64663461538453 18.6168323863636  C 6.77003205128199 18.3149857954546  6.93549679487171 17.962831439394  7.14302884615381 17.5603693181818  C 7.35056089743603 17.1579071969697  7.46554487179469 16.9330018939394  7.48798076923083 16.8856534090909  L 4.50961538461547 2.27272727272729  L 1.07692307692309 2.27272727272729  C 0.785256410256579 2.27272727272729  0.532852564102313 2.16027462121214  0.319711538461434 1.93536931818185  C 0.106570512820554 1.71046401515156  0 1.44412878787884  0 1.13636363636358  C 0 0.828598484848442  0.106570512820554 0.562263257575727  0.319711538461434 0.337357954545436  C 0.532852564102313 0.112452651515138  0.785256410256579 0  1.07692307692309 0  L 5.38461538461547 0  C 5.56410256410231 0  5.72395833333326 0.0384706439394182  5.86418269230774 0.115411931818151  C 6.00440705128199 0.192353219696995  6.11658653846143 0.284090909090865  6.20072115384619 0.390625  C 6.28485576923083 0.497159090909135  6.35777243589769 0.642163825757576  6.41947115384619 0.825639204545436  C 6.48116987179469 1.0091145833333  6.52323717948718 1.16595643939398  6.54567307692309 1.29616477272729  C 6.56810897435912 1.42637310606058  6.59895833333326 1.60097064393942  6.63822115384619 1.81995738636358  C 6.67748397435912 2.03894412878786  6.70272435897436 2.18986742424242  6.71394230769226 2.27272727272729  L 26.9230769230769 2.27272727272729  C 27.2147435897434 2.27272727272729  27.4671474358977 2.38517992424242  27.6802884615386 2.61008522727271  Z " fill-rule="nonzero" fill="#7f7f7f" stroke="none" transform="matrix(1 0 0 1 303 7124 )" />
  </g>
</svg>