<?xml version="1.0" encoding="utf-8"?>
<svg version="1.1" xmlns:xlink="http://www.w3.org/1999/xlink" width="20px" height="20px" xmlns="http://www.w3.org/2000/svg">
  <g transform="matrix(1 0 0 1 -148 -1524 )">
    <path d="M 158 1524  C 163.6 1524  168 1528.4  168 1534  C 168 1539.6  163.6 1544  158 1544  C 152.4 1544  148 1539.6  148 1534  C 148 1528.4  152.4 1524  158 1524  Z " fill-rule="nonzero" fill="#ffffff" stroke="none" fill-opacity="0" />
    <path d="M 158 1524.5  C 163.32 1524.5  167.5 1528.68  167.5 1534  C 167.5 1539.32  163.32 1543.5  158 1543.5  C 152.68 1543.5  148.5 1539.32  148.5 1534  C 148.5 1528.68  152.68 1524.5  158 1524.5  Z " stroke-width="1" stroke="#dd9931" fill="none" />
  </g>
</svg>