<?xml version="1.0" encoding="utf-8"?>
<svg version="1.1" xmlns:xlink="http://www.w3.org/1999/xlink" width="13px" height="11px" xmlns="http://www.w3.org/2000/svg">
  <g transform="matrix(1 0 0 1 -152 -1528 )">
    <path d="M 9.35156249999999 3.85156249999998  C 9.45052083333336 3.75260416666665  9.50000000000005 3.63541666666666  9.50000000000005 3.49999999999999  C 9.50000000000005 3.36458333333333  9.45052083333336 3.24739583333333  9.35156249999999 3.14843750000001  C 9.25260416666673 3.04947916666668  9.13541666666664 3.00000000000001  9.00000000000004 3.00000000000001  L 7.99999999999997 3.00000000000001  L 7.99999999999997 2.00000000000001  C 7.99999999999997 1.86458333333334  7.95052083333329 1.74739583333335  7.85156250000002 1.64843750000002  C 7.7526041666667 1.54947916666665  7.63541666666667 1.49999999999998  7.50000000000002 1.49999999999998  C 7.36458333333331 1.49999999999998  7.24739583333333 1.54947916666665  7.14843749999996 1.64843750000002  C 7.04947916666659 1.74739583333335  7.00000000000001 1.86458333333334  7.00000000000001 2.00000000000001  L 7.00000000000001 3.00000000000001  L 5.99999999999999 3.00000000000001  C 5.86458333333334 3.00000000000001  5.74739583333341 3.04947916666668  5.64843750000004 3.14843750000001  C 5.54947916666667 3.24739583333333  5.49999999999998 3.36458333333333  5.49999999999998 3.49999999999999  C 5.49999999999998 3.63541666666666  5.54947916666667 3.75260416666665  5.64843750000004 3.85156249999998  C 5.74739583333341 3.95052083333336  5.86458333333334 4.00000000000002  5.99999999999999 4.00000000000002  L 7.00000000000001 4.00000000000002  L 7.00000000000001 5.00000000000002  C 7.00000000000001 5.13541666666669  7.04947916666659 5.25260416666668  7.14843749999996 5.35156250000001  C 7.24739583333333 5.45052083333333  7.36458333333331 5.5  7.50000000000002 5.5  C 7.63541666666667 5.5  7.7526041666667 5.45052083333333  7.85156250000002 5.35156250000001  C 7.95052083333329 5.25260416666668  7.99999999999997 5.13541666666669  7.99999999999997 5.00000000000002  L 7.99999999999997 4.00000000000002  L 9.00000000000004 4.00000000000002  C 9.13541666666664 4.00000000000002  9.25260416666673 3.95052083333336  9.35156249999999 3.85156249999998  Z M 4.70703125000002 9.29296875  C 4.90234374999997 9.48828125000001  5.00000000000003 9.72395833333333  5.00000000000003 10  C 5.00000000000003 10.2760416666667  4.90234374999997 10.51171875  4.70703125000002 10.70703125  C 4.51171875000001 10.90234375  4.27604166666673 11  3.99999999999996 11  C 3.7239583333333 11  3.48828125000002 10.90234375  3.29296875000001 10.70703125  C 3.09765625 10.51171875  3.00000000000005 10.2760416666667  3.00000000000005 10  C 3.00000000000005 9.72395833333333  3.09765625 9.48828125000001  3.29296875000001 9.29296875  C 3.48828125000002 9.09765625  3.7239583333333 8.99999999999999  3.99999999999996 8.99999999999999  C 4.27604166666673 8.99999999999999  4.51171875000001 9.09765625  4.70703125000002 9.29296875  Z M 11.70703125 9.29296875  C 11.90234375 9.48828125000001  12 9.72395833333333  12 10  C 12 10.2760416666667  11.90234375 10.51171875  11.70703125 10.70703125  C 11.51171875 10.90234375  11.2760416666667 11  11 11  C 10.7239583333334 11  10.48828125 10.90234375  10.29296875 10.70703125  C 10.09765625 10.51171875  9.99999999999995 10.2760416666667  9.99999999999995 10  C 9.99999999999995 9.72395833333333  10.09765625 9.48828125000001  10.29296875 9.29296875  C 10.48828125 9.09765625  10.7239583333334 8.99999999999999  11 8.99999999999999  C 11.2760416666667 8.99999999999999  11.51171875 9.09765625  11.70703125 9.29296875  Z M 12.8515625 1.14843749999999  C 12.9505208333333 1.24739583333332  13 1.36458333333332  13 1.49999999999998  L 13 5.5  C 13 5.62499999999998  12.9583333333334 5.73567708333331  12.875 5.83203125  C 12.7916666666666 5.92838541666667  12.6848958333333 5.984375  12.5546875 5.99999999999998  L 4.39843750000002 6.95312500000001  C 4.40364583333333 6.98958333333335  4.41536458333327 7.04557291666667  4.43359374999998 7.12109375  C 4.4518229166667 7.19661458333331  4.46744791666669 7.26562500000002  4.48046875000004 7.32812500000001  C 4.49348958333334 7.390625  4.50000000000002 7.44791666666665  4.50000000000002 7.50000000000001  C 4.50000000000002 7.58333333333331  4.43749999999998 7.75000000000002  4.31249999999995 7.99999999999999  L 11.5 7.99999999999999  C 11.6354166666668 7.99999999999999  11.7526041666667 8.04947916666665  11.8515625 8.14843749999998  C 11.9505208333333 8.24739583333336  12 8.36458333333335  12 8.50000000000001  C 12 8.63541666666667  11.9505208333333 8.75260416666667  11.8515625 8.8515625  C 11.7526041666667 8.95052083333333  11.6354166666668 8.99999999999999  11.5 8.99999999999999  L 3.49999999999995 8.99999999999999  C 3.36458333333325 8.99999999999999  3.24739583333327 8.95052083333333  3.1484375 8.8515625  C 3.04947916666673 8.75260416666667  3.00000000000005 8.63541666666667  3.00000000000005 8.50000000000001  C 3.00000000000005 8.42708333333334  3.02864583333333 8.32421875  3.08593749999996 8.19140624999998  C 3.14322916666664 8.05859375000001  3.22005208333329 7.90364583333336  3.31640624999998 7.72656250000001  C 3.41276041666673 7.54947916666667  3.46614583333325 7.45052083333334  3.47656250000003 7.42968749999998  L 2.09375000000004 1.00000000000001  L 0.500000000000008 1.00000000000001  C 0.364583333333412 1.00000000000001  0.247395833333217 0.950520833333342  0.148437499999951 0.851562500000014  C 0.0494791666666856 0.752604166666686  0 0.635416666666691  0 0.499999999999975  C 0 0.364583333333314  0.0494791666666856 0.24739583333332  0.148437499999951 0.148437499999992  C 0.247395833333217 0.0494791666666607  0.364583333333412 0  0.500000000000008 0  L 2.50000000000004 0  C 2.58333333333322 0  2.6575520833333 0.016927083333344  2.72265625000002 0.0507812499999864  C 2.78776041666664 0.0846354166666776  2.83984374999995 0.124999999999981  2.87890625000002 0.171875  C 2.91796875000003 0.218750000000019  2.95182291666678 0.282552083333334  2.98046875000002 0.363281249999992  C 3.00911458333325 0.444010416666654  3.02864583333333 0.513020833333352  3.03906250000001 0.570312500000006  C 3.04947916666673 0.627604166666656  3.0638020833333 0.704427083333344  3.08203125000002 0.800781249999975  C 3.10026041666673 0.897135416666658  3.11197916666667 0.963541666666666  3.11718749999998 1.00000000000001  L 12.5 1.00000000000001  C 12.6354166666666 1.00000000000001  12.7526041666668 1.04947916666667  12.8515625 1.14843749999999  Z " fill-rule="nonzero" fill="#7f7f7f" stroke="none" transform="matrix(1 0 0 1 152 1528 )" />
  </g>
</svg>