<?xml version="1.0" encoding="utf-8"?>
<svg version="1.1" xmlns:xlink="http://www.w3.org/1999/xlink" width="6px" height="6px" xmlns="http://www.w3.org/2000/svg">
  <g transform="matrix(1 0 0 1 -129 -1553 )">
    <path d="M 5.79807692307692 2.15122873345936  C 5.93269230769231 2.17391304347826  6 2.23188405797101  6 2.32514177693762  C 6 2.38059231253938  5.96875 2.44108380592312  5.90625 2.50661625708885  L 4.59735576923077 3.84499054820416  L 4.90745192307692 5.73534971644612  C 4.90985576923077 5.75299306868305  4.91105769230769 5.77819785759294  4.91105769230769 5.8109640831758  C 4.91105769230769 5.86389413988658  4.8984375 5.90863264020164  4.87319711538462 5.94517958412098  C 4.84795673076923 5.98172652804033  4.81129807692308 6  4.76322115384615 6  C 4.71754807692308 6  4.66947115384615 5.98487712665406  4.61899038461538 5.95463137996219  L 3 5.06238185255198  L 1.38100961538462 5.95463137996219  C 1.328125 5.98487712665406  1.28004807692308 6  1.23677884615385 6  C 1.18629807692308 6  1.1484375 5.98172652804033  1.12319711538462 5.94517958412098  C 1.09795673076923 5.90863264020164  1.08533653846154 5.86389413988658  1.08533653846154 5.8109640831758  C 1.08533653846154 5.79584120982987  1.08774038461538 5.77063642091997  1.09254807692308 5.73534971644612  L 1.40264423076923 3.84499054820416  L 0.0901442307692308 2.50661625708885  C 0.0300480769230769 2.43856332703214  0 2.37807183364839  0 2.32514177693762  C 0 2.23188405797101  0.0673076923076923 2.17391304347826  0.201923076923077 2.15122873345936  L 2.01201923076923 1.87523629489603  L 2.82331730769231 0.155009451795841  C 2.86899038461539 0.0516698172652801  2.92788461538462 0  3 0  C 3.07211538461538 0  3.13100961538462 0.0516698172652801  3.17668269230769 0.155009451795841  L 3.98798076923077 1.87523629489603  L 5.79807692307692 2.15122873345936  Z " fill-rule="nonzero" fill="#dd9931" stroke="none" transform="matrix(1 0 0 1 129 1553 )" />
  </g>
</svg>