<?xml version="1.0" encoding="utf-8"?>
<svg version="1.1" xmlns:xlink="http://www.w3.org/1999/xlink" width="148px" height="36px" xmlns="http://www.w3.org/2000/svg">
  <g transform="matrix(1 0 0 1 -642 -847 )">
    <path d="M 642.5 851  A 3.5 3.5 0 0 1 646 847.5 L 786 847.5  A 3.5 3.5 0 0 1 789.5 851 L 789.5 879  A 3.5 3.5 0 0 1 786 882.5 L 646 882.5  A 3.5 3.5 0 0 1 642.5 879 L 642.5 851  Z " fill-rule="nonzero" fill="#d9534f" stroke="none" />
    <path d="M 642.5 851  A 3.5 3.5 0 0 1 646 847.5 L 786 847.5  A 3.5 3.5 0 0 1 789.5 851 L 789.5 879  A 3.5 3.5 0 0 1 786 882.5 L 646 882.5  A 3.5 3.5 0 0 1 642.5 879 L 642.5 851  Z " stroke-width="1" stroke="#d43f3a" fill="none" />
  </g>
</svg>