<?xml version="1.0" encoding="utf-8"?>
<svg version="1.1" xmlns:xlink="http://www.w3.org/1999/xlink" width="20px" height="20px" xmlns="http://www.w3.org/2000/svg">
  <g transform="matrix(1 0 0 1 -145 -3777 )">
    <path d="M 1.10677083333331 0  L 18.8932291666667 0  C 19.1970486111111 0  19.4574652777778 0.108506944444343  19.6744791666667 0.325520833333485  C 19.8914930555555 0.542534722222172  20 0.802951388888687  20 1.10677083333348  L 20 18.8932291666665  C 20 19.1970486111113  19.8914930555555 19.4574652777778  19.6744791666667 19.6744791666665  C 19.4574652777778 19.8914930555557  19.1970486111111 20  18.8932291666667 20  L 13.8020833333333 20  L 13.8020833333333 12.2526041666665  L 16.3932291666667 12.2526041666665  L 16.7838541666667 9.23177083333348  L 13.8020833333333 9.23177083333348  L 13.8020833333333 7.3046875  C 13.8020833333333 6.81857638888869  13.9040798611111 6.45399305555566  14.1080729166667 6.2109375  C 14.3120659722222 5.96788194444434  14.7092013888889 5.84635416666652  15.2994791666667 5.84635416666652  L 16.8880208333333 5.83333333333348  L 16.8880208333333 3.13802083333348  C 16.3411458333333 3.05989583333348  15.5685763888889 3.02083333333348  14.5703125 3.02083333333348  C 13.3897569444445 3.02083333333348  12.4457465277778 3.36805555555566  11.73828125 4.0625  C 11.0308159722222 4.75694444444434  10.6770833333333 5.73784722222217  10.6770833333333 7.00520833333348  L 10.6770833333333 9.23177083333348  L 8.07291666666669 9.23177083333348  L 8.07291666666669 12.2526041666665  L 10.6770833333333 12.2526041666665  L 10.6770833333333 20  L 1.10677083333331 20  C 0.802951388888914 20  0.542534722222229 19.8914930555557  0.325520833333314 19.6744791666665  C 0.108506944444457 19.4574652777778  0 19.1970486111113  0 18.8932291666665  L 0 1.10677083333348  C 0 0.802951388888687  0.108506944444457 0.542534722222172  0.325520833333314 0.325520833333485  C 0.542534722222229 0.108506944444343  0.802951388888914 0  1.10677083333331 0  Z " fill-rule="nonzero" fill="#0b73b7" stroke="none" transform="matrix(1 0 0 1 145 3777 )" />
  </g>
</svg>