<?xml version="1.0" encoding="utf-8"?>
<svg version="1.1" xmlns:xlink="http://www.w3.org/1999/xlink" width="38px" height="38px" xmlns="http://www.w3.org/2000/svg">
  <g transform="matrix(1 0 0 1 -739 -1848 )">
    <path d="M 758 1848  C 768.64 1848  777 1856.36  777 1867  C 777 1877.64  768.64 1886  758 1886  C 747.36 1886  739 1877.64  739 1867  C 739 1856.36  747.36 1848  758 1848  Z " fill-rule="nonzero" fill="#ffffff" stroke="none" fill-opacity="0" />
    <path d="M 758 1848.5  C 768.36 1848.5  776.5 1856.64  776.5 1867  C 776.5 1877.36  768.36 1885.5  758 1885.5  C 747.64 1885.5  739.5 1877.36  739.5 1867  C 739.5 1856.64  747.64 1848.5  758 1848.5  Z " stroke-width="1" stroke="#dd9931" fill="none" />
  </g>
</svg>