<?xml version="1.0" encoding="utf-8"?>
<svg version="1.1" xmlns:xlink="http://www.w3.org/1999/xlink" width="171px" height="29px" xmlns="http://www.w3.org/2000/svg">
  <g transform="matrix(1 0 0 1 -958 -742 )">
    <path d="M 958.5 746  A 3.5 3.5 0 0 1 962 742.5 L 1125 742.5  A 3.5 3.5 0 0 1 1128.5 746 L 1128.5 767  A 3.5 3.5 0 0 1 1125 770.5 L 962 770.5  A 3.5 3.5 0 0 1 958.5 767 L 958.5 746  Z " fill-rule="nonzero" fill="#d9534f" stroke="none" />
    <path d="M 958.5 746  A 3.5 3.5 0 0 1 962 742.5 L 1125 742.5  A 3.5 3.5 0 0 1 1128.5 746 L 1128.5 767  A 3.5 3.5 0 0 1 1125 770.5 L 962 770.5  A 3.5 3.5 0 0 1 958.5 767 L 958.5 746  Z " stroke-width="1" stroke="#d43f3a" fill="none" />
  </g>
</svg>