<?xml version="1.0" encoding="utf-8"?>
<svg version="1.1" xmlns:xlink="http://www.w3.org/1999/xlink" width="503px" height="33px" xmlns="http://www.w3.org/2000/svg">
  <g transform="matrix(1 0 0 1 -626 -916 )">
    <path d="M 626.5 920  A 3.5 3.5 0 0 1 630 916.5 L 1125 916.5  A 3.5 3.5 0 0 1 1128.5 920 L 1128.5 945  A 3.5 3.5 0 0 1 1125 948.5 L 630 948.5  A 3.5 3.5 0 0 1 626.5 945 L 626.5 920  Z " fill-rule="nonzero" fill="#d9534f" stroke="none" />
    <path d="M 626.5 920  A 3.5 3.5 0 0 1 630 916.5 L 1125 916.5  A 3.5 3.5 0 0 1 1128.5 920 L 1128.5 945  A 3.5 3.5 0 0 1 1125 948.5 L 630 948.5  A 3.5 3.5 0 0 1 626.5 945 L 626.5 920  Z " stroke-width="1" stroke="#d43f3a" fill="none" />
  </g>
</svg>