<?xml version="1.0" encoding="utf-8"?>
<svg version="1.1" xmlns:xlink="http://www.w3.org/1999/xlink" width="25px" height="21px" xmlns="http://www.w3.org/2000/svg">
  <g transform="matrix(1 0 0 1 -394 -2193 )">
    <path d="M 3.30636160714286 17.240234375  C 3.48307291666667 17.0670572916667  3.57142857142857 16.8619791666667  3.57142857142857 16.625  C 3.57142857142857 16.3880208333333  3.48307291666667 16.1829427083333  3.30636160714286 16.009765625  C 3.12965029761905 15.8365885416667  2.9203869047619 15.75  2.67857142857143 15.75  C 2.43675595238095 15.75  2.22749255952381 15.8365885416667  2.05078125 16.009765625  C 1.87406994047619 16.1829427083333  1.78571428571429 16.3880208333333  1.78571428571429 16.625  C 1.78571428571429 16.8619791666667  1.87406994047619 17.0670572916667  2.05078125 17.240234375  C 2.22749255952381 17.4134114583333  2.43675595238095 17.5  2.67857142857143 17.5  C 2.9203869047619 17.5  3.12965029761905 17.4134114583333  3.30636160714286 17.240234375  Z M 22.6841517857143 9.98046875  C 23.0375744047619 9.63411458333333  23.2142857142857 9.22395833333333  23.2142857142857 8.75  C 23.2142857142857 8.28515625  23.0329241071429 7.87727864583333  22.6702008928571 7.5263671875  C 22.3074776785714 7.17545572916667  21.8936011904762 7  21.4285714285714 7  L 13.3928571428571 7  C 13.3928571428571 6.81770833333333  13.4626116071429 6.5966796875  13.6021205357143 6.3369140625  C 13.7416294642857 6.0771484375  13.8950892857143 5.82649739583333  14.0625 5.5849609375  C 14.2299107142857 5.34342447916667  14.3833705357143 5.03352864583333  14.5228794642857 4.6552734375  C 14.6623883928571 4.27701822916667  14.7321428571429 3.89192708333333  14.7321428571429 3.5  C 14.7321428571429 2.88932291666666  14.5252046130952 2.44498697916667  14.111328125 2.1669921875  C 13.6974516369048 1.88899739583333  13.1603422619048 1.75  12.5 1.75  C 12.2767857142857 1.75  11.8582589285714 2.38346354166667  11.2444196428571 3.650390625  C 11.0212053571429 4.05143229166667  10.8491443452381 4.34765625  10.7282366071429 4.5390625  C 10.356212797619 5.12239583333333  9.83537946428571 5.783203125  9.16573660714286 6.521484375  C 8.5053943452381 7.259765625  8.03571428571429 7.74283854166667  7.75669642857143 7.970703125  C 7.11495535714286 8.490234375  6.46391369047619 8.75  5.80357142857143 8.75  L 5.35714285714286 8.75  L 5.35714285714286 17.5  L 5.80357142857143 17.5  C 6.47321428571429 17.5  7.24981398809524 17.6458333333333  8.13337053571429 17.9375  C 9.01692708333333 18.2291666666667  9.91675967261905 18.5208333333333  10.8328683035714 18.8125  C 11.7489769345238 19.1041666666667  12.5837053571429 19.25  13.3370535714286 19.25  C 15.0948660714286 19.25  15.9737723214286 18.4889322916667  15.9737723214286 16.966796875  C 15.9737723214286 16.7298177083333  15.9505208333333 16.474609375  15.9040178571429 16.201171875  C 16.1830357142857 16.0553385416667  16.4039248511905 15.8160807291667  16.5666852678571 15.4833984375  C 16.7294456845238 15.1507161458333  16.8108258928571 14.8157552083333  16.8108258928571 14.478515625  C 16.8108258928571 14.1412760416667  16.7271205357143 13.8268229166667  16.5597098214286 13.53515625  C 17.0526413690476 13.0794270833333  17.2991071428571 12.537109375  17.2991071428571 11.908203125  C 17.2991071428571 11.6803385416667  17.2526041666667 11.4274088541667  17.1595982142857 11.1494140625  C 17.0665922619048 10.8714192708333  16.9503348214286 10.6549479166667  16.8108258928571 10.5  L 21.4285714285714 10.5  C 21.9122023809524 10.5  22.3307291666667 10.3268229166667  22.6841517857143 9.98046875  Z M 23.9397321428571 6.2890625  C 24.6465773809524 6.98177083333333  25 7.79752604166667  25 8.736328125  C 25 9.693359375  24.6489025297619 10.5182291666667  23.9467075892857 11.2109375  C 23.2445126488095 11.9036458333333  22.4051339285714 12.25  21.4285714285714 12.25  L 19.0708705357143 12.25  C 19.0336681547619 12.8151041666667  18.8616071428571 13.357421875  18.5546875 13.876953125  C 18.5825892857143 14.068359375  18.5965401785714 14.2643229166667  18.5965401785714 14.46484375  C 18.5965401785714 15.3854166666667  18.3175223214286 16.1966145833333  17.7594866071429 16.8984375  C 17.768787202381 18.1653645833333  17.3735119047619 19.1656901041667  16.5736607142857 19.8994140625  C 15.7738095238095 20.6331380208333  14.7181919642857 21  13.4068080357143 21  C 12.1698288690476 21  10.6724330357143 20.685546875  8.91462053571429 20.056640625  C 7.38932291666667 19.5188802083333  6.35230654761905 19.25  5.80357142857143 19.25  L 1.78571428571429 19.25  C 1.29278273809524 19.25  0.871930803571429 19.0791015625  0.523158482142857 18.7373046875  C 0.174386160714286 18.3955078125  0 17.9830729166667  0 17.5  L 0 8.75  C 0 8.26692708333333  0.174386160714286 7.8544921875  0.523158482142857 7.5126953125  C 0.871930803571429 7.1708984375  1.29278273809524 7  1.78571428571429 7  L 5.80357142857143 7  C 5.89657738095238 7  5.99655877976191 6.9794921875  6.103515625 6.9384765625  C 6.21047247023809 6.8974609375  6.31975446428571 6.83365885416667  6.43136160714286 6.7470703125  C 6.54296875 6.66048177083333  6.64760044642857 6.57845052083333  6.74525669642857 6.5009765625  C 6.84291294642857 6.42350260416667  6.95452008928571 6.32096354166667  7.080078125 6.193359375  C 7.20563616071429 6.06575520833333  7.30096726190476 5.9677734375  7.36607142857143 5.8994140625  C 7.4311755952381 5.8310546875  7.51953125 5.73307291666667  7.63113839285714 5.60546875  C 7.74274553571429 5.47786458333333  7.80784970238095 5.400390625  7.82645089285714 5.373046875  C 8.43098958333333 4.69856770833333  8.8960193452381 4.11067708333333  9.22154017857143 3.609375  C 9.34244791666667 3.41796875  9.49590773809524 3.13541666666666  9.68191964285714 2.76171875  C 9.86793154761905 2.38802083333333  10.0399925595238 2.05989583333333  10.1981026785714 1.77734375  C 10.356212797619 1.49479166666666  10.5445498511905 1.20768229166666  10.7631138392857 0.916015624999999  C 10.981677827381 0.624348958333331  11.2374441964286 0.398763020833331  11.5304129464286 0.239257812499999  C 11.8233816964286 0.0797526041666649  12.1465773809524 0  12.5 0  C 13.6625744047619 0  14.6228608630952 0.305338541666665  15.380859375 0.916015624999999  C 16.1388578869048 1.52669270833333  16.5178571428571 2.38802083333333  16.5178571428571 3.5  C 16.5178571428571 4.11979166666667  16.4155505952381 4.703125  16.2109375 5.25  L 21.4285714285714 5.25  C 22.3958333333333 5.25  23.2328869047619 5.59635416666667  23.9397321428571 6.2890625  Z " fill-rule="nonzero" fill="#d98200" stroke="none" transform="matrix(1 0 0 1 394 2193 )" />
  </g>
</svg>