<?xml version="1.0" encoding="utf-8"?>
<svg version="1.1" xmlns:xlink="http://www.w3.org/1999/xlink" width="13px" height="11px" xmlns="http://www.w3.org/2000/svg">
  <g transform="matrix(1 0 0 1 -1104 -1690 )">
    <path d="M 12.2745535714284 4.2265625  C 12.5502232142857 4.0234375  12.7920386904762 3.796875  13 3.546875  L 13 9.75  C 13 10.09375  12.8863467261904 10.3880208333333  12.6590401785716 10.6328125  C 12.4317336309524 10.8776041666667  12.1584821428572 11  11.8392857142857 11  L 1.16071428571435 11  C 0.841517857142776 11  0.568266369047649 10.8776041666667  0.340959821428442 10.6328125  C 0.113653273809561 10.3880208333333  0 10.09375  0 9.75  L 0 3.546875  C 0.212797619047649 3.80208333333326  0.45703125 4.02864583333326  0.732700892857224 4.2265625  C 2.48344494047618 5.5078125  3.68526785714278 6.40625  4.33816964285722 6.921875  C 4.61383928571435 7.140625  4.83751860119044 7.31119791666674  5.00920758928565 7.43359375  C 5.18089657738096 7.55598958333326  5.40941220238096 7.68098958333326  5.69475446428565 7.80859375  C 5.98009672619044 7.93619791666674  6.24609375 8  6.49274553571435 8  L 6.5 8  L 6.50725446428565 8  C 6.75390625 8  7.01990327380956 7.93619791666674  7.30524553571435 7.80859375  C 7.59058779761904 7.68098958333326  7.81910342261904 7.55598958333326  7.99079241071435 7.43359375  C 8.16248139880956 7.31119791666674  8.38616071428565 7.140625  8.66183035714278 6.921875  C 9.48400297619044 6.28125  10.688244047619 5.3828125  12.2745535714284 4.2265625  Z M 12.6554129464284 0.3671875  C 12.8851376488096 0.611979166666629  13 0.90625  13 1.25  C 13 1.66145833333337  12.8815104166666 2.0546875  12.64453125 2.4296875  C 12.4075520833334 2.8046875  12.112537202381 3.125  11.7594866071428 3.390625  C 9.94103422619044 4.75  8.80933779761904 5.59635416666674  8.36439732142844 5.9296875  C 8.31603422619044 5.96614583333326  8.21326264880956 6.04557291666674  8.05608258928565 6.16796875  C 7.89890252976191 6.29036458333337  7.76832217261904 6.38932291666674  7.66434151785722 6.46484375  C 7.5603608630953 6.54036458333326  7.43461681547618 6.625  7.287109375 6.71875  C 7.13960193452382 6.8125  7.00055803571435 6.8828125  6.86997767857156 6.9296875  C 6.73939732142844 6.9765625  6.61848958333339 7  6.50725446428565 7  L 6.5 7  L 6.49274553571435 7  C 6.38151041666661 7  6.26060267857156 6.9765625  6.13002232142844 6.9296875  C 5.99944196428565 6.8828125  5.86039806547618 6.8125  5.712890625 6.71875  C 5.56538318452382 6.625  5.4396391369047 6.54036458333326  5.33565848214278 6.46484375  C 5.23167782738096 6.38932291666674  5.10109747023809 6.29036458333337  4.94391741071435 6.16796875  C 4.78673735119044 6.04557291666674  4.68396577380956 5.96614583333326  4.63560267857156 5.9296875  C 4.1954985119047 5.59635416666674  3.56194196428565 5.12109375  2.73493303571435 4.50390625  C 1.90792410714278 3.88671875  1.41220238095235 3.515625  1.24776785714278 3.390625  C 0.947916666666615 3.171875  0.664992559523824 2.87109375  0.398995535714349 2.48828125  C 0.132998511904702 2.10546875  0 1.75  0 1.421875  C 0 1.015625  0.100353422619037 0.677083333333371  0.301060267857224 0.40625  C 0.501767113095298 0.135416666666742  0.788318452380963 0  1.16071428571435 0  L 11.8392857142857 0  C 12.1536458333334 0  12.4256882440476 0.122395833333258  12.6554129464284 0.3671875  Z " fill-rule="nonzero" fill="#d98200" stroke="none" transform="matrix(1 0 0 1 1104 1690 )" />
  </g>
</svg>