<?xml version="1.0" encoding="utf-8"?>
<svg version="1.1" xmlns:xlink="http://www.w3.org/1999/xlink" width="94px" height="94px" xmlns="http://www.w3.org/2000/svg">
  <g transform="matrix(1 0 0 1 -132 -2753 )">
    <path d="M 28.7455357142857 3.72433035714286  C 34.5505952380952 1.24144345238095  40.6354166666667 0  47 0  C 53.3645833333333 0  59.4494047619048 1.24144345238095  65.2544642857143 3.72433035714286  C 71.0595238095238 6.20721726190476  76.0602678571429 9.546875  80.2566964285714 13.7433035714286  C 84.453125 17.9397321428571  87.7927827380953 22.9404761904762  90.2756696428571 28.7455357142857  C 92.7585565476191 34.5505952380952  94 40.6354166666667  94 47  C 94 53.3296130952381  92.7672991071429 59.3969494047619  90.3018973214286 65.2020089285714  C 87.8364955357143 71.007068452381  84.5055803571429 76.0078125  80.3091517857143 80.2042410714286  C 76.1127232142857 84.4006696428571  71.1119791666667 87.7490699404762  65.3069196428571 90.2494419642857  C 59.5018601190476 92.7498139880952  53.3995535714286 94  47 94  C 40.6004464285714 94  34.4981398809524 92.7585565476191  28.6930803571429 90.2756696428571  C 22.8880208333333 87.7927827380952  17.8960193452381 84.4443824404762  13.7170758928571 80.23046875  C 9.53813244047619 76.0165550595238  6.20721726190476 71.0158110119048  3.72433035714286 65.2282366071429  C 1.24144345238095 59.4406622023809  0 53.3645833333333  0 47  C 0 40.6354166666667  1.24144345238095 34.5505952380952  3.72433035714286 28.7455357142857  C 6.20721726190476 22.9404761904762  9.546875 17.9397321428571  13.7433035714286 13.7433035714286  C 17.9397321428571 9.546875  22.9404761904762 6.20721726190476  28.7455357142857 3.72433035714286  Z M 63.4185267857143 53.7142857142857  C 71.8113839285714 53.7142857142857  77.1618303571429 59.4319196428571  79.4698660714286 70.8671875  C 84.6804315476191 63.6982886904762  87.2857142857143 55.7425595238095  87.2857142857143 47  C 87.2857142857143 41.5446428571429  86.2191220238095 36.3340773809524  84.0859375 31.3683035714286  C 81.9527529761905 26.4025297619048  79.085193452381 22.1186755952381  75.4832589285714 18.5167410714286  C 71.8813244047619 14.914806547619  67.5974702380952 12.0472470238095  62.6316964285714 9.9140625  C 57.6659226190476 7.78087797619047  52.4553571428571 6.71428571428571  47 6.71428571428571  C 41.5446428571429 6.71428571428571  36.3340773809524 7.78087797619047  31.3683035714286 9.9140625  C 26.4025297619048 12.0472470238095  22.1186755952381 14.914806547619  18.5167410714286 18.5167410714286  C 14.9148065476191 22.1186755952381  12.0472470238095 26.4025297619048  9.9140625 31.3683035714286  C 7.78087797619048 36.3340773809524  6.71428571428571 41.5446428571429  6.71428571428571 47  C 6.71428571428571 55.7425595238095  9.31956845238095 63.6982886904762  14.5301339285714 70.8671875  C 16.8381696428571 59.4319196428571  22.1886160714286 53.7142857142857  30.5814732142857 53.7142857142857  C 35.1625744047619 58.1904761904762  40.6354166666667 60.4285714285714  47 60.4285714285714  C 53.3645833333333 60.4285714285714  58.8374255952381 58.1904761904762  63.4185267857143 53.7142857142857  Z M 61.2416294642857 51.1702008928571  C 65.17578125 47.2360491071429  67.1428571428571 42.4888392857143  67.1428571428571 36.9285714285714  C 67.1428571428571 31.3683035714286  65.17578125 26.62109375  61.2416294642857 22.6869419642857  C 57.3074776785714 18.7527901785714  52.5602678571429 16.7857142857143  47 16.7857142857143  C 41.4397321428571 16.7857142857143  36.6925223214286 18.7527901785714  32.7583705357143 22.6869419642857  C 28.82421875 26.62109375  26.8571428571429 31.3683035714286  26.8571428571429 36.9285714285714  C 26.8571428571429 42.4888392857143  28.82421875 47.2360491071429  32.7583705357143 51.1702008928571  C 36.6925223214286 55.1043526785714  41.4397321428571 57.0714285714286  47 57.0714285714286  C 52.5602678571429 57.0714285714286  57.3074776785714 55.1043526785714  61.2416294642857 51.1702008928571  Z " fill-rule="nonzero" fill="#d7d7d7" stroke="none" transform="matrix(1 0 0 1 132 2753 )" />
  </g>
</svg>