<?xml version="1.0" encoding="utf-8"?>
<svg version="1.1" xmlns:xlink="http://www.w3.org/1999/xlink" width="13px" height="12px" xmlns="http://www.w3.org/2000/svg">
  <g transform="matrix(1 0 0 1 -339 -3656 )">
    <path d="M 9.35156249999999 4.20170454545452  C 9.45052083333336 4.09374999999998  9.50000000000005 3.96590909090908  9.50000000000005 3.81818181818181  C 9.50000000000005 3.67045454545454  9.45052083333336 3.54261363636364  9.35156249999999 3.4346590909091  C 9.25260416666673 3.32670454545456  9.13541666666664 3.27272727272729  9.00000000000004 3.27272727272729  L 7.99999999999997 3.27272727272729  L 7.99999999999997 2.18181818181819  C 7.99999999999997 2.03409090909092  7.95052083333329 1.90625000000002  7.85156250000002 1.79829545454548  C 7.7526041666667 1.69034090909089  7.63541666666667 1.63636363636362  7.50000000000002 1.63636363636362  C 7.36458333333331 1.63636363636362  7.24739583333333 1.69034090909089  7.14843749999996 1.79829545454548  C 7.04947916666659 1.90625000000002  7.00000000000001 2.03409090909092  7.00000000000001 2.18181818181819  L 7.00000000000001 3.27272727272729  L 5.99999999999999 3.27272727272729  C 5.86458333333334 3.27272727272729  5.74739583333341 3.32670454545456  5.64843750000004 3.4346590909091  C 5.54947916666667 3.54261363636364  5.49999999999998 3.67045454545454  5.49999999999998 3.81818181818181  C 5.49999999999998 3.96590909090908  5.54947916666667 4.09374999999998  5.64843750000004 4.20170454545452  C 5.74739583333341 4.30965909090911  5.86458333333334 4.36363636363638  5.99999999999999 4.36363636363638  L 7.00000000000001 4.36363636363638  L 7.00000000000001 5.45454545454547  C 7.00000000000001 5.60227272727275  7.04947916666659 5.73011363636365  7.14843749999996 5.83806818181819  C 7.24739583333333 5.94602272727273  7.36458333333331 6  7.50000000000002 6  C 7.63541666666667 6  7.7526041666667 5.94602272727273  7.85156250000002 5.83806818181819  C 7.95052083333329 5.73011363636365  7.99999999999997 5.60227272727275  7.99999999999997 5.45454545454547  L 7.99999999999997 4.36363636363638  L 9.00000000000004 4.36363636363638  C 9.13541666666664 4.36363636363638  9.25260416666673 4.30965909090911  9.35156249999999 4.20170454545452  Z M 4.70703125000002 10.1377840909091  C 4.90234374999997 10.3508522727273  5.00000000000003 10.6079545454545  5.00000000000003 10.9090909090909  C 5.00000000000003 11.2102272727273  4.90234374999997 11.4673295454545  4.70703125000002 11.6803977272727  C 4.51171875000001 11.8934659090909  4.27604166666673 12  3.99999999999996 12  C 3.7239583333333 12  3.48828125000002 11.8934659090909  3.29296875000001 11.6803977272727  C 3.09765625 11.4673295454545  3.00000000000005 11.2102272727273  3.00000000000005 10.9090909090909  C 3.00000000000005 10.6079545454545  3.09765625 10.3508522727273  3.29296875000001 10.1377840909091  C 3.48828125000002 9.92471590909091  3.7239583333333 9.81818181818181  3.99999999999996 9.81818181818181  C 4.27604166666673 9.81818181818181  4.51171875000001 9.92471590909091  4.70703125000002 10.1377840909091  Z M 11.70703125 10.1377840909091  C 11.90234375 10.3508522727273  12 10.6079545454545  12 10.9090909090909  C 12 11.2102272727273  11.90234375 11.4673295454545  11.70703125 11.6803977272727  C 11.51171875 11.8934659090909  11.2760416666667 12  11 12  C 10.7239583333334 12  10.48828125 11.8934659090909  10.29296875 11.6803977272727  C 10.09765625 11.4673295454545  9.99999999999995 11.2102272727273  9.99999999999995 10.9090909090909  C 9.99999999999995 10.6079545454545  10.09765625 10.3508522727273  10.29296875 10.1377840909091  C 10.48828125 9.92471590909091  10.7239583333334 9.81818181818181  11 9.81818181818181  C 11.2760416666667 9.81818181818181  11.51171875 9.92471590909091  11.70703125 10.1377840909091  Z M 12.8515625 1.2528409090909  C 12.9505208333333 1.36079545454544  13 1.48863636363635  13 1.63636363636362  L 13 6  C 13 6.13636363636362  12.9583333333334 6.25710227272725  12.875 6.36221590909091  C 12.7916666666666 6.46732954545455  12.6848958333333 6.52840909090909  12.5546875 6.54545454545453  L 4.39843750000002 7.58522727272729  C 4.40364583333333 7.62500000000002  4.41536458333327 7.68607954545455  4.43359374999998 7.76846590909091  C 4.4518229166667 7.85085227272725  4.46744791666669 7.92613636363638  4.48046875000004 7.99431818181819  C 4.49348958333334 8.0625  4.50000000000002 8.12499999999998  4.50000000000002 8.18181818181819  C 4.50000000000002 8.27272727272725  4.43749999999998 8.45454545454547  4.31249999999995 8.72727272727271  L 11.5 8.72727272727271  C 11.6354166666668 8.72727272727271  11.7526041666667 8.78124999999998  11.8515625 8.88920454545453  C 11.9505208333333 8.99715909090911  12 9.12500000000002  12 9.27272727272729  C 12 9.42045454545455  11.9505208333333 9.54829545454546  11.8515625 9.65625  C 11.7526041666667 9.76420454545454  11.6354166666668 9.81818181818181  11.5 9.81818181818181  L 3.49999999999995 9.81818181818181  C 3.36458333333325 9.81818181818181  3.24739583333327 9.76420454545454  3.1484375 9.65625  C 3.04947916666673 9.54829545454546  3.00000000000005 9.42045454545455  3.00000000000005 9.27272727272729  C 3.00000000000005 9.19318181818183  3.02864583333333 9.08096590909091  3.08593749999996 8.93607954545453  C 3.14322916666664 8.79119318181819  3.22005208333329 8.62215909090911  3.31640624999998 8.42897727272729  C 3.41276041666673 8.23579545454546  3.46614583333325 8.12784090909092  3.47656250000003 8.10511363636362  L 2.09375000000004 1.0909090909091  L 0.500000000000008 1.0909090909091  C 0.364583333333412 1.0909090909091  0.247395833333217 1.03693181818183  0.148437499999951 0.928977272727288  C 0.0494791666666856 0.821022727272748  0 0.693181818181845  0 0.545454545454518  C 0 0.397727272727252  0.0494791666666856 0.269886363636349  0.148437499999951 0.161931818181809  C 0.247395833333217 0.0539772727272663  0.364583333333412 0  0.500000000000008 0  L 2.50000000000004 0  C 2.58333333333322 0  2.6575520833333 0.0184659090909207  2.72265625000002 0.0553977272727124  C 2.78776041666664 0.0923295454545574  2.83984374999995 0.136363636363615  2.87890625000002 0.1875  C 2.91796875000003 0.238636363636385  2.95182291666678 0.308238636363637  2.98046875000002 0.396306818181809  C 3.00911458333325 0.484374999999986  3.02864583333333 0.559659090909111  3.03906250000001 0.622159090909097  C 3.04947916666673 0.684659090909079  3.0638020833333 0.768465909090921  3.08203125000002 0.873579545454518  C 3.10026041666673 0.978693181818173  3.11197916666667 1.05113636363636  3.11718749999998 1.0909090909091  L 12.5 1.0909090909091  C 12.6354166666666 1.0909090909091  12.7526041666668 1.14488636363636  12.8515625 1.2528409090909  Z " fill-rule="nonzero" fill="#7f7f7f" stroke="none" transform="matrix(1 0 0 1 339 3656 )" />
  </g>
</svg>