<?xml version="1.0" encoding="utf-8"?>
<svg version="1.1" xmlns:xlink="http://www.w3.org/1999/xlink" width="19px" height="19px" xmlns="http://www.w3.org/2000/svg">
  <g transform="matrix(1 0 0 1 -131 -6406 )">
    <path d="M 18.9595170454545 14.7223011363636  C 18.9865056818182 14.7852746212121  19 14.8797348484848  19 15.0056818181818  C 19 15.2485795454545  18.9550189393939 15.5656960227273  18.8650568181818 15.95703125  C 18.7750946969697 16.3483664772727  18.680634469697 16.6564867424242  18.5816761363636 16.8813920454545  C 18.3927556818182 17.3312026515151  17.8439867424242 17.8080018939394  16.9353693181818 18.3117897727273  C 16.0897253787879 18.7705965909091  15.2530776515152 19  14.4254261363636 19  C 14.1825284090909 19  13.9441287878788 18.9842566287879  13.7102272727273 18.9527698863636  C 13.4763257575758 18.9212831439394  13.2176846590909 18.8650568181818  12.9343039772727 18.7840909090909  C 12.6509232954545 18.703125  12.4395123106061 18.6379024621212  12.3000710227273 18.5884232954545  C 12.1606297348485 18.5389441287879  11.9109848484848 18.4467329545455  11.5511363636364 18.3117897727273  C 11.1912878787879 18.1768465909091  10.9708806818182 18.0958806818182  10.8899147727273 18.0688920454545  C 10.0082859848485 17.7540246212121  9.22111742424243 17.3806818181818  8.52840909090909 16.9488636363636  C 7.38589015151515 16.2381628787879  6.19839015151515 15.266571969697  4.96590909090909 14.0340909090909  C 3.73342803030303 12.8016098484848  2.76183712121212 11.6141098484848  2.05113636363636 10.4715909090909  C 1.61931818181818 9.77888257575757  1.24597537878788 8.99171401515151  0.931107954545454 8.11008522727273  C 0.904119318181818 8.02911931818182  0.823153409090909 7.80871212121212  0.688210227272727 7.44886363636364  C 0.553267045454545 7.08901515151515  0.461055871212121 6.83937026515151  0.411576704545455 6.69992897727273  C 0.362097537878788 6.56048768939394  0.296875 6.34907670454545  0.215909090909091 6.06569602272727  C 0.134943181818182 5.78231534090909  0.0787168560606061 5.52367424242424  0.0472301136363636 5.28977272727273  C 0.0157433712121212 5.05587121212121  0 4.81747159090909  0 4.57457386363636  C 0 3.74692234848485  0.229403409090909 2.91027462121212  0.688210227272727 2.06463068181818  C 1.19199810606061 1.15601325757575  1.66879734848485 0.607244318181819  2.11860795454545 0.418323863636363  C 2.34351325757576 0.319365530303029  2.65163352272727 0.224905303030301  3.04296875 0.134943181818181  C 3.43430397727273 0.0449810606060598  3.75142045454545 0  3.99431818181818 0  C 4.12026515151515 0  4.21472537878788 0.0134943181818186  4.27769886363636 0.0404829545454536  C 4.43963068181818 0.0944602272727278  4.6780303030303 0.436316287878788  4.99289772727273 1.06605113636364  C 5.09185606060606 1.23697916666666  5.22679924242424 1.47987689393939  5.39772727272727 1.79474431818182  C 5.5686553030303 2.10961174242424  5.72608901515152 2.39524147727273  5.87002840909091 2.65163352272727  C 6.0139678030303 2.90802556818182  6.15340909090909 3.14867424242424  6.28835227272727 3.37357954545455  C 6.31534090909091 3.40956439393939  6.39405776515152 3.52201704545455  6.52450284090909 3.7109375  C 6.65494791666667 3.89985795454545  6.7516571969697 4.05954071969697  6.81463068181818 4.18998579545455  C 6.87760416666667 4.32043087121212  6.90909090909091 4.44862689393939  6.90909090909091 4.57457386363636  C 6.90909090909091 4.7544981060606  6.78089488636364 4.97940340909091  6.52450284090909 5.24928977272727  C 6.26811079545455 5.51917613636364  5.98922821969697 5.76657196969697  5.68785511363636 5.99147727272727  C 5.38648200757576 6.21638257575757  5.10759943181818 6.4547821969697  4.85120738636364 6.70667613636364  C 4.59481534090909 6.95857007575758  4.46661931818182 7.16548295454545  4.46661931818182 7.32741477272727  C 4.46661931818182 7.40838068181818  4.48910984848485 7.50958806818182  4.53409090909091 7.63103693181818  C 4.57907196969697 7.75248579545455  4.61730587121212 7.84469696969697  4.64879261363636 7.90767045454545  C 4.68027935606061 7.97064393939394  4.74325284090909 8.07859848484848  4.83771306818182 8.23153409090909  C 4.93217329545455 8.3844696969697  4.98390151515152 8.46993371212121  4.99289772727273 8.48792613636364  C 5.67660984848485 9.7204071969697  6.4592803030303 10.7774621212121  7.34090909090909 11.6590909090909  C 8.22253787878788 12.5407196969697  9.2795928030303 13.3233901515152  10.5120738636364 14.0071022727273  C 10.5300662878788 14.0160984848485  10.6155303030303 14.0678267045455  10.7684659090909 14.1622869318182  C 10.9214015151515 14.2567471590909  11.0293560606061 14.3197206439394  11.0923295454545 14.3512073863636  C 11.155303030303 14.3826941287879  11.2475142045455 14.420928030303  11.3689630681818 14.4659090909091  C 11.4904119318182 14.5108901515152  11.5916193181818 14.5333806818182  11.6725852272727 14.5333806818182  C 11.8345170454545 14.5333806818182  12.0414299242424 14.4051846590909  12.2933238636364 14.1487926136364  C 12.5452178030303 13.8924005681818  12.7836174242424 13.6135179924242  13.0085227272727 13.3121448863636  C 13.233428030303 13.010771780303  13.4808238636364 12.7318892045455  13.7507102272727 12.4754971590909  C 14.0205965909091 12.2191051136364  14.2455018939394 12.0909090909091  14.4254261363636 12.0909090909091  C 14.5513731060606 12.0909090909091  14.6795691287879 12.1223958333333  14.8100142045455 12.1853693181818  C 14.940459280303 12.2483428030303  15.1001420454545 12.3450520833333  15.2890625 12.4754971590909  C 15.4779829545455 12.6059422348485  15.5904356060606 12.6846590909091  15.6264204545455 12.7116477272727  C 15.8513257575758 12.8465909090909  16.0919744318182 12.9860321969697  16.3483664772727 13.1299715909091  C 16.6047585227273 13.2739109848485  16.8903882575758 13.4313446969697  17.2052556818182 13.6022727272727  C 17.5201231060606 13.7732007575758  17.7630208333333 13.9081439393939  17.9339488636364 14.0071022727273  C 18.5636837121212 14.3219696969697  18.9055397727273 14.5603693181818  18.9595170454545 14.7223011363636  Z " fill-rule="nonzero" fill="#dd9931" stroke="none" transform="matrix(1 0 0 1 131 6406 )" />
  </g>
</svg>