<?xml version="1.0" encoding="utf-8"?>
<svg version="1.1" xmlns:xlink="http://www.w3.org/1999/xlink" width="15px" height="15px" xmlns="http://www.w3.org/2000/svg">
  <g transform="matrix(1 0 0 1 -812 -78 )">
    <path d="M 9.19921875 9.19921875  C 9.98948317307685 8.40895432692308  10.3846153846154 7.4579326923077  10.3846153846154 6.34615384615384  C 10.3846153846154 5.234375  9.98948317307685 4.28335336538462  9.19921875 3.4930889423077  C 8.40895432692315 2.70282451923075  7.45793269230762 2.3076923076923  6.34615384615375 2.3076923076923  C 5.23437500000006 2.3076923076923  4.2833533653847 2.70282451923075  3.49308894230768 3.4930889423077  C 2.70282451923083 4.28335336538462  2.30769230769232 5.234375  2.30769230769232 6.34615384615384  C 2.30769230769232 7.4579326923077  2.70282451923083 8.40895432692308  3.49308894230768 9.19921875  C 4.2833533653847 9.98948317307692  5.23437500000006 10.3846153846154  6.34615384615375 10.3846153846154  C 7.45793269230762 10.3846153846154  8.40895432692315 9.98948317307692  9.19921875 9.19921875  Z M 14.6664663461538 13.0348557692308  C 14.8888221153847 13.2572115384615  15 13.5276442307692  15 13.8461538461538  C 15 14.1586538461538  14.8858173076923 14.4290865384615  14.657451923077 14.6574519230769  C 14.4290865384615 14.8858173076923  14.1586538461538 15  13.8461538461538 15  C 13.5216346153846 15  13.251201923077 14.8858173076923  13.0348557692307 14.6574519230769  L 9.94290865384625 11.5745192307692  C 8.86718750000006 12.3197115384615  7.66826923076917 12.6923076923077  6.34615384615375 12.6923076923077  C 5.48677884615381 12.6923076923077  4.66496394230768 12.5255408653846  3.88070913461536 12.1920072115385  C 3.09645432692304 11.8584735576923  2.42037259615375 11.4077524038462  1.85246394230768 10.83984375  C 1.2845552884616 10.2719350961538  0.833834134615358 9.59585336538462  0.500300480769283 8.8115985576923  C 0.166766826923038 8.02734375  0 7.20552884615384  0 6.34615384615384  C 0 5.48677884615384  0.166766826923038 4.6649639423077  0.500300480769283 3.88070913461538  C 0.833834134615358 3.09645432692308  1.2845552884616 2.42037259615384  1.85246394230768 1.8524639423077  C 2.42037259615375 1.28455528846154  3.09645432692304 0.833834134615377  3.88070913461536 0.500300480769245  C 4.66496394230768 0.166766826923082  5.48677884615381 0  6.34615384615375 0  C 7.20552884615387 0  8.02734375 0.166766826923082  8.81159855769232 0.500300480769245  C 9.59585336538464 0.833834134615377  10.2719350961538 1.28455528846154  10.83984375 1.8524639423077  C 11.4077524038462 2.42037259615384  11.8584735576923 3.09645432692308  12.1920072115384 3.88070913461538  C 12.5255408653846 4.6649639423077  12.6923076923077 5.48677884615384  12.6923076923077 6.34615384615384  C 12.6923076923077 7.66826923076925  12.3197115384615 8.8671875  11.5745192307693 9.94290865384616  L 14.6664663461538 13.0348557692308  Z " fill-rule="nonzero" fill="#7f7f7f" stroke="none" transform="matrix(1 0 0 1 812 78 )" />
  </g>
</svg>