<?xml version="1.0" encoding="utf-8"?>
<svg version="1.1" xmlns:xlink="http://www.w3.org/1999/xlink" width="37px" height="37px" xmlns="http://www.w3.org/2000/svg">
  <g transform="matrix(1 0 0 1 -1076 -1734 )">
    <path d="M 1094.5 1734  C 1104.86 1734  1113 1742.14  1113 1752.5  C 1113 1762.86  1104.86 1771  1094.5 1771  C 1084.14 1771  1076 1762.86  1076 1752.5  C 1076 1742.14  1084.14 1734  1094.5 1734  Z " fill-rule="nonzero" fill="#ffffff" stroke="none" fill-opacity="0" />
    <path d="M 1094.5 1734.5  C 1104.58 1734.5  1112.5 1742.42  1112.5 1752.5  C 1112.5 1762.58  1104.58 1770.5  1094.5 1770.5  C 1084.42 1770.5  1076.5 1762.58  1076.5 1752.5  C 1076.5 1742.42  1084.42 1734.5  1094.5 1734.5  Z " stroke-width="1" stroke="#dd9931" fill="none" />
  </g>
</svg>