<?xml version="1.0" encoding="utf-8"?>
<svg version="1.1" xmlns:xlink="http://www.w3.org/1999/xlink" width="22px" height="19px" xmlns="http://www.w3.org/2000/svg">
  <g transform="matrix(1 0 0 1 -406 -2241 )">
    <path d="M 15.8257211538461 6.65269886363633  C 15.9931891025642 6.48177083333331  16.0769230769232 6.27935606060604  16.0769230769232 6.04545454545453  C 16.0769230769232 5.81155303030302  15.9931891025642 5.60913825757576  15.8257211538461 5.43821022727274  C 15.6582532051283 5.26728219696972  15.4599358974358 5.18181818181821  15.2307692307693 5.18181818181821  L 13.5384615384615 5.18181818181821  L 13.5384615384615 3.45454545454547  C 13.5384615384615 3.22064393939396  13.4547275641025 3.01822916666669  13.2872596153846 2.84730113636367  C 13.1197916666667 2.67637310606057  12.9214743589744 2.59090909090906  12.6923076923077 2.59090909090906  C 12.463141025641 2.59090909090906  12.2648237179487 2.67637310606057  12.0973557692307 2.84730113636367  C 11.9298878205127 3.01822916666669  11.8461538461539 3.22064393939396  11.8461538461539 3.45454545454547  L 11.8461538461539 5.18181818181821  L 10.1538461538461 5.18181818181821  C 9.9246794871795 5.18181818181821  9.72636217948731 5.26728219696972  9.5588942307693 5.43821022727274  C 9.39142628205129 5.60913825757576  9.30769230769228 5.81155303030302  9.30769230769228 6.04545454545453  C 9.30769230769228 6.27935606060604  9.39142628205129 6.48177083333331  9.5588942307693 6.65269886363633  C 9.72636217948731 6.82362689393943  9.9246794871795 6.90909090909094  10.1538461538461 6.90909090909094  L 11.8461538461539 6.90909090909094  L 11.8461538461539 8.63636363636367  C 11.8461538461539 8.87026515151518  11.9298878205127 9.07267992424245  12.0973557692307 9.24360795454547  C 12.2648237179487 9.41453598484848  12.463141025641 9.5  12.6923076923077 9.5  C 12.9214743589744 9.5  13.1197916666667 9.41453598484848  13.2872596153846 9.24360795454547  C 13.4547275641025 9.07267992424245  13.5384615384615 8.87026515151518  13.5384615384615 8.63636363636367  L 13.5384615384615 6.90909090909094  L 15.2307692307693 6.90909090909094  C 15.4599358974358 6.90909090909094  15.6582532051283 6.82362689393943  15.8257211538461 6.65269886363633  Z M 7.96574519230772 16.0514914772727  C 8.29627403846149 16.3888494318182  8.46153846153851 16.795928030303  8.46153846153851 17.2727272727273  C 8.46153846153851 17.7495265151515  8.29627403846149 18.1566051136363  7.96574519230772 18.4939630681818  C 7.63521634615386 18.8313210227273  7.23637820512831 19  6.7692307692307 19  C 6.30208333333327 19  5.90324519230772 18.8313210227273  5.57271634615386 18.4939630681818  C 5.2421875 18.1566051136363  5.07692307692316 17.7495265151515  5.07692307692316 17.2727272727273  C 5.07692307692316 16.795928030303  5.2421875 16.3888494318182  5.57271634615386 16.0514914772727  C 5.90324519230772 15.7141335227273  6.30208333333327 15.5454545454545  6.7692307692307 15.5454545454545  C 7.23637820512831 15.5454545454545  7.63521634615386 15.7141335227273  7.96574519230772 16.0514914772727  Z M 19.8118990384615 16.0514914772727  C 20.1424278846154 16.3888494318182  20.3076923076923 16.795928030303  20.3076923076923 17.2727272727273  C 20.3076923076923 17.7495265151515  20.1424278846154 18.1566051136363  19.8118990384615 18.4939630681818  C 19.4813701923077 18.8313210227273  19.0825320512822 19  18.6153846153846 19  C 18.1482371794873 19  17.7493990384615 18.8313210227273  17.4188701923077 18.4939630681818  C 17.0883413461539 18.1566051136363  16.9230769230768 17.7495265151515  16.9230769230768 17.2727272727273  C 16.9230769230768 16.795928030303  17.0883413461539 16.3888494318182  17.4188701923077 16.0514914772727  C 17.7493990384615 15.7141335227273  18.1482371794873 15.5454545454545  18.6153846153846 15.5454545454545  C 19.0825320512822 15.5454545454545  19.4813701923077 15.7141335227273  19.8118990384615 16.0514914772727  Z M 21.7487980769232 1.98366477272726  C 21.916266025641 2.15459280303028  22 2.35700757575755  22 2.59090909090906  L 22 9.5  C 22 9.71590909090906  21.9294871794873 9.90707859848482  21.7884615384615 10.0735085227273  C 21.6474358974358 10.2399384469697  21.4667467948717 10.3366477272727  21.2463942307693 10.3636363636363  L 7.44350961538465 12.0099431818182  C 7.45232371794871 12.0729166666667  7.47215544871783 12.1696259469697  7.50300480769228 12.3000710227273  C 7.53385416666673 12.4305160984848  7.56029647435901 12.5497159090909  7.5823317307693 12.6576704545455  C 7.6043669871795 12.765625  7.61538461538465 12.8645833333333  7.61538461538465 12.9545454545455  C 7.61538461538465 13.0984848484848  7.50961538461535 13.3863636363637  7.29807692307684 13.8181818181818  L 19.4615384615385 13.8181818181818  C 19.6907051282053 13.8181818181818  19.8890224358975 13.9036458333333  20.0564903846154 14.0745738636363  C 20.2239583333333 14.2455018939394  20.3076923076923 14.4479166666667  20.3076923076923 14.6818181818182  C 20.3076923076923 14.9157196969697  20.2239583333333 15.118134469697  20.0564903846154 15.2890625  C 19.8890224358975 15.459990530303  19.6907051282053 15.5454545454545  19.4615384615385 15.5454545454545  L 5.92307692307684 15.5454545454545  C 5.69391025641011 15.5454545454545  5.49559294871783 15.459990530303  5.328125 15.2890625  C 5.16065705128217 15.118134469697  5.07692307692316 14.9157196969697  5.07692307692316 14.6818181818182  C 5.07692307692316 14.5558712121212  5.12540064102564 14.3781960227273  5.2223557692307 14.1487926136363  C 5.31931089743585 13.9193892045455  5.44931891025634 13.6517518939394  5.61237980769228 13.3458806818182  C 5.77544070512831 13.040009469697  5.86578525641011 12.869081439394  5.88341346153851 12.8330965909091  L 3.5432692307693 1.72727272727274  L 0.84615384615386 1.72727272727274  C 0.616987179487312 1.72727272727274  0.418669871794675 1.64180871212123  0.251201923076841 1.47088068181821  C 0.0837339743590064 1.29995265151518  0 1.09753787878792  0 0.863636363636321  C 0 0.629734848484816  0.0837339743590064 0.427320075757553  0.251201923076841 0.256392045454532  C 0.418669871794675 0.0854640151515049  0.616987179487312 0  0.84615384615386 0  L 4.2307692307693 0  C 4.37179487179468 0  4.49739583333327 0.0292376893939578  4.60757211538465 0.0877130681817947  C 4.71774839743585 0.146188446969716  4.80588942307684 0.215909090909058  4.87199519230772 0.296875  C 4.93810096153851 0.377840909090942  4.99539262820532 0.488044507575758  5.04387019230772 0.627485795454532  C 5.09234775641011 0.766927083333311  5.12540064102564 0.886126893939426  5.14302884615386 0.985085227272737  C 5.16065705128217 1.08404356060604  5.18489583333327 1.21673768939396  5.21574519230772 1.38316761363632  C 5.24659455128217 1.54959753787877  5.26642628205129 1.66429924242424  5.27524038461535 2  L 21.1538461538461 2  C 21.3830128205127 1.72727272727274  21.5813301282053 1.81273674242424  21.7487980769232 1.98366477272726  Z " fill-rule="nonzero" fill="#7f7f7f" stroke="none" transform="matrix(1 0 0 1 406 2241 )" />
  </g>
</svg>