<?xml version="1.0" encoding="utf-8"?>
<svg version="1.1" xmlns:xlink="http://www.w3.org/1999/xlink" width="52px" height="52px" xmlns="http://www.w3.org/2000/svg">
  <g transform="matrix(1 0 0 1 -12 -2881 )">
    <path d="M 15.9017857142857 2.06026785714286  C 19.1130952380952 0.686755952380952  22.4791666666667 0  26 0  C 29.5208333333333 0  32.8869047619048 0.686755952380952  36.0982142857143 2.06026785714286  C 39.3095238095238 3.43377976190476  42.0758928571429 5.28125  44.3973214285714 7.60267857142857  C 46.71875 9.92410714285714  48.5662202380952 12.6904761904762  49.9397321428571 15.9017857142857  C 51.3132440476191 19.1130952380952  52 22.4791666666667  52 26  C 52 29.5014880952381  51.3180803571429 32.8578869047619  49.9542410714286 36.0691964285714  C 48.5904017857143 39.280505952381  46.7477678571429 42.046875  44.4263392857143 44.3683035714286  C 42.1049107142857 46.6897321428571  39.3385416666667 48.5420386904762  36.1272321428571 49.9252232142857  C 32.9159226190476 51.3084077380952  29.5401785714286 52  26 52  C 22.4598214285714 52  19.0840773809524 51.3132440476191  15.8727678571429 49.9397321428571  C 12.6614583333333 48.5662202380952  9.89992559523809 46.7139136904762  7.58816964285714 44.3828125  C 5.27641369047619 42.0517113095238  3.43377976190476 39.2853422619048  2.06026785714286 36.0837053571429  C 0.686755952380952 32.8820684523809  0 29.5208333333333  0 26  C 0 22.4791666666667  0.686755952380952 19.1130952380952  2.06026785714286 15.9017857142857  C 3.43377976190476 12.6904761904762  5.28125 9.92410714285714  7.60267857142857 7.60267857142857  C 9.92410714285714 5.28125  12.6904761904762 3.43377976190476  15.9017857142857 2.06026785714286  Z M 35.0825892857143 29.7142857142857  C 39.7254464285714 29.7142857142857  42.6852678571429 32.8772321428571  43.9620535714286 39.203125  C 46.8444940476191 35.2373511904762  48.2857142857143 30.8363095238095  48.2857142857143 26  C 48.2857142857143 22.9821428571429  47.6956845238095 20.0997023809524  46.515625 17.3526785714286  C 45.3355654761905 14.6056547619048  43.749255952381 12.2358630952381  41.7566964285714 10.2433035714286  C 39.7641369047619 8.25074404761905  37.3943452380952 6.66443452380952  34.6473214285714 5.484375  C 31.9002976190476 4.30431547619047  29.0178571428571 3.71428571428571  26 3.71428571428571  C 22.9821428571429 3.71428571428571  20.0997023809524 4.30431547619047  17.3526785714286 5.484375  C 14.6056547619048 6.66443452380952  12.2358630952381 8.25074404761905  10.2433035714286 10.2433035714286  C 8.25074404761905 12.2358630952381  6.66443452380952 14.6056547619048  5.484375 17.3526785714286  C 4.30431547619048 20.0997023809524  3.71428571428571 22.9821428571429  3.71428571428571 26  C 3.71428571428571 30.8363095238095  5.15550595238095 35.2373511904762  8.03794642857143 39.203125  C 9.31473214285714 32.8772321428571  12.2745535714286 29.7142857142857  16.9174107142857 29.7142857142857  C 19.4516369047619 32.1904761904762  22.4791666666667 33.4285714285714  26 33.4285714285714  C 29.5208333333333 33.4285714285714  32.5483630952381 32.1904761904762  35.0825892857143 29.7142857142857  Z M 33.8783482142857 28.3069196428571  C 36.0546875 26.1305803571429  37.1428571428571 23.5044642857143  37.1428571428571 20.4285714285714  C 37.1428571428571 17.3526785714286  36.0546875 14.7265625  33.8783482142857 12.5502232142857  C 31.7020089285714 10.3738839285714  29.0758928571429 9.28571428571429  26 9.28571428571429  C 22.9241071428571 9.28571428571429  20.2979910714286 10.3738839285714  18.1216517857143 12.5502232142857  C 15.9453125 14.7265625  14.8571428571429 17.3526785714286  14.8571428571429 20.4285714285714  C 14.8571428571429 23.5044642857143  15.9453125 26.1305803571429  18.1216517857143 28.3069196428571  C 20.2979910714286 30.4832589285714  22.9241071428571 31.5714285714286  26 31.5714285714286  C 29.0758928571429 31.5714285714286  31.7020089285714 30.4832589285714  33.8783482142857 28.3069196428571  Z " fill-rule="nonzero" fill="#d7d7d7" stroke="none" transform="matrix(1 0 0 1 12 2881 )" />
  </g>
</svg>