<?xml version="1.0" encoding="utf-8"?>
<svg version="1.1" xmlns:xlink="http://www.w3.org/1999/xlink" width="152px" height="33px" xmlns="http://www.w3.org/2000/svg">
  <g transform="matrix(1 0 0 1 -278 -902 )">
    <path d="M 278.5 906  A 3.5 3.5 0 0 1 282 902.5 L 426 902.5  A 3.5 3.5 0 0 1 429.5 906 L 429.5 931  A 3.5 3.5 0 0 1 426 934.5 L 282 934.5  A 3.5 3.5 0 0 1 278.5 931 L 278.5 906  Z " fill-rule="nonzero" fill="#39b3d7" stroke="none" />
    <path d="M 278.5 906  A 3.5 3.5 0 0 1 282 902.5 L 426 902.5  A 3.5 3.5 0 0 1 429.5 906 L 429.5 931  A 3.5 3.5 0 0 1 426 934.5 L 282 934.5  A 3.5 3.5 0 0 1 278.5 931 L 278.5 906  Z " stroke-width="1" stroke="#269abc" fill="none" />
  </g>
</svg>