<?xml version="1.0" encoding="utf-8"?>
<svg version="1.1" xmlns:xlink="http://www.w3.org/1999/xlink" width="176px" height="36px" xmlns="http://www.w3.org/2000/svg">
  <g transform="matrix(1 0 0 1 -275 -428 )">
    <path d="M 275.5 432  A 3.5 3.5 0 0 1 279 428.5 L 447 428.5  A 3.5 3.5 0 0 1 450.5 432 L 450.5 460  A 3.5 3.5 0 0 1 447 463.5 L 279 463.5  A 3.5 3.5 0 0 1 275.5 460 L 275.5 432  Z " fill-rule="nonzero" fill="#ffffff" stroke="none" />
    <path d="M 275.5 432  A 3.5 3.5 0 0 1 279 428.5 L 447 428.5  A 3.5 3.5 0 0 1 450.5 432 L 450.5 460  A 3.5 3.5 0 0 1 447 463.5 L 279 463.5  A 3.5 3.5 0 0 1 275.5 460 L 275.5 432  Z " stroke-width="1" stroke="#dddddd" fill="none" />
  </g>
</svg>