<?xml version="1.0" encoding="utf-8"?>
<svg version="1.1" xmlns:xlink="http://www.w3.org/1999/xlink" width="101px" height="33px" xmlns="http://www.w3.org/2000/svg">
  <g transform="matrix(1 0 0 1 -906 -6087 )">
    <path d="M 906.5 6091  A 3.5 3.5 0 0 1 910 6087.5 L 1003 6087.5  A 3.5 3.5 0 0 1 1006.5 6091 L 1006.5 6116  A 3.5 3.5 0 0 1 1003 6119.5 L 910 6119.5  A 3.5 3.5 0 0 1 906.5 6116 L 906.5 6091  Z " fill-rule="nonzero" fill="#5bc0de" stroke="none" />
    <path d="M 906.5 6091  A 3.5 3.5 0 0 1 910 6087.5 L 1003 6087.5  A 3.5 3.5 0 0 1 1006.5 6091 L 1006.5 6116  A 3.5 3.5 0 0 1 1003 6119.5 L 910 6119.5  A 3.5 3.5 0 0 1 906.5 6116 L 906.5 6091  Z " stroke-width="1" stroke="#46b8da" fill="none" />
  </g>
</svg>