<?xml version="1.0" encoding="utf-8"?>
<svg version="1.1" xmlns:xlink="http://www.w3.org/1999/xlink" width="17px" height="14px" xmlns="http://www.w3.org/2000/svg">
  <g transform="matrix(1 0 0 1 -422 -18 )">
    <path d="M 16.0513392857141 5.37926136363636  C 16.4118303571428 5.12073863636364  16.7280505952381 4.83238636363636  17 4.51420454545455  L 17 12.4090909090909  C 17 12.8465909090909  16.8513764880952 13.2211174242424  16.5541294642859 13.5326704545455  C 16.2568824404761 13.8442234848485  15.8995535714287 14  15.4821428571428 14  L 1.51785714285722 14  C 1.10044642857133 14  0.743117559523853 13.8442234848485  0.445870535714107 13.5326704545455  C 0.148623511904816 13.2211174242424  0 12.8465909090909  0 12.4090909090909  L 0 4.51420454545455  C 0.278273809523853 4.83901515151513  0.59765625 5.1273674242424  0.958147321428669 5.37926136363636  C 3.24758184523807 7.00994318181819  4.81919642857133 8.15340909090909  5.67299107142867 8.80965909090909  C 6.03348214285722 9.08806818181819  6.32598586309518 9.30516098484851  6.55050223214278 9.4609375  C 6.77501860119048 9.61671401515149  7.07384672619048 9.7758049242424  7.44698660714278 9.93821022727273  C 7.82012648809518 10.1006155303031  8.16796875 10.1818181818182  8.49051339285722 10.1818181818182  L 8.5 10.1818181818182  L 8.50948660714278 10.1818181818182  C 8.83203125 10.1818181818182  9.17987351190482 10.1006155303031  9.55301339285722 9.93821022727273  C 9.92615327380952 9.7758049242424  10.2249813988095 9.61671401515149  10.4494977678572 9.4609375  C 10.6740141369048 9.30516098484851  10.9665178571428 9.08806818181819  11.3270089285713 8.80965909090909  C 12.4021577380952 7.99431818181819  13.9769345238095 6.85085227272727  16.0513392857141 5.37926136363636  Z M 16.5493861607141 0.467329545454547  C 16.8497953869048 0.778882575757599  17 1.15340909090909  17 1.59090909090909  C 17 2.11458333333331  16.8450520833333 2.61505681818182  16.53515625 3.09232954545455  C 16.2252604166667 3.56960227272727  15.8394717261905 3.97727272727273  15.3777901785713 4.31534090909091  C 12.9998139880952 6.04545454545455  11.5199032738095 7.1226325757576  10.9380580357141 7.546875  C 10.8748139880952 7.59327651515149  10.7404203869048 7.69436553030306  10.5348772321428 7.85014204545455  C 10.329334077381 8.00591856060604  10.1585751488095 8.13186553030306  10.0226004464287 8.22798295454545  C 9.88662574404771 8.32410037878785  9.72219122023807 8.43181818181819  9.529296875 8.55113636363636  C 9.33640252976193 8.67045454545455  9.15457589285722 8.75994318181819  8.98381696428589 8.81960227272727  C 8.81305803571411 8.87926136363636  8.65494791666674 8.90909090909091  8.50948660714278 8.90909090909091  L 8.5 8.90909090909091  L 8.49051339285722 8.90909090909091  C 8.34505208333326 8.90909090909091  8.18694196428589 8.87926136363636  8.01618303571411 8.81960227272727  C 7.84542410714278 8.75994318181819  7.66359747023807 8.67045454545455  7.470703125 8.55113636363636  C 7.27780877976193 8.43181818181819  7.11337425595229 8.32410037878785  6.97739955357133 8.22798295454545  C 6.84142485119048 8.13186553030306  6.67066592261904 8.00591856060604  6.46512276785722 7.85014204545455  C 6.25957961309518 7.69436553030306  6.12518601190482 7.59327651515149  6.06194196428589 7.546875  C 5.48642113095229 7.1226325757576  4.65792410714278 6.51775568181818  3.57645089285722 5.73224431818182  C 2.49497767857133 4.94673295454546  1.84672619047615 4.47443181818182  1.63169642857133 4.31534090909091  C 1.23958333333326 4.03693181818182  0.869605654761926 3.65411931818182  0.521763392857224 3.16690340909091  C 0.173921130952294 2.6796875  0 2.22727272727273  0 1.80965909090909  C 0 1.29261363636364  0.131231398809518 0.861742424242401  0.393694196428669 0.517045454545453  C 0.656156994047706 0.172348484848509  1.03087797619048 0  1.51785714285722 0  L 15.4821428571428 0  C 15.8932291666667 0  16.2489769345239 0.155776515151491  16.5493861607141 0.467329545454547  Z " fill-rule="nonzero" fill="#000000" stroke="none" transform="matrix(1 0 0 1 422 18 )" />
  </g>
</svg>