<?xml version="1.0" encoding="utf-8"?>
<svg version="1.1" xmlns:xlink="http://www.w3.org/1999/xlink" width="21px" height="21px" xmlns="http://www.w3.org/2000/svg">
  <g transform="matrix(1 0 0 1 -130 -543 )">
    <path d="M 3.677734375 11.115234375  C 3.513671875 10.951171875  3.431640625 10.74609375  3.431640625 10.5  C 3.431640625 10.25390625  3.513671875 10.048828125  3.677734375 9.884765625  L 4.921875 8.640625  L 9.87109375 3.69140625  C 10.03515625 3.52734375  10.240234375 3.4453125  10.486328125 3.4453125  C 10.732421875 3.4453125  10.9375 3.52734375  11.1015625 3.69140625  L 12.345703125 4.935546875  C 12.509765625 5.099609375  12.591796875 5.3046875  12.591796875 5.55078125  C 12.591796875 5.796875  12.509765625 6.001953125  12.345703125 6.166015625  L 9.76171875 8.75  L 16.625 8.75  C 16.8619791666667 8.75  17.0670572916667 8.83658854166674  17.240234375 9.009765625  C 17.4134114583333 9.18294270833337  17.5 9.38802083333337  17.5 9.625  L 17.5 11.375  C 17.5 11.6119791666666  17.4134114583333 11.8170572916666  17.240234375 11.990234375  C 17.0670572916667 12.1634114583333  16.8619791666667 12.25  16.625 12.25  L 9.76171875 12.25  L 12.345703125 14.833984375  C 12.5188802083333 15.0071614583334  12.60546875 15.2122395833334  12.60546875 15.44921875  C 12.60546875 15.6861979166667  12.5188802083333 15.8912760416667  12.345703125 16.064453125  L 11.1015625 17.30859375  C 10.9375 17.47265625  10.732421875 17.5546875  10.486328125 17.5546875  C 10.240234375 17.5546875  10.03515625 17.47265625  9.87109375 17.30859375  L 4.921875 12.359375  L 3.677734375 11.115234375  Z M 1.408203125 5.2294921875  C 0.469401041666657 6.83821614583337  0 8.59505208333326  0 10.5  C 0 12.4049479166667  0.469401041666657 14.1617838541666  1.408203125 15.7705078125  C 2.34700520833334 17.3792317708334  3.62076822916666 18.6529947916666  5.2294921875 19.591796875  C 6.83821614583334 20.5305989583333  8.59505208333334 21  10.5 21  C 12.4049479166667 21  14.1617838541667 20.5305989583333  15.7705078125 19.591796875  C 17.3792317708333 18.6529947916666  18.6529947916667 17.3792317708334  19.591796875 15.7705078125  C 20.5305989583333 14.1617838541666  21 12.4049479166667  21 10.5  C 21 8.59505208333326  20.5305989583333 6.83821614583337  19.591796875 5.2294921875  C 18.6529947916667 3.62076822916663  17.3792317708333 2.34700520833337  15.7705078125 1.408203125  C 14.1617838541667 0.469401041666742  12.4049479166667 0  10.5 0  C 8.59505208333334 0  6.83821614583334 0.469401041666742  5.2294921875 1.408203125  C 3.62076822916666 2.34700520833337  2.34700520833334 3.62076822916663  1.408203125 5.2294921875  Z " fill-rule="nonzero" fill="#d98200" stroke="none" transform="matrix(1 0 0 1 130 543 )" />
  </g>
</svg>