<?xml version="1.0" encoding="utf-8"?>
<svg version="1.1" xmlns:xlink="http://www.w3.org/1999/xlink" width="23px" height="18px" xmlns="http://www.w3.org/2000/svg">
  <g transform="matrix(1 0 0 1 -131 -141 )">
    <path d="M 19.6939281288724 10.2837100545596  C 19.7034283353986 10.3024162120031  19.7081784386617 10.3304754481684  19.7081784386617 10.3678877630553  L 19.7081784386617 17.1021044427124  C 19.7081784386617 17.3452844894778  19.6179264766625 17.5557287607171  19.4374225526642 17.7334372564302  C 19.2569186286658 17.9111457521434  19.0431639818257 18  18.7961586121437 18  L 13.3240396530359 18  L 13.3240396530359 12.6126266562744  L 9.67596034696406 12.6126266562744  L 9.67596034696406 18  L 4.20384138785626 18  C 3.95683601817431 18  3.74308137133416 17.9111457521434  3.56257744733581 17.7334372564302  C 3.38207352333746 17.5557287607171  3.29182156133829 17.3452844894778  3.29182156133829 17.1021044427124  L 3.29182156133829 10.3678877630553  C 3.29182156133829 10.3585346843336  3.29419661296985 10.344505066251  3.29894671623296 10.3257989088075  C 3.30369681949608 10.307092751364  3.30607187112763 10.2930631332814  3.30607187112763 10.2837100545596  L 11.5 3.63367108339829  L 19.6939281288724 10.2837100545596  Z M 22.9857496902107 9.0701480904131  C 22.9952498967369 9.19641465315666  22.9619991738951 9.30631332813718  22.8859975216853 9.39984411535464  L 22.002478314746 10.4380358534684  C 21.9264766625361 10.5222135619641  21.8267244940107 10.5736554949337  21.7032218091698 10.5923616523772  L 21.6604708798017 10.5923616523772  C 21.5369681949608 10.5923616523772  21.4372160264354 10.5596258768511  21.3612143742255 10.4941543257989  L 11.5 2.39906469212783  L 1.63878562577447 10.4941543257989  C 1.52478314745973 10.5689789555729  1.41078066914498 10.601714731099  1.29677819083024 10.5923616523772  C 1.17327550598926 10.5736554949337  1.07352333746386 10.5222135619641  0.997521685254027 10.4380358534684  L 0.114002478314746 9.39984411535464  C 0.0380008261049153 9.30631332813718  0.00475010326311445 9.19641465315666  0.0142503097893432 9.0701480904131  C 0.0237505163155721 8.94388152766953  0.0760016522098307 8.84333593141076  0.171003717472119 8.76851130163679  L 10.4169764560099 0.364770070148091  C 10.7209830648492 0.121590023382695  11.0819909128459 0  11.5 0  C 11.9180090871541 0  12.2790169351508 0.121590023382695  12.5830235439901 0.364770070148091  L 16.0600991325898 3.22681215900234  L 16.0600991325898 0.491036632891659  C 16.0600991325898 0.360093530787216  16.1028500619579 0.252533125487139  16.1883519206939 0.168355416991427  C 16.27385377943 0.0841777084957136  16.3831061544816 0.0420888542478568  16.5161090458488 0.0420888542478568  L 19.2521685254027 0.0420888542478568  C 19.3851714167699 0.0420888542478568  19.4944237918216 0.0841777084957136  19.5799256505576 0.168355416991427  C 19.6654275092937 0.252533125487139  19.7081784386617 0.360093530787216  19.7081784386617 0.491036632891659  L 19.7081784386617 6.21512081060016  L 22.8289962825279 8.76851130163679  C 22.9239983477902 8.84333593141076  22.9762494836844 8.94388152766953  22.9857496902107 9.0701480904131  Z " fill-rule="nonzero" fill="#ffffff" stroke="none" transform="matrix(1 0 0 1 131 141 )" />
  </g>
</svg>