<!-- Generator: Adobe Illustrator 24.0.0, SVG Export Plug-In  -->
<svg version="1.1" xmlns="http://www.w3.org/2000/svg" xmlns:xlink="http://www.w3.org/1999/xlink" x="0px" y="0px" width="96.71px"
	 height="96px" viewBox="0 0 96.71 96" style="enable-background:new 0 0 96.71 96;" xml:space="preserve">
<style type="text/css">
	.st0{fill:#DD9931;}
</style>
<defs>
</defs>
<path class="st0" d="M28.65,41.58l0,0.06c-0.24,4.17,2.1,8.08,5.96,9.96l0.04,0.02c1.36,0.65,2.47,1.72,3.18,3.06l0.02,0.03
	c1.94,3.7,5.96,5.95,10.25,5.72l0.07,0c1.55-0.09,3.1,0.31,4.41,1.15c3.63,2.27,8.24,2.27,11.87,0c1.32-0.83,2.86-1.23,4.41-1.15
	l0.07,0c4.28,0.23,8.3-2.02,10.25-5.73l0.01-0.02c0.71-1.34,1.82-2.41,3.19-3.06l0.03-0.02c3.86-1.88,6.2-5.78,5.96-9.96l0-0.06
	c-0.08-1.47,0.33-2.93,1.16-4.14c2.4-3.5,2.4-8.11,0-11.61c-0.83-1.21-1.24-2.67-1.16-4.14l0-0.06c0.24-4.17-2.1-8.08-5.96-9.96
	l-0.04-0.02c-1.36-0.65-2.47-1.72-3.17-3.05l-0.02-0.04c-1.94-3.7-5.97-5.94-10.25-5.72l-0.07,0c-1.55,0.09-3.1-0.31-4.41-1.15h0
	c-3.63-2.27-8.24-2.27-11.87,0c-1.32,0.83-2.86,1.23-4.41,1.15l-0.07,0c-4.28-0.23-8.3,2.02-10.25,5.72l-0.01,0.03
	C37.12,9.93,36,11,34.64,11.65l-0.04,0.02c-3.86,1.87-6.2,5.78-5.96,9.96l0,0.06c0.08,1.47-0.33,2.93-1.16,4.14
	c-2.4,3.5-2.4,8.11,0,11.61C28.32,38.65,28.73,40.11,28.65,41.58z M30.45,27.87c1.29-1.87,1.92-4.12,1.79-6.39l0-0.06
	c-0.13-2.77,1.43-5.33,3.93-6.51l0.03-0.01c2.06-0.98,3.74-2.61,4.8-4.62l0.02-0.03c1.29-2.46,4-3.95,6.87-3.8l0.06,0
	c2.3,0.13,4.58-0.46,6.53-1.7c2.46-1.54,5.57-1.54,8.03,0c1.94,1.23,4.23,1.82,6.52,1.7l0.06,0c2.89-0.15,5.58,1.34,6.87,3.79
	l0.02,0.04c1.06,2.01,2.74,3.63,4.8,4.62l0.03,0.01c2.55,1.24,4.09,3.79,3.94,6.51l0,0.06c-0.12,2.27,0.51,4.51,1.79,6.39
	c1.55,2.27,1.55,5.26,0,7.52c-1.29,1.87-1.92,4.12-1.79,6.39l0,0.06c0.16,2.72-1.39,5.28-3.94,6.51l-0.03,0.01
	c-2.06,0.99-3.74,2.61-4.81,4.63l-0.01,0.03c-1.29,2.46-3.99,3.95-6.87,3.8l-0.06,0c-2.3-0.13-4.58,0.47-6.53,1.7
	c-2.45,1.54-5.57,1.54-8.03,0c-1.77-1.12-3.82-1.72-5.92-1.71c-0.2,0-0.41,0.01-0.61,0.02l-0.06,0c-2.84,0.18-5.52-1.3-6.87-3.8
	L41,52.99c-1.06-2.01-2.74-3.63-4.79-4.61l-0.03-0.02c-2.55-1.24-4.09-3.79-3.94-6.51l0-0.06c0.12-2.27-0.51-4.51-1.79-6.39
	C28.89,33.13,28.89,30.14,30.45,27.87L30.45,27.87z"/>
<path class="st0" d="M46.88,50.25c0.84,0.53,1.95,0.27,2.48-0.57L70.69,15.5c0.35-0.55,0.38-1.24,0.07-1.81
	c-0.3-0.57-0.89-0.94-1.54-0.96c-0.65-0.02-1.26,0.31-1.59,0.86L46.3,47.77C45.78,48.61,46.03,49.72,46.88,50.25z"/>
<path class="st0" d="M48.79,31.72c4.38,0,7.95-4.07,7.95-9.07s-3.57-9.07-7.95-9.07s-7.95,4.07-7.95,9.07S44.4,31.72,48.79,31.72z
	 M48.79,17.19c2.4,0,4.35,2.45,4.35,5.47s-1.95,5.47-4.35,5.47c-2.4,0-4.35-2.45-4.35-5.47S46.39,17.19,48.79,17.19z"/>
<path class="st0" d="M60.25,40.62c0,5,3.57,9.07,7.95,9.07s7.95-4.07,7.95-9.07c0-5-3.57-9.07-7.95-9.07
	C63.82,31.55,60.25,35.61,60.25,40.62z M72.55,40.62c0,3.01-1.95,5.47-4.35,5.47c-2.4,0-4.35-2.45-4.35-5.47
	c0-3.01,1.95-5.47,4.35-5.47C70.6,35.15,72.55,37.6,72.55,40.62z"/>
<path class="st0" d="M96.48,70.52c-2.38-4.23-7.67-5.84-12.01-3.66l-14.1,6.66c-1.95-3.62-5.68-5.93-9.79-6.04l-13.02-0.36
	c-2.06-0.06-4.08-0.58-5.92-1.53L40.3,64.9c-6.78-3.54-14.87-3.53-21.65,0.02l0.08-3c0.03-0.99-0.76-1.82-1.75-1.85L2.71,59.68
	c-0.99-0.03-1.82,0.76-1.85,1.75L0,92.77c-0.03,0.99,0.76,1.82,1.75,1.85l14.28,0.39h0.05c0.98,0,1.77-0.78,1.8-1.75l0.04-1.5
	l3.71-1.99c1.46-0.78,3.16-0.97,4.75-0.52l22.15,6.22c0.04,0.01,0.08,0.02,0.12,0.03c1.6,0.33,3.23,0.5,4.87,0.5
	c3.46,0,6.89-0.74,10.04-2.19c0.08-0.04,0.15-0.08,0.22-0.12l32.12-20.77C96.69,72.4,96.95,71.34,96.48,70.52z M3.65,91.06
	l0.76-27.73l10.68,0.29l-0.76,27.73L3.65,91.06z M61.93,90.59c-3.91,1.77-8.28,2.25-12.48,1.39l-22.09-6.2
	c-2.49-0.7-5.15-0.41-7.42,0.81l-1.9,1.01l0.51-18.44c6.01-4,13.71-4.41,20.11-1.07l1.32,0.69c2.32,1.2,4.87,1.86,7.48,1.93
	l13.02,0.36c3.66,0.1,6.76,2.71,7.51,6.29l-19.4-0.53c-0.99-0.03-1.82,0.76-1.85,1.75c-0.03,0.99,0.76,1.82,1.75,1.85l21.4,0.59
	h0.05c0.97,0,1.77-0.78,1.8-1.75c0.02-0.78-0.04-1.57-0.17-2.34l14.46-6.84l0.04-0.02c2.05-1.04,4.53-0.69,6.22,0.87L61.93,90.59z"
	/>
</svg>
