<!-- Generator: Adobe Illustrator 24.0.0, SVG Export Plug-In  -->
<svg version="1.1" xmlns="http://www.w3.org/2000/svg" xmlns:xlink="http://www.w3.org/1999/xlink" x="0px" y="0px" width="97.21px"
	 height="97.21px" viewBox="0 0 97.21 97.21" style="enable-background:new 0 0 97.21 97.21;" xml:space="preserve">
<style type="text/css">
	.st0{fill:#DD9931;}
</style>
<defs>
</defs>
<g id="Outline_1_">
	<g>
		<path class="st0" d="M45.2,66.1c0.72,0.54,1.73,0.39,2.27-0.32l7.29-9.72c0.54-0.72,0.39-1.73-0.32-2.27
			c-0.28-0.21-0.62-0.32-0.97-0.32h-6.48l5.35-7.13c0.54-0.72,0.39-1.73-0.33-2.27c-0.72-0.54-1.73-0.39-2.27,0.32l-7.29,9.72
			c-0.54,0.72-0.39,1.73,0.32,2.27c0.28,0.21,0.62,0.32,0.97,0.32h6.48l-5.35,7.13C44.34,64.55,44.49,65.57,45.2,66.1z"/>
		<path class="st0" d="M95.59,55.09c-0.89,0-1.62,0.73-1.62,1.62v3.24c0,2.68-2.18,4.86-4.86,4.86h-4.86V45.37h4.86
			c2.68,0,4.86,2.18,4.86,4.86c0,0.89,0.73,1.62,1.62,1.62s1.62-0.73,1.62-1.62c0-3.85-2.71-7.16-6.48-7.94v-0.16
			c0.01-10.5-3.91-20.61-10.98-28.37c-0.61-0.65-1.64-0.69-2.29-0.07c-0.64,0.6-0.69,1.6-0.11,2.26
			c6.53,7.16,10.15,16.5,10.14,26.19h-3.24c0-19.69-15.96-35.64-35.64-35.64S12.96,22.44,12.96,42.13H9.72
			C9.75,20.66,27.14,3.27,48.61,3.24c8.77-0.03,17.29,2.94,24.14,8.41c0.7,0.56,1.72,0.44,2.28-0.26c0.56-0.7,0.44-1.72-0.26-2.28
			C67.34,3.18,58.11-0.03,48.61,0C25.35,0.03,6.51,18.87,6.48,42.13v0.16C2.71,43.06,0,46.38,0,50.23v9.72
			c0.01,4.47,3.63,8.1,8.1,8.1h4.86c0,3.58,2.9,6.48,6.48,6.48h4.86c0.89,0,1.62-0.73,1.62-1.62v-6.48c0-0.89-0.73-1.62-1.62-1.62
			c-0.89,0-1.62,0.73-1.62,1.62v4.86h-3.24c-1.79,0-3.24-1.45-3.24-3.24v-8.1c0-0.89-0.73-1.62-1.62-1.62
			c-0.89,0-1.62,0.73-1.62,1.62v4.86H8.1c-2.68,0-4.86-2.18-4.86-4.86v-9.72c0-2.68,2.18-4.86,4.86-4.86h4.86v8.1
			c0,0.89,0.73,1.62,1.62,1.62c0.89,0,1.62-0.73,1.62-1.62V42.13c0-1.79,1.45-3.24,3.24-3.24h3.24v21.06c0,0.89,0.73,1.62,1.62,1.62
			c0.89,0,1.62-0.73,1.62-1.62V37.26c0-0.89-0.73-1.62-1.62-1.62h-4.86c-0.93,0-1.84,0.21-2.68,0.6C20,18.66,36.88,7.02,54.47,10.26
			c13.21,2.43,23.55,12.77,25.98,25.98c-0.84-0.39-1.75-0.59-2.68-0.6h-4.86c-0.89,0-1.62,0.73-1.62,1.62v35.64
			c0,0.89,0.73,1.62,1.62,1.62h4.86c3.58,0,6.48-2.9,6.48-6.48h1.62v6.48c-0.01,8.05-6.53,14.57-14.58,14.58h-3.47
			c-0.74-2.85-3.3-4.85-6.25-4.86h-6.48c-3.58,0-6.48,2.9-6.48,6.48c0,3.58,2.9,6.48,6.48,6.48h6.48c2.95-0.01,5.51-2.01,6.25-4.86
			h3.47c9.84-0.01,17.81-7.98,17.82-17.82v-6.48c4.47-0.01,8.1-3.63,8.1-8.1v-3.24C97.21,55.81,96.49,55.09,95.59,55.09z
			 M81.01,68.05c0,1.79-1.45,3.24-3.24,3.24h-3.24v-32.4h3.24c1.79,0,3.24,1.45,3.24,3.24V68.05z M61.57,93.97h-6.48
			c-1.79,0-3.24-1.45-3.24-3.24c0-1.79,1.45-3.24,3.24-3.24h6.48c1.79,0,3.24,1.45,3.24,3.24C64.81,92.52,63.36,93.97,61.57,93.97z"
			/>
		<path class="st0" d="M68.05,55.09c0.01-3.94-1.19-7.78-3.43-11.02c-0.49-0.75-1.5-0.95-2.25-0.46c-0.75,0.49-0.95,1.5-0.46,2.25
			c0.01,0.02,0.02,0.03,0.03,0.05c5.08,7.38,3.22,17.48-4.16,22.56c-7.38,5.08-17.48,3.22-22.56-4.16s-3.22-17.48,4.16-22.56
			c5.54-3.81,12.85-3.81,18.39,0c0.73,0.51,1.74,0.34,2.26-0.4c0.51-0.73,0.34-1.74-0.4-2.26c-0.01,0-0.01-0.01-0.02-0.01
			c-8.85-6.08-20.95-3.85-27.04,5s-3.85,20.95,5,27.04s20.95,3.85,27.04-5C66.86,62.87,68.05,59.02,68.05,55.09z"/>
	</g>
</g>
</svg>
