<!-- Generator: Adobe Illustrator 24.0.0, SVG Export Plug-In  -->
<svg version="1.1" xmlns="http://www.w3.org/2000/svg" xmlns:xlink="http://www.w3.org/1999/xlink" x="0px" y="0px" width="99.45px"
	 height="101.23px" viewBox="0 0 99.45 101.23" style="enable-background:new 0 0 99.45 101.23;" xml:space="preserve">
<style type="text/css">
	.st0{fill:none;stroke:#DD9931;stroke-width:3;stroke-linecap:round;stroke-linejoin:round;stroke-miterlimit:10;}
	.st1{fill:none;stroke:#DD9931;stroke-width:3;stroke-linecap:round;stroke-linejoin:round;stroke-miterlimit:2.6131;}
</style>
<defs>
</defs>
<g>
	<polyline class="st0" points="10.86,68.75 10.86,84.46 50.33,99.73 88.9,84.46 88.9,68.6 	"/>
	<polygon class="st0" points="10.86,45.44 44.05,58.13 49.89,60.36 45.11,68.32 38.21,79.82 10.86,68.75 1.5,64.96 	"/>
	<polygon class="st0" points="88.9,45.44 56.57,57.63 49.89,60.15 49.97,60.31 54.48,68.28 60.99,79.82 88.9,68.6 97.95,64.96 	"/>
	<polyline class="st0" points="10.66,45.03 10.7,45.02 36.29,35.59 	"/>
	<line class="st0" x1="64.28" y1="35.94" x2="88.89" y2="45.08"/>
	<path class="st0" d="M64.28,35.94c-1.17,1.78-2.67,3.31-4.42,4.51v5.62v3.18v3.92h-3.3H44.24h-3.3v-3.92v-3.18v-5.62
		c-1.86-1.28-3.45-2.94-4.64-4.86c-1.6-2.55-2.52-5.56-2.52-8.8c0-9.18,7.44-16.63,16.62-16.63c9.18,0,16.62,7.46,16.62,16.63
		C67.03,30.18,66.02,33.32,64.28,35.94z"/>
	<polyline class="st1" points="51.15,46.08 59.86,46.08 62.29,46.08 	"/>
	<polyline class="st1" points="38.51,46.08 40.94,46.08 49.66,46.08 	"/>
	<polyline class="st1" points="38.51,49.25 40.94,49.25 59.86,49.25 62.29,49.25 	"/>
	<polyline class="st1" points="44.24,57.64 44.24,53.17 44.24,53.16 56.57,53.16 56.57,53.17 56.57,57.63 56.57,57.64 	"/>
	<line class="st1" x1="49.52" y1="1.5" x2="49.52" y2="6.88"/>
	<line class="st1" x1="57.35" y1="2.3" x2="55.95" y2="7.49"/>
	<line class="st1" x1="64.71" y1="5.09" x2="62.03" y2="9.76"/>
	<line class="st1" x1="71.1" y1="9.71" x2="67.31" y2="13.52"/>
	<line class="st1" x1="28.44" y1="10.96" x2="32.24" y2="14.76"/>
	<line class="st1" x1="34.56" y1="5.98" x2="37.24" y2="10.65"/>
	<line class="st1" x1="41.74" y1="2.75" x2="43.13" y2="7.95"/>
	<polygon class="st1" points="49.66,46.08 43.75,30.83 47.06,31.3 50.29,25.91 53.62,31.27 57.05,30.83 51.15,46.08 	"/>
	<polyline class="st0" points="49.89,60.91 49.97,68.29 50.33,99.73 	"/>
</g>
</svg>
