<?xml version="1.0" encoding="utf-8"?>
<svg version="1.1" xmlns:xlink="http://www.w3.org/1999/xlink" width="16px" height="16px" xmlns="http://www.w3.org/2000/svg">
  <g transform="matrix(1 0 0 1 -326 -17 )">
    <path d="M 15.3645833333333 4.89583333333333  C 15.7881944444445 5.88194444444444  16 6.91666666666667  16 8  C 16 9.08333333333333  15.7881944444445 10.1180555555556  15.3645833333333 11.1041666666667  C 14.9409722222222 12.0902777777778  14.3715277777778 12.9409722222222  13.65625 13.65625  C 12.9409722222222 14.3715277777778  12.0902777777778 14.9409722222222  11.1041666666667 15.3645833333333  C 10.1180555555555 15.7881944444444  9.08333333333331 16  8 16  C 6.80555555555554 16  5.67013888888891 15.7482638888889  4.59375 15.2447916666667  C 3.51736111111109 14.7413194444444  2.60069444444446 14.03125  1.84375 13.1145833333333  C 1.79513888888891 13.0451388888889  1.77256944444446 12.9670138888889  1.77604166666669 12.8802083333333  C 1.77951388888891 12.7934027777778  1.80902777777777 12.7222222222222  1.86458333333331 12.6666666666667  L 3.29166666666669 11.2291666666667  C 3.36111111111109 11.1666666666667  3.44791666666669 11.1354166666667  3.55208333333331 11.1354166666667  C 3.66319444444446 11.1493055555556  3.74305555555554 11.1909722222222  3.79166666666669 11.2604166666667  C 4.29861111111109 11.9201388888889  4.92013888888891 12.4305555555556  5.65625 12.7916666666667  C 6.39236111111109 13.1527777777778  7.17361111111109 13.3333333333333  8 13.3333333333333  C 8.72222222222223 13.3333333333333  9.41145833333331 13.1927083333333  10.0677083333333 12.9114583333333  C 10.7239583333333 12.6302083333333  11.2916666666667 12.25  11.7708333333333 11.7708333333333  C 12.25 11.2916666666667  12.6302083333333 10.7239583333333  12.9114583333333 10.0677083333333  C 13.1927083333333 9.41145833333334  13.3333333333333 8.72222222222222  13.3333333333333 8  C 13.3333333333333 7.27777777777778  13.1927083333333 6.58854166666667  12.9114583333333 5.93229166666667  C 12.6302083333333 5.27604166666667  12.25 4.70833333333333  11.7708333333333 4.22916666666667  C 11.2916666666667 3.75  10.7239583333333 3.36979166666667  10.0677083333333 3.08854166666667  C 9.41145833333331 2.80729166666667  8.72222222222223 2.66666666666667  8 2.66666666666667  C 7.31944444444446 2.66666666666667  6.66666666666669 2.78993055555556  6.04166666666669 3.03645833333333  C 5.41666666666669 3.28298611111111  4.86111111111109 3.63541666666667  4.375 4.09375  L 5.80208333333331 5.53125  C 6.01736111111109 5.73958333333333  6.06597222222223 5.97916666666667  5.94791666666669 6.25  C 5.82986111111109 6.52777777777778  5.625 6.66666666666667  5.33333333333331 6.66666666666667  L 0.666666666666686 6.66666666666667  C 0.486111111111086 6.66666666666667  0.329861111111086 6.60069444444444  0.197916666666686 6.46875  C 0.0659722222222285 6.33680555555556  0 6.18055555555556  0 6  L 0 1.33333333333333  C 0 1.04166666666667  0.138888888888914 0.836805555555555  0.416666666666686 0.71875  C 0.6875 0.600694444444443  0.927083333333314 0.649305555555555  1.13541666666669 0.864583333333334  L 2.48958333333331 2.20833333333333  C 3.23263888888891 1.50694444444444  4.08159722222223 0.963541666666666  5.03645833333331 0.578125  C 5.99131944444446 0.192708333333334  6.97916666666669 0  8 0  C 9.08333333333331 0  10.1180555555555 0.211805555555555  11.1041666666667 0.635416666666666  C 12.0902777777778 1.05902777777778  12.9409722222222 1.62847222222222  13.65625 2.34375  C 14.3715277777778 3.05902777777778  14.9409722222222 3.90972222222222  15.3645833333333 4.89583333333333  Z M 9.23958333333331 4.76041666666667  C 9.30208333333331 4.82291666666667  9.33333333333331 4.90277777777778  9.33333333333331 5  L 9.33333333333331 9.66666666666666  C 9.33333333333331 9.76388888888889  9.30208333333331 9.84375  9.23958333333331 9.90625  C 9.17708333333331 9.96875  9.09722222222223 10  9 10  L 5.66666666666669 10  C 5.56944444444446 10  5.48958333333331 9.96875  5.42708333333331 9.90625  C 5.36458333333331 9.84375  5.33333333333331 9.76388888888889  5.33333333333331 9.66666666666666  L 5.33333333333331 9  C 5.33333333333331 8.90277777777778  5.36458333333331 8.82291666666667  5.42708333333331 8.76041666666667  C 5.48958333333331 8.69791666666667  5.56944444444446 8.66666666666667  5.66666666666669 8.66666666666667  L 8 8.66666666666667  L 8 5  C 8 4.90277777777778  8.03125 4.82291666666667  8.09375 4.76041666666667  C 8.15625 4.69791666666667  8.23611111111109 4.66666666666667  8.33333333333331 4.66666666666667  L 9 4.66666666666667  C 9.09722222222223 4.66666666666667  9.17708333333331 4.69791666666667  9.23958333333331 4.76041666666667  Z " fill-rule="nonzero" fill="#000000" stroke="none" transform="matrix(1 0 0 1 326 17 )" />
  </g>
</svg>