<?xml version="1.0" encoding="utf-8"?>
<svg version="1.1" xmlns:xlink="http://www.w3.org/1999/xlink" width="15px" height="16px" xmlns="http://www.w3.org/2000/svg">
  <g transform="matrix(1 0 0 1 -132 -516 )">
    <path d="M 5.35866477272725 6.09375  C 5.42258522727275 6.15625  5.45454545454544 6.23611111111109  5.45454545454544 6.33333333333331  L 5.45454545454544 12.3333333333333  C 5.45454545454544 12.4305555555556  5.42258522727275 12.5104166666667  5.35866477272725 12.5729166666667  C 5.29474431818181 12.6354166666667  5.21306818181819 12.6666666666667  5.11363636363637 12.6666666666667  L 4.43181818181819 12.6666666666667  C 4.33238636363637 12.6666666666667  4.25071022727275 12.6354166666667  4.18678977272725 12.5729166666667  C 4.12286931818181 12.5104166666667  4.09090909090912 12.4305555555556  4.09090909090912 12.3333333333333  L 4.09090909090912 6.33333333333331  C 4.09090909090912 6.23611111111109  4.12286931818181 6.15625  4.18678977272725 6.09375  C 4.25071022727275 6.03125  4.33238636363637 6  4.43181818181819 6  L 5.11363636363637 6  C 5.21306818181819 6  5.29474431818181 6.03125  5.35866477272725 6.09375  Z M 8.0859375 6.09375  C 8.14985795454544 6.15625  8.18181818181819 6.23611111111109  8.18181818181819 6.33333333333331  L 8.18181818181819 12.3333333333333  C 8.18181818181819 12.4305555555556  8.14985795454544 12.5104166666667  8.0859375 12.5729166666667  C 8.02201704545456 12.6354166666667  7.94034090909088 12.6666666666667  7.84090909090912 12.6666666666667  L 7.15909090909088 12.6666666666667  C 7.05965909090912 12.6666666666667  6.97798295454544 12.6354166666667  6.9140625 12.5729166666667  C 6.85014204545456 12.5104166666667  6.81818181818181 12.4305555555556  6.81818181818181 12.3333333333333  L 6.81818181818181 6.33333333333331  C 6.81818181818181 6.23611111111109  6.85014204545456 6.15625  6.9140625 6.09375  C 6.97798295454544 6.03125  7.05965909090912 6  7.15909090909088 6  L 7.84090909090912 6  C 7.94034090909088 6  8.02201704545456 6.03125  8.0859375 6.09375  Z M 10.8132102272727 6.09375  C 10.8771306818182 6.15625  10.9090909090909 6.23611111111109  10.9090909090909 6.33333333333331  L 10.9090909090909 12.3333333333333  C 10.9090909090909 12.4305555555556  10.8771306818182 12.5104166666667  10.8132102272727 12.5729166666667  C 10.7492897727273 12.6354166666667  10.6676136363636 12.6666666666667  10.5681818181818 12.6666666666667  L 9.88636363636363 12.6666666666667  C 9.78693181818181 12.6666666666667  9.70525568181819 12.6354166666667  9.64133522727275 12.5729166666667  C 9.57741477272725 12.5104166666667  9.54545454545456 12.4305555555556  9.54545454545456 12.3333333333333  L 9.54545454545456 6.33333333333331  C 9.54545454545456 6.23611111111109  9.57741477272725 6.15625  9.64133522727275 6.09375  C 9.70525568181819 6.03125  9.78693181818181 6  9.88636363636363 6  L 10.5681818181818 6  C 10.6676136363636 6  10.7492897727273 6.03125  10.8132102272727 6.09375  Z M 12.1981534090909 14.296875  C 12.2478693181818 14.1684027777778  12.2727272727273 14.0277777777778  12.2727272727273 13.875  L 12.2727272727273 4  L 2.72727272727275 4  L 2.72727272727275 13.875  C 2.72727272727275 14.0277777777778  2.75213068181819 14.1684027777778  2.80184659090912 14.296875  C 2.8515625 14.4253472222222  2.90305397727275 14.5190972222222  2.95632102272725 14.578125  C 3.00958806818181 14.6371527777778  3.046875 14.6666666666667  3.06818181818181 14.6666666666667  L 11.9318181818182 14.6666666666667  C 11.953125 14.6666666666667  11.9904119318182 14.6371527777778  12.0436789772727 14.578125  C 12.0969460227273 14.5190972222222  12.1484375 14.4253472222222  12.1981534090909 14.296875  Z M 5.63565340909088 1.44791666666669  L 5.11363636363637 2.66666666666669  L 9.88636363636363 2.66666666666669  L 9.375 1.44791666666669  C 9.32528409090912 1.38541666666669  9.26491477272725 1.34722222222223  9.19389204545456 1.33333333333331  L 5.81676136363637 1.33333333333331  C 5.74573863636363 1.34722222222223  5.68536931818181 1.38541666666669  5.63565340909088 1.44791666666669  Z M 14.9041193181818 2.76041666666669  C 14.9680397727273 2.82291666666669  15 2.90277777777777  15 3  L 15 3.66666666666669  C 15 3.76388888888891  14.9680397727273 3.84375  14.9041193181818 3.90625  C 14.8401988636364 3.96875  14.7585227272727 4  14.6590909090909 4  L 13.6363636363636 4  L 13.6363636363636 13.875  C 13.6363636363636 14.4513888888889  13.4694602272727 14.9496527777778  13.1356534090909 15.3697916666667  C 12.8018465909091 15.7899305555556  12.4005681818182 16  11.9318181818182 16  L 3.06818181818181 16  C 2.59943181818181 16  2.19815340909088 15.796875  1.86434659090912 15.390625  C 1.53053977272725 14.984375  1.36363636363637 14.4930555555556  1.36363636363637 13.9166666666667  L 1.36363636363637 4  L 0.340909090909122 4  C 0.241477272727252 4  0.159801136363626 3.96875  0.095880681818187 3.90625  C 0.0319602272727479 3.84375  0 3.76388888888891  0 3.66666666666669  L 0 3  C 0 2.90277777777777  0.0319602272727479 2.82291666666669  0.095880681818187 2.76041666666669  C 0.159801136363626 2.69791666666669  0.241477272727252 2.66666666666669  0.340909090909122 2.66666666666669  L 3.6328125 2.66666666666669  L 4.37855113636363 0.927083333333314  C 4.48508522727275 0.670138888888914  4.67684659090912 0.451388888888914  4.95383522727275 0.270833333333314  C 5.23082386363637 0.0902777777777715  5.51136363636363 0  5.79545454545456 0  L 9.20454545454544 0  C 9.48863636363637 0  9.76917613636363 0.0902777777777715  10.0461647727273 0.270833333333314  C 10.3231534090909 0.451388888888914  10.5149147727273 0.670138888888914  10.6214488636364 0.927083333333314  L 11.3671875 2.66666666666669  L 14.6590909090909 2.66666666666669  C 14.7585227272727 2.66666666666669  14.8401988636364 2.69791666666669  14.9041193181818 2.76041666666669  Z " fill-rule="nonzero" fill="#0099cc" stroke="none" transform="matrix(1 0 0 1 132 516 )" />
  </g>
</svg>