<?xml version="1.0" encoding="utf-8"?>
<svg version="1.1" xmlns:xlink="http://www.w3.org/1999/xlink" width="15px" height="18px" xmlns="http://www.w3.org/2000/svg">
  <g transform="matrix(1 0 0 1 -1102 -1647 )">
    <path d="M 8.89026988636363 17.4887514060744  C 8.58132102272731 17.2829021372328  8.42684659090912 17.1057367829021  8.42684659090912 16.9572553430821  C 8.42684659090912 16.8830146231721  8.47301136363637 16.687289088864  8.56534090909088 16.3700787401575  C 8.6576704545455 16.0528683914512  8.76775568181819 15.6917885264342  8.89559659090912 15.2868391451068  C 9.0234375 14.8818897637796  9.09446022727275 14.6490438695163  9.10866477272731 14.5883014623172  C 9.11576704545456 14.5613048368954  9.13352272727269 14.4718785151856  9.16193181818181 14.3200224971879  C 9.19034090909093 14.1681664791902  9.22052556818181 14.046681664792  9.2524857954545 13.9555680539934  C 9.28444602272731 13.8644544431947  9.33238636363637 13.7919010123734  9.39630681818181 13.7379077615298  C 9.50284090909088 13.6434195725534  9.68394886363637 13.5961754780652  9.93963068181819 13.5961754780652  C 10.1029829545454 13.5961754780652  10.3515625 13.6147356580427  10.6853693181818 13.6518560179977  C 11.0191761363636 13.6889763779527  11.2713068181818 13.7075365579302  11.4417613636364 13.7075365579302  C 11.6832386363636 13.7075365579302  11.8501420454546 13.6704161979752  11.9424715909091 13.5961754780652  C 11.9850852272727 13.5624296962879  12.0241477272727 13.5101237345332  12.0596590909091 13.4392575928009  C 12.0951704545454 13.3683914510686  12.1218039772727 13.3008998875141  12.1395596590909 13.2367829021373  C 12.1573153409091 13.1726659167603  12.1803977272727 13.0916760404948  12.2088068181818 12.9938132733407  C 12.2372159090909 12.8959505061866  12.2549715909091 12.8335208098987  12.2620738636364 12.8065241844769  C 12.5248579545454 11.9426321709786  12.65625 11.0821147356579  12.65625 10.2249718785151  C 12.65625 9.36782902137247  12.5248579545454 8.50731158605163  12.2620738636364 7.64341957255351  C 12.2549715909091 7.6164229471317  12.2372159090909 7.55399325084363  12.2088068181818 7.45613048368955  C 12.1803977272727 7.35826771653547  12.1573153409091 7.27727784027002  12.1395596590909 7.2131608548932  C 12.1218039772727 7.14904386951628  12.0951704545454 7.08155230596174  12.0596590909091 7.01068616422947  C 12.0241477272727 6.9398200224972  11.9850852272727 6.88751406074232  11.9424715909091 6.85376827896505  C 11.8501420454546 6.77952755905505  11.6832386363636 6.74240719910006  11.4417613636364 6.74240719910006  C 11.2713068181818 6.74240719910006  11.0191761363636 6.76096737907767  10.6853693181818 6.79808773903267  C 10.3515625 6.83520809898766  10.1029829545454 6.85376827896505  9.93963068181819 6.85376827896505  C 9.68394886363637 6.85376827896505  9.50284090909088 6.80652418447687  9.39630681818181 6.71203599550051  C 9.33238636363637 6.65804274465688  9.28444602272731 6.58548931383564  9.2524857954545 6.49437570303701  C 9.22052556818181 6.40326209223838  9.19034090909093 6.28177727784021  9.16193181818181 6.12992125984249  C 9.13352272727269 5.97806524184466  9.11576704545456 5.88863892013501  9.10866477272731 5.86164229471319  C 9.09446022727275 5.80089988751411  9.0234375 5.56805399325083  8.89559659090912 5.16310461192359  C 8.76775568181819 4.75815523059612  8.6576704545455 4.39707536557933  8.56534090909088 4.07986501687299  C 8.47301136363637 3.76265466816642  8.42684659090912 3.56692913385825  8.42684659090912 3.49268841394826  C 8.42684659090912 3.34420697412827  8.58132102272731 3.1670416197976  8.89026988636363 2.96119235095614  C 9.19921875 2.75534308211479  9.46732954545456 2.61192350956128  9.69460227272731 2.53093363329583  C 9.83664772727269 2.4769403824522  9.99644886363637 2.44994375703038  10.1740056818182 2.44994375703038  C 10.4154829545455 2.44994375703038  10.7634943181818 2.51068616422947  11.2180397727273 2.63217097862764  C 11.6228693181818 2.74690663667047  11.9655539772727 2.88357705286842  12.24609375 3.0421822272217  C 12.5266335227273 3.20078740157487  12.7787642045455 3.42350956130485  13.0024857954545 3.71034870641165  C 13.2262073863636 3.99718785151845  13.3895596590909 4.23340832395957  13.4925426136364 4.41901012373455  C 13.5955255681818 4.60461192350954  13.7571022727273 4.92350956130474  13.9772727272727 5.37570303712039  C 14.0198863636364 5.45669291338584  14.0518465909091 5.52080989876265  14.0731534090909 5.56805399325083  C 14.4211647727273 6.29021372328452  14.6626420454546 7.0191226096739  14.7975852272727 7.7547806524185  C 14.9325284090909 8.49043869516299  15 9.31383577052884  15 10.2249718785151  C 15 11.1361079865018  14.9325284090909 11.9595050618673  14.7975852272727 12.6951631046119  C 14.6626420454546 13.4308211473566  14.4211647727273 14.1597300337459  14.0731534090909 14.8818897637796  C 13.6754261363636 15.7052868391451  13.3806818181818 16.2485939257593  13.1889204545455 16.5118110236222  C 12.7414772727273 17.1259842519685  12.1058238636364 17.5545556805398  11.2819602272727 17.7975253093364  L 11.2180397727273 17.8177727784027  C 10.7634943181818 17.9392575928009  10.4154829545455 18  10.1740056818182 18  C 9.99644886363637 18  9.83664772727269 17.9730033745782  9.69460227272731 17.9190101237346  C 9.46732954545456 17.8380202474691  9.19921875 17.6946006749157  8.89026988636363 17.4887514060744  Z M 6.25355113636363 7.52193475815534  C 6.40269886363637 7.65016872890897  6.5625 7.71428571428578  6.7329545454545 7.71428571428578  C 6.91761363636363 7.71428571428578  7.07741477272725 7.65016872890897  7.2123579545455 7.52193475815534  C 7.34730113636363 7.3937007874016  7.41477272727269 7.24015748031502  7.41477272727269 7.06130483689537  C 7.41477272727269 6.88245219347584  7.34730113636363 6.72890888638915  7.2123579545455 6.60067491563552  C 6.94957386363637 6.35095613048372  6.81818181818181 6.04724409448818  6.81818181818181 5.689538807649  C 6.81818181818181 5.33858267716539  6.94957386363637 5.03149606299201  7.2123579545455 4.7682789651293  C 7.34730113636363 4.64004499437567  7.41477272727269 4.48818897637796  7.41477272727269 4.31271091113615  C 7.41477272727269 4.13723284589435  7.34730113636363 3.98537682789663  7.2123579545455 3.85714285714278  C 7.07741477272725 3.72890888638915  6.91761363636363 3.66479190101234  6.7329545454545 3.66479190101234  C 6.5482954545455 3.66479190101234  6.38849431818181 3.72890888638915  6.25355113636363 3.85714285714278  C 5.72088068181819 4.36332958380206  5.4545454545455 4.97412823397065  5.4545454545455 5.689538807649  C 5.4545454545455 6.40494938132736  5.72088068181819 7.01574803149617  6.25355113636363 7.52193475815534  Z M 4.32528409090912 9.35433070866156  C 4.453125 9.48256467941519  4.61292613636363 9.546681664792  4.8046875 9.546681664792  C 4.99644886363637 9.546681664792  5.15625 9.48256467941519  5.28409090909088 9.35433070866156  C 5.41903409090912 9.22609673790771  5.48650568181819 9.07424071990999  5.48650568181819 8.89876265466819  C 5.48650568181819 8.72328458942638  5.41903409090912 8.57142857142844  5.28409090909088 8.44319460067481  C 4.48863636363637 7.67379077615306  4.09090909090912 6.75590551181097  4.09090909090912 5.689538807649  C 4.09090909090912 4.62317210348704  4.48863636363637 3.70528683914506  5.28409090909088 2.93588301462319  C 5.41903409090912 2.80764904386956  5.48650568181819 2.65579302587173  5.48650568181819 2.48031496062993  C 5.48650568181819 2.30483689538812  5.41903409090912 2.15298087739041  5.28409090909088 2.02474690663655  C 5.14914772727269 1.89651293588292  4.98934659090907 1.83239595050611  4.8046875 1.83239595050611  C 4.62002840909093 1.83239595050611  4.46022727272731 1.89651293588292  4.32528409090912 2.02474690663655  C 3.25994318181819 3.037120359955  2.72727272727269 4.25871766029252  2.72727272727269 5.689538807649  C 2.72727272727269 7.12035995500571  3.25994318181819 8.341957255343  4.32528409090912 9.35433070866156  Z M 2.3970170454545 11.1867266591677  C 2.5248579545455 11.3149606299213  2.68465909090912 11.3790776152981  2.8764204545455 11.3790776152981  C 3.06818181818181 11.3790776152981  3.2279829545455 11.3149606299213  3.35582386363637 11.1867266591677  C 3.49076704545456 11.0584926884138  3.55823863636363 10.9066366704161  3.55823863636363 10.7311586051743  C 3.55823863636363 10.5556805399325  3.49076704545456 10.4038245219347  3.35582386363637 10.275590551181  C 2.71661931818181 9.66141732283472  2.22478693181819 8.95950506186728  1.8803267045455 8.16985376827893  C 1.53586647727275 7.38020247469069  1.36363636363637 6.55343082114734  1.36363636363637 5.689538807649  C 1.36363636363637 4.82564679415066  1.53586647727275 3.99887514060754  1.8803267045455 3.20922384701908  C 2.22478693181819 2.41957255343084  2.71661931818181 1.71766029246339  3.35582386363637 1.10348706411696  C 3.49076704545456 0.975253093363335  3.55823863636363 0.823397075365619  3.55823863636363 0.647919010123815  C 3.55823863636363 0.47244094488201  3.49076704545456 0.320584926884294  3.35582386363637 0.19235095613044  C 3.22088068181819 0.0641169853768133  3.0610795454545 0  2.8764204545455 0  C 2.69176136363637 0  2.53196022727275 0.0641169853768133  2.3970170454545 0.19235095613044  C 1.62286931818181 0.928008998875157  1.02982954545456 1.7682789651293  0.617897727272691 2.7131608548932  C 0.205965909090878 3.65804274465688  0 4.65016872890885  0 5.689538807649  C 0 6.72890888638915  0.205965909090878 7.72103487064123  0.617897727272691 8.6659167604048  C 1.02982954545456 9.61079865016882  1.62286931818181 10.4510686164228  2.3970170454545 11.1867266591677  Z " fill-rule="nonzero" fill="#d98200" stroke="none" transform="matrix(1 0 0 1 1102 1647 )" />
  </g>
</svg>