<!-- Generator: Adobe Illustrator 24.0.0, SVG Export Plug-In  -->
<svg version="1.1" xmlns="http://www.w3.org/2000/svg" xmlns:xlink="http://www.w3.org/1999/xlink" x="0px" y="0px"
	 width="341.33px" height="341.35px" viewBox="0 0 341.33 341.35" style="enable-background:new 0 0 341.33 341.35;"
	 xml:space="preserve">
<style type="text/css">
	.st0{fill:#1B75BC;}
	.st1{fill:#27AAE1;}
	.st2{fill:#010101;}
</style>
<defs>
</defs>
<g>
	<path class="st0" d="M245.33,216.91v-21.33c0-70.7-57.3-128-128-128h-14.22V10.69l-92.44,96l92.44,96V145.8h27.56
		c48.48,0,92.8,27.39,114.49,70.76L245.33,216.91z"/>
</g>
<g>
	<g>
		<path class="st1" d="M162.67,145.8h-27.56v0.31c46.72,1.64,89.03,28.42,110.05,70.44l0.17,0.36v-21.33
			c0-7.17-0.74-14.14-1.86-20.98C221.03,156.34,192.67,145.8,162.67,145.8L162.67,145.8z"/>
	</g>
	<g>
		<path class="st1" d="M42.67,106.69l60.44-62.76V10.69l-92.44,96l92.44,96v-33.24L42.67,106.69z"/>
	</g>
</g>
<g id="regular_1_">
	<g>
		<path class="st2" d="M302.22,341.35H39.11C17.54,341.35,0,323.82,0,302.24V181.35h21.33v120.89c0,9.8,7.98,17.78,17.78,17.78
			h263.11c9.8,0,17.78-7.98,17.78-17.78V96.02c0-9.8-7.98-17.78-17.78-17.78h-49.78V56.91h49.78c21.58,0,39.11,17.54,39.11,39.11
			v206.22C341.33,323.82,323.8,341.35,302.22,341.35z"/>
	</g>
	<g>
		<path class="st2" d="M245.33,227.58c-3.97,0-7.71-2.22-9.54-5.9l-0.18-0.36c-20-40.01-60.2-64.85-104.93-64.85h-16.9v46.22
			c0,4.35-2.65,8.26-6.68,9.88c-4.01,1.65-8.65,0.65-11.66-2.49l-92.44-96c-3.98-4.14-3.98-10.67,0-14.81l92.44-96
			c3-3.14,7.64-4.14,11.66-2.49c4.04,1.64,6.68,5.55,6.68,9.9v46.22h3.56c76.46,0,138.67,62.21,138.67,138.67v21.33
			c0,4.95-3.4,9.24-8.22,10.37C246.97,227.48,246.14,227.58,245.33,227.58z M103.11,135.13h27.56c40.15,0,77.23,16.94,103.1,45.81
			c-7.24-57.81-56.7-102.7-116.44-102.7h-14.22c-5.89,0-10.67-4.78-10.67-10.67V37.14l-66.97,69.55l66.97,69.55V145.8
			C92.44,139.91,97.22,135.13,103.11,135.13z"/>
	</g>
</g>
</svg>
