<?xml version="1.0" encoding="utf-8"?>
<svg version="1.1" xmlns:xlink="http://www.w3.org/1999/xlink" width="15px" height="15px" xmlns="http://www.w3.org/2000/svg">
  <g transform="matrix(1 0 0 1 -991 -441 )">
    <path d="M 9.267578125 9.267578125  C 9.755859375 8.779296875  10 8.19010416666667  10 7.5  C 10 6.80989583333333  9.755859375 6.220703125  9.267578125 5.732421875  C 8.779296875 5.244140625  8.19010416666667 5  7.5 5  C 6.80989583333333 5  6.220703125 5.244140625  5.732421875 5.732421875  C 5.244140625 6.220703125  5 6.80989583333333  5 7.5  C 5 8.19010416666667  5.244140625 8.779296875  5.732421875 9.267578125  C 6.220703125 9.755859375  6.80989583333333 10  7.5 10  C 8.19010416666667 10  8.779296875 9.755859375  9.267578125 9.267578125  Z M 10.224609375 4.775390625  C 10.9733072916667 5.52408854166666  11.34765625 6.43229166666666  11.34765625 7.5  C 11.34765625 8.56770833333333  10.9733072916667 9.47591145833333  10.224609375 10.224609375  C 9.47591145833333 10.9733072916667  8.56770833333333 11.34765625  7.5 11.34765625  C 6.43229166666667 11.34765625  5.52408854166667 10.9733072916667  4.775390625 10.224609375  C 4.02669270833333 9.47591145833333  3.65234375 8.56770833333333  3.65234375 7.5  C 3.65234375 6.43229166666666  4.02669270833333 5.52408854166666  4.775390625 4.775390625  C 5.52408854166667 4.02669270833333  6.43229166666667 3.65234375  7.5 3.65234375  C 8.56770833333333 3.65234375  9.47591145833333 4.02669270833333  10.224609375 4.775390625  Z M 12.138671875 2.861328125  C 12.314453125 3.037109375  12.40234375 3.24869791666667  12.40234375 3.49609375  C 12.40234375 3.74348958333333  12.314453125 3.955078125  12.138671875 4.130859375  C 11.962890625 4.306640625  11.7513020833333 4.39453125  11.50390625 4.39453125  C 11.2565104166667 4.39453125  11.044921875 4.306640625  10.869140625 4.130859375  C 10.693359375 3.955078125  10.60546875 3.74348958333333  10.60546875 3.49609375  C 10.60546875 3.24869791666667  10.693359375 3.037109375  10.869140625 2.861328125  C 11.044921875 2.685546875  11.2565104166667 2.59765625  11.50390625 2.59765625  C 11.7513020833333 2.59765625  11.962890625 2.685546875  12.138671875 2.861328125  Z M 8.2470703125 1.3427734375  C 7.79459635416667 1.34602864583333  7.54557291666667 1.34765625  7.5 1.34765625  C 7.45442708333333 1.34765625  7.20540364583333 1.34602864583333  6.7529296875 1.3427734375  C 6.30045572916667 1.33951822916667  5.95703125 1.33951822916667  5.72265625 1.3427734375  C 5.48828125 1.34602864583333  5.17415364583333 1.35579427083333  4.7802734375 1.3720703125  C 4.38639322916667 1.38834635416667  4.05110677083333 1.4208984375  3.7744140625 1.4697265625  C 3.49772135416667 1.5185546875  3.26497395833333 1.57877604166667  3.076171875 1.650390625  C 2.75065104166667 1.78059895833333  2.46419270833333 1.96940104166667  2.216796875 2.216796875  C 1.96940104166667 2.46419270833333  1.78059895833333 2.75065104166667  1.650390625 3.076171875  C 1.57877604166667 3.26497395833333  1.5185546875 3.49772135416667  1.4697265625 3.7744140625  C 1.4208984375 4.05110677083333  1.38834635416667 4.38639322916667  1.3720703125 4.7802734375  C 1.35579427083333 5.17415364583333  1.34602864583333 5.48828125  1.3427734375 5.72265625  C 1.33951822916667 5.95703125  1.33951822916667 6.30045572916666  1.3427734375 6.7529296875  C 1.34602864583333 7.20540364583333  1.34765625 7.45442708333333  1.34765625 7.5  C 1.34765625 7.54557291666667  1.34602864583333 7.79459635416667  1.3427734375 8.2470703125  C 1.33951822916667 8.69954427083333  1.33951822916667 9.04296875  1.3427734375 9.27734375  C 1.34602864583333 9.51171875  1.35579427083333 9.82584635416666  1.3720703125 10.2197265625  C 1.38834635416667 10.6136067708333  1.4208984375 10.9488932291667  1.4697265625 11.2255859375  C 1.5185546875 11.5022786458333  1.57877604166667 11.7350260416667  1.650390625 11.923828125  C 1.78059895833333 12.2493489583333  1.96940104166667 12.5358072916667  2.216796875 12.783203125  C 2.46419270833333 13.0305989583333  2.75065104166667 13.2194010416667  3.076171875 13.349609375  C 3.26497395833333 13.4212239583333  3.49772135416667 13.4814453125  3.7744140625 13.5302734375  C 4.05110677083333 13.5791015625  4.38639322916667 13.6116536458333  4.7802734375 13.6279296875  C 5.17415364583333 13.6442057291667  5.48828125 13.6539713541667  5.72265625 13.6572265625  C 5.95703125 13.6604817708333  6.30045572916667 13.6604817708333  6.7529296875 13.6572265625  C 7.20540364583333 13.6539713541667  7.45442708333333 13.65234375  7.5 13.65234375  C 7.54557291666667 13.65234375  7.79459635416667 13.6539713541667  8.2470703125 13.6572265625  C 8.69954427083333 13.6604817708333  9.04296875 13.6604817708333  9.27734375 13.6572265625  C 9.51171875 13.6539713541667  9.82584635416667 13.6442057291667  10.2197265625 13.6279296875  C 10.6136067708333 13.6116536458333  10.9488932291667 13.5791015625  11.2255859375 13.5302734375  C 11.5022786458333 13.4814453125  11.7350260416667 13.4212239583333  11.923828125 13.349609375  C 12.2493489583333 13.2194010416667  12.5358072916667 13.0305989583333  12.783203125 12.783203125  C 13.0305989583333 12.5358072916667  13.2194010416667 12.2493489583333  13.349609375 11.923828125  C 13.4212239583333 11.7350260416667  13.4814453125 11.5022786458333  13.5302734375 11.2255859375  C 13.5791015625 10.9488932291667  13.6116536458333 10.6136067708333  13.6279296875 10.2197265625  C 13.6442057291667 9.82584635416666  13.6539713541667 9.51171875  13.6572265625 9.27734375  C 13.6604817708333 9.04296875  13.6604817708333 8.69954427083333  13.6572265625 8.2470703125  C 13.6539713541667 7.79459635416667  13.65234375 7.54557291666667  13.65234375 7.5  C 13.65234375 7.45442708333333  13.6539713541667 7.20540364583333  13.6572265625 6.7529296875  C 13.6604817708333 6.30045572916666  13.6604817708333 5.95703125  13.6572265625 5.72265625  C 13.6539713541667 5.48828125  13.6442057291667 5.17415364583333  13.6279296875 4.7802734375  C 13.6116536458333 4.38639322916667  13.5791015625 4.05110677083333  13.5302734375 3.7744140625  C 13.4814453125 3.49772135416667  13.4212239583333 3.26497395833333  13.349609375 3.076171875  C 13.2194010416667 2.75065104166667  13.0305989583333 2.46419270833333  12.783203125 2.216796875  C 12.5358072916667 1.96940104166667  12.2493489583333 1.78059895833333  11.923828125 1.650390625  C 11.7350260416667 1.57877604166667  11.5022786458333 1.5185546875  11.2255859375 1.4697265625  C 10.9488932291667 1.4208984375  10.6136067708333 1.38834635416667  10.2197265625 1.3720703125  C 9.82584635416667 1.35579427083333  9.51171875 1.34602864583333  9.27734375 1.3427734375  C 9.04296875 1.33951822916667  8.69954427083333 1.33951822916667  8.2470703125 1.3427734375  Z M 14.951171875 4.404296875  C 14.9837239583333 4.97721354166667  15 6.00911458333333  15 7.5  C 15 8.99088541666667  14.9837239583333 10.0227864583333  14.951171875 10.595703125  C 14.8860677083333 11.9498697916667  14.482421875 12.998046875  13.740234375 13.740234375  C 12.998046875 14.482421875  11.9498697916667 14.8860677083333  10.595703125 14.951171875  C 10.0227864583333 14.9837239583333  8.99088541666667 15  7.5 15  C 6.00911458333333 15  4.97721354166667 14.9837239583333  4.404296875 14.951171875  C 3.05013020833333 14.8860677083333  2.001953125 14.482421875  1.259765625 13.740234375  C 0.517578125 12.998046875  0.113932291666667 11.9498697916667  0.048828125 10.595703125  C 0.0162760416666667 10.0227864583333  0 8.99088541666667  0 7.5  C 0 6.00911458333333  0.0162760416666667 4.97721354166667  0.048828125 4.404296875  C 0.113932291666667 3.05013020833333  0.517578125 2.001953125  1.259765625 1.259765625  C 2.001953125 0.517578125000001  3.05013020833333 0.113932291666666  4.404296875 0.0488281250000006  C 4.97721354166667 0.0162760416666646  6.00911458333333 0  7.5 0  C 8.99088541666667 0  10.0227864583333 0.0162760416666646  10.595703125 0.0488281250000006  C 11.9498697916667 0.113932291666666  12.998046875 0.517578125000001  13.740234375 1.259765625  C 14.482421875 2.001953125  14.8860677083333 3.05013020833333  14.951171875 4.404296875  Z " fill-rule="nonzero" fill="#aaaaaa" stroke="none" transform="matrix(1 0 0 1 991 441 )" />
  </g>
</svg>