<?xml version="1.0" encoding="utf-8"?>
<svg version="1.1" xmlns:xlink="http://www.w3.org/1999/xlink" width="14px" height="17px" xmlns="http://www.w3.org/2000/svg">
  <g transform="matrix(1 0 0 1 -134 -17 )">
    <path d="M 5.70241477272723 16.5171541057367  C 5.9907670454546 16.3227409073866  6.1349431818182 16.1554180727409  6.13494318181821 16.0151856017997  C 6.13494318181828 15.9450693663292  6.0918560606061 15.7602174728159  6.00568181818184 15.4606299212598  C 5.91950757575763 15.1610423697038  5.81676136363642 14.8200224971879  5.69744318181821 14.437570303712  C 5.57812500000003 14.0551181102362  5.51183712121213 13.8352080989876  5.49857954545452 13.7778402699662  C 5.49195075757581 13.7523434570679  5.47537878787881 13.667885264342  5.44886363636364 13.5244656917885  C 5.42234848484845 13.3810461192351  5.39417613636366 13.2663104611923  5.36434659090916 13.1802587176603  C 5.33451704545453 13.0942069741282  5.28977272727272 13.0256842894638  5.23011363636368 12.974690663667  C 5.13068181818185 12.8854518185227  4.96164772727278 12.8408323959505  4.72301136363639 12.8408323959505  C 4.57054924242429 12.8408323959505  4.33854166666671 12.8583614548181  4.02698863636365 12.8934195725535  C 3.7154356060606 12.9284776902887  3.48011363636368 12.9460067491564  3.32102272727276 12.9460067491563  C 3.09564393939397 12.9460067491563  2.93986742424248 12.9109486314211  2.85369318181825 12.8408323959505  C 2.81392045454548 12.8089613798275  2.77746212121219 12.7595613048369  2.7443181818182 12.6926321709786  C 2.71117424242424 12.6257030371203  2.68631628787887 12.5619610048744  2.66974431818189 12.5014060742407  C 2.65317234848492 12.4408511436071  2.63162878787886 12.364360704912  2.60511363636364 12.2719347581552  C 2.57859848484852 12.1795088113986  2.56202651515153 12.120547431571  2.55539772727275 12.0950506186727  C 2.31013257575765 11.2791526059243  2.18750000000001 10.4664416947882  2.18750000000004 9.65691788526438  C 2.18750000000002 8.84739407574057  2.31013257575757 8.03468316460443  2.55539772727277 7.21878515185607  C 2.56202651515152 7.19328833895769  2.57859848484849 7.13432695913015  2.60511363636365 7.04190101237349  C 2.63162878787879 6.94947506561687  2.6531723484849 6.8729846269217  2.66974431818183 6.81242969628801  C 2.68631628787881 6.75187476565436  2.71117424242422 6.68813273340834  2.74431818181819 6.62120359955007  C 2.77746212121214 6.55427446569184  2.81392045454554 6.50487439070124  2.85369318181822 6.47300337457821  C 2.93986742424236 6.40288713910763  3.09564393939396 6.36782902137234  3.32102272727268 6.36782902137236  C 3.48011363636367 6.36782902137236  3.71543560606058 6.38535808024003  4.02698863636368 6.42041619797533  C 4.33854166666668 6.45547431571057  4.57054924242424 6.47300337457825  4.72301136363631 6.47300337457821  C 4.96164772727277 6.47300337457826  5.13068181818177 6.42838395200603  5.23011363636361 6.33914510686168  C 5.28977272727273 6.28815148106489  5.33451704545448 6.21962879640047  5.3643465909091 6.13357705286843  C 5.39417613636365 6.04752530933639  5.4223484848485 5.93278965129366  5.44886363636358 5.78937007874015  C 5.47537878787872 5.64595050618676  5.4919507575758 5.56149231346087  5.49857954545455 5.5359955005625  C 5.51183712121208 5.4786276715411  5.57812500000002 5.25871766029253  5.69744318181816 4.87626546681671  C 5.81676136363641 4.49381327334092  5.91950757575758 4.15279340082495  6.00568181818181 3.85320584926889  C 6.09185606060607 3.55361829771289  6.13494318181818 3.36876640419953  6.13494318181813 3.29865016872895  C 6.13494318181816 3.15841769778781  5.99076704545454 2.99109486314217  5.70241477272721 2.79668166479192  C 5.41406249999996 2.60226846644177  5.16382575757567 2.46681664791903  4.95170454545451 2.3903262092239  C 4.81912878787873 2.33933258342713  4.66998106060603 2.31383577052874  4.50426136363634 2.31383577052873  C 4.27888257575756 2.31383577052872  3.95407196969693 2.3712035995501  3.52982954545457 2.48593925759288  C 3.15198863636356 2.59430071241096  2.8321496212121 2.72337832770911  2.57031249999999 2.87317210348712  C 2.30847537878786 3.02296587926516  2.0731534090909 3.23331458567683  1.8643465909091 3.50421822272222  C 1.65553977272725 3.77512185976759  1.50307765151519 3.99821897262845  1.40696022727269 4.17350956130487  C 1.31084280303036 4.34880014998131  1.16003787878794 4.64998125234352  0.954545454545492 5.0770528683915  C 0.914772727272761 5.15354330708667  0.884943181818198 5.21409823772035  0.865056818181861 5.25871766029254  C 0.540246212121237 5.94075740532437  0.314867424242439 6.6291713535808  0.188920454545484 7.32395950506191  C 0.0629734848485418 8.018747656543  0 8.79640044994379  0 9.65691788526437  C 0 10.5174353205849  0.062973484848541 11.2950881139858  0.188920454545433 11.9898762654668  C 0.314867424242439 12.6846644169479  0.540246212121262 13.3730783652044  0.86505681818186 14.0551181102362  C 1.23626893939404 14.8327709036371  1.51136363636372 15.3458942632171  1.69034090909105 15.5944881889764  C 2.10795454545461 16.1745406824147  2.70123106060612 16.5793025871766  3.47017045454549 16.8087739032621  L 3.52982954545463 16.8278965129359  C 3.95407196969695 16.9426321709786  4.27888257575758 17  4.50426136363642 17  C 4.6699810606061 17  4.81912878787884 16.9745031871016  4.95170454545461 16.9235095613048  C 5.16382575757584 16.8470191226097  5.41406250000005 16.711567304087  5.70241477272723 16.5171541057367  Z M 8.16335227272725 7.10404949381331  C 8.02414772727275 7.22515935508066  7.87499999999998 7.2857142857143  7.71590909090904 7.28571428571433  C 7.54356060606058 7.28571428571436  7.39441287878785 7.22515935508064  7.2684659090909 7.10404949381328  C 7.14251893939394 6.98293963254596  7.07954545454537 6.83792650918633  7.07954545454543 6.66901012373456  C 7.07954545454544 6.50009373828276  7.14251893939396 6.35508061492316  7.26846590909094 6.23397075365583  C 7.51373106060606 5.99812523434579  7.63636363636367 5.71128608923891  7.63636363636361 5.37345331833522  C 7.63636363636358 5.04199475065619  7.51373106060604 4.75196850393706  7.26846590909083 4.50337457817776  C 7.14251893939389 4.38226471691041  7.07954545454544 4.238845144357  7.07954545454544 4.07311586051751  C 7.07954545454537 3.90738657667794  7.14251893939395 3.76396700412454  7.26846590909088 3.64285714285718  C 7.39441287878784 3.52174728158988  7.54356060606051 3.46119235095617  7.71590909090902 3.46119235095617  C 7.88825757575758 3.46119235095619  8.03740530303033 3.52174728158988  8.16335227272728 3.64285714285723  C 8.66051136363641 4.12092238470199  8.90909090909084 4.69778777652794  8.90909090909086 5.37345331833525  C 8.90909090909089 6.04911886014254  8.66051136363631 6.62598425196852  8.16335227272725 7.10404949381331  Z M 9.96306818181817 8.83464566929136  C 9.84374999999996 8.95575553055866  9.69460227272717 9.01631046119235  9.51562499999993 9.01631046119233  C 9.33664772727267 9.01631046119233  9.18749999999996 8.95575553055867  9.06818181818175 8.83464566929134  C 8.94223484848484 8.71353580802404  8.87926136363629 8.57011623547058  8.87926136363632 8.40438695163106  C 8.87926136363634 8.23865766779154  8.94223484848477 8.09523809523806  9.06818181818173 7.97412823397076  C 9.81060606060599 7.24746906636675  10.1818181818181 6.38057742782154  10.1818181818181 5.37345331833525  C 10.1818181818181 4.36632920884893  9.81060606060596 3.49943757030375  9.06818181818179 2.77277840269974  C 8.94223484848484 2.65166854143239  8.87926136363629 2.50824896887892  8.8792613636363 2.34251968503944  C 8.87926136363632 2.17679040119992  8.9422348484848 2.03337082864646  9.06818181818177 1.91226096737916  C 9.1941287878787 1.7911511061118  9.34327651515146 1.73059617547814  9.51562499999992 1.73059617547811  C 9.68797348484843 1.73059617547811  9.83712121212118 1.7911511061118  9.96306818181817 1.91226096737918  C 10.9573863636363 2.86839145106866  11.4545454545454 4.02212223472073  11.4545454545454 5.37345331833525  C 11.4545454545454 6.72478440194979  10.9573863636363 7.87851518560184  9.96306818181817 8.83464566929136  Z M 11.762784090909 10.5652418447694  C 11.6434659090909 10.6863517060367  11.4943181818181 10.7469066366704  11.3153409090909 10.7469066366704  C 11.1363636363636 10.7469066366704  10.9872159090909 10.6863517060368  10.8678977272727 10.5652418447694  C 10.7419507575757 10.444131983502  10.6789772727273 10.3007124109487  10.6789772727273 10.1349831271091  C 10.6789772727273 9.96925384326959  10.7419507575757 9.82583427071614  10.8678977272727 9.70472440944884  C 11.4644886363637 9.12467191601054  11.9235321969696 8.46175478065242  12.2450284090908 7.71597300337455  C 12.5665246212121 6.97019122609676  12.7272727272727 6.18935133108365  12.7272727272727 5.37345331833525  C 12.7272727272727 4.55755530558681  12.5665246212121 3.77671541057374  12.2450284090908 3.03093363329589  C 11.9235321969697 2.28515185601807  11.4644886363636 1.62223472065999  10.8678977272726 1.04218222722166  C 10.7419507575757 0.921072365954337  10.6789772727272 0.777652793400876  10.6789772727272 0.611923509561385  C 10.6789772727273 0.446194225721894  10.7419507575757 0.302774653168413  10.8678977272727 0.18166479190108  C 10.9938446969697 0.0605549306337457  11.1429924242424 0  11.3153409090908 0  C 11.4876893939393 0  11.6368371212121 0.0605549306337552  11.762784090909 0.181664791901109  C 12.485321969697 0.876452943382198  13.0388257575757 1.67004124484446  13.4232954545454 2.56242969628802  C 13.807765151515 3.45481814773156  13.9999999999999 4.39182602174732  13.9999999999999 5.37345331833524  C 13.9999999999999 6.35508061492317  13.8077651515151 7.29208848893891  13.4232954545453 8.18447694038243  C 13.0388257575757 9.07686539182601  12.4853219696969 9.87045369328832  11.762784090909 10.5652418447694  Z " fill-rule="nonzero" fill="#000000" stroke="none" transform="matrix(1 0 0 1 134 17 )" />
  </g>
</svg>