<?xml version="1.0" encoding="utf-8"?>
<svg version="1.1" xmlns:xlink="http://www.w3.org/1999/xlink" width="22px" height="20px" xmlns="http://www.w3.org/2000/svg">
  <g transform="matrix(1 0 0 1 -1082 -1743 )">
    <path d="M 15.8257211538461 7.00284090909087  C 15.9931891025642 6.82291666666664  16.0769230769232 6.60984848484846  16.0769230769232 6.36363636363635  C 16.0769230769232 6.11742424242423  15.9931891025642 5.90435606060606  15.8257211538461 5.72443181818183  C 15.6582532051283 5.5445075757576  15.4599358974358 5.45454545454548  15.2307692307693 5.45454545454548  L 13.5384615384615 5.45454545454548  L 13.5384615384615 3.63636363636365  C 13.5384615384615 3.39015151515153  13.4547275641025 3.17708333333336  13.2872596153846 2.99715909090913  C 13.1197916666667 2.81723484848481  12.9214743589744 2.72727272727269  12.6923076923077 2.72727272727269  C 12.463141025641 2.72727272727269  12.2648237179487 2.81723484848481  12.0973557692307 2.99715909090913  C 11.9298878205127 3.17708333333336  11.8461538461539 3.39015151515153  11.8461538461539 3.63636363636365  L 11.8461538461539 5.45454545454548  L 10.1538461538461 5.45454545454548  C 9.9246794871795 5.45454545454548  9.72636217948731 5.5445075757576  9.5588942307693 5.72443181818183  C 9.39142628205129 5.90435606060606  9.30769230769228 6.11742424242423  9.30769230769228 6.36363636363635  C 9.30769230769228 6.60984848484846  9.39142628205129 6.82291666666664  9.5588942307693 7.00284090909087  C 9.72636217948731 7.18276515151519  9.9246794871795 7.2727272727273  10.1538461538461 7.2727272727273  L 11.8461538461539 7.2727272727273  L 11.8461538461539 9.09090909090912  C 11.8461538461539 9.33712121212125  11.9298878205127 9.55018939393942  12.0973557692307 9.73011363636366  C 12.2648237179487 9.91003787878788  12.463141025641 10  12.6923076923077 10  C 12.9214743589744 10  13.1197916666667 9.91003787878788  13.2872596153846 9.73011363636366  C 13.4547275641025 9.55018939393942  13.5384615384615 9.33712121212125  13.5384615384615 9.09090909090912  L 13.5384615384615 7.2727272727273  L 15.2307692307693 7.2727272727273  C 15.4599358974358 7.2727272727273  15.6582532051283 7.18276515151519  15.8257211538461 7.00284090909087  Z M 7.96574519230772 16.8963068181818  C 8.29627403846149 17.2514204545455  8.46153846153851 17.6799242424242  8.46153846153851 18.1818181818182  C 8.46153846153851 18.6837121212121  8.29627403846149 19.1122159090909  7.96574519230772 19.4673295454545  C 7.63521634615386 19.8224431818182  7.23637820512831 20  6.7692307692307 20  C 6.30208333333327 20  5.90324519230772 19.8224431818182  5.57271634615386 19.4673295454545  C 5.2421875 19.1122159090909  5.07692307692316 18.6837121212121  5.07692307692316 18.1818181818182  C 5.07692307692316 17.6799242424242  5.2421875 17.2514204545455  5.57271634615386 16.8963068181818  C 5.90324519230772 16.5411931818182  6.30208333333327 16.3636363636363  6.7692307692307 16.3636363636363  C 7.23637820512831 16.3636363636363  7.63521634615386 16.5411931818182  7.96574519230772 16.8963068181818  Z M 19.8118990384615 16.8963068181818  C 20.1424278846154 17.2514204545455  20.3076923076923 17.6799242424242  20.3076923076923 18.1818181818182  C 20.3076923076923 18.6837121212121  20.1424278846154 19.1122159090909  19.8118990384615 19.4673295454545  C 19.4813701923077 19.8224431818182  19.0825320512822 20  18.6153846153846 20  C 18.1482371794873 20  17.7493990384615 19.8224431818182  17.4188701923077 19.4673295454545  C 17.0883413461539 19.1122159090909  16.9230769230768 18.6837121212121  16.9230769230768 18.1818181818182  C 16.9230769230768 17.6799242424242  17.0883413461539 17.2514204545455  17.4188701923077 16.8963068181818  C 17.7493990384615 16.5411931818182  18.1482371794873 16.3636363636363  18.6153846153846 16.3636363636363  C 19.0825320512822 16.3636363636363  19.4813701923077 16.5411931818182  19.8118990384615 16.8963068181818  Z M 21.7487980769232 2.08806818181817  C 21.916266025641 2.2679924242424  22 2.48106060606058  22 2.72727272727269  L 22 10  C 22 10.2272727272727  21.9294871794873 10.4285037878788  21.7884615384615 10.6036931818182  C 21.6474358974358 10.7788825757576  21.4667467948717 10.8806818181818  21.2463942307693 10.9090909090909  L 7.44350961538465 12.6420454545455  C 7.45232371794871 12.7083333333334  7.47215544871783 12.8101325757576  7.50300480769228 12.9474431818182  C 7.53385416666673 13.0847537878788  7.56029647435901 13.2102272727273  7.5823317307693 13.3238636363637  C 7.6043669871795 13.4375  7.61538461538465 13.5416666666666  7.61538461538465 13.6363636363637  C 7.61538461538465 13.7878787878788  7.50961538461535 14.0909090909091  7.29807692307684 14.5454545454545  L 19.4615384615385 14.5454545454545  C 19.6907051282053 14.5454545454545  19.8890224358975 14.6354166666666  20.0564903846154 14.8153409090909  C 20.2239583333333 14.9952651515152  20.3076923076923 15.2083333333334  20.3076923076923 15.4545454545455  C 20.3076923076923 15.7007575757576  20.2239583333333 15.9138257575758  20.0564903846154 16.09375  C 19.8890224358975 16.2736742424242  19.6907051282053 16.3636363636363  19.4615384615385 16  L 5.92307692307684 16  C 5.69391025641011 16.3636363636363  5.49559294871783 16.2736742424242  5.328125 16.09375  C 5.16065705128217 15.9138257575758  5.07692307692316 15.7007575757576  5.07692307692316 15.4545454545455  C 5.07692307692316 15.3219696969697  5.12540064102564 15.1349431818182  5.2223557692307 14.8934659090909  C 5.31931089743585 14.6519886363637  5.44931891025634 14.3702651515152  5.61237980769228 14.0482954545455  C 5.77544070512831 13.7263257575758  5.86578525641011 13.5464015151515  5.88341346153851 13.5085227272727  L 3.5432692307693 1.81818181818183  L 0.84615384615386 1.81818181818183  C 0.616987179487312 1.81818181818183  0.418669871794675 1.72821969696971  0.251201923076841 1.54829545454548  C 0.0837339743590064 1.36837121212125  0 1.15530303030307  0 0.909090909090864  C 0 0.662878787878753  0.0837339743590064 0.449810606060582  0.251201923076841 0.269886363636349  C 0.418669871794675 0.0899621212121104  0.616987179487312 0  0.84615384615386 0  L 4.2307692307693 0  C 4.37179487179468 0  4.49739583333327 0.0307765151515345  4.60757211538465 0.0923295454545207  C 4.71774839743585 0.153882575757596  4.80588942307684 0.227272727272692  4.87199519230772 0.3125  C 4.93810096153851 0.397727272727308  4.99539262820532 0.513731060606061  5.04387019230772 0.660511363636349  C 5.09234775641011 0.807291666666643  5.12540064102564 0.932765151515185  5.14302884615386 1.03693181818183  C 5.16065705128217 1.14109848484847  5.18489583333327 1.28077651515153  5.21574519230772 1.45596590909086  C 5.24659455128217 1.63115530303029  5.26642628205129 1.75189393939394  5.27524038461535 2  L 21.1538461538461 2  C 21.3830128205127 1.81818181818183  21.5813301282053 1.90814393939394  21.7487980769232 2.08806818181817  Z " fill-rule="nonzero" fill="#7f7f7f" stroke="none" transform="matrix(1 0 0 1 1082 1743 )" />
  </g>
</svg>