<?xml version="1.0" encoding="utf-8"?>
<svg version="1.1" xmlns:xlink="http://www.w3.org/1999/xlink" width="18px" height="16px" xmlns="http://www.w3.org/2000/svg">
  <g transform="matrix(1 0 0 1 -746 -2240 )">
    <path d="M 12.9483173076923 5.6022727272727  C 13.0853365384616 5.45833333333331  13.1538461538462 5.28787878787877  13.1538461538462 5.09090909090908  C 13.1538461538462 4.89393939393939  13.0853365384616 4.72348484848485  12.9483173076923 4.57954545454546  C 12.8112980769232 4.43560606060608  12.6490384615384 4.36363636363638  12.4615384615385 4.36363636363638  L 11.076923076923 4.36363636363638  L 11.076923076923 2.90909090909092  C 11.076923076923 2.71212121212123  11.0084134615384 2.54166666666669  10.8713942307693 2.3977272727273  C 10.734375 2.25378787878785  10.5721153846154 2.18181818181815  10.3846153846154 2.18181818181815  C 10.1971153846154 2.18181818181815  10.0348557692308 2.25378787878785  9.89783653846148 2.3977272727273  C 9.7608173076922 2.54166666666669  9.6923076923077 2.71212121212123  9.6923076923077 2.90909090909092  L 9.6923076923077 4.36363636363638  L 8.3076923076923 4.36363636363638  C 8.12019230769232 4.36363636363638  7.9579326923078 4.43560606060608  7.82091346153852 4.57954545454546  C 7.68389423076924 4.72348484848485  7.61538461538459 4.89393939393939  7.61538461538459 5.09090909090908  C 7.61538461538459 5.28787878787877  7.68389423076924 5.45833333333331  7.82091346153852 5.6022727272727  C 7.9579326923078 5.74621212121215  8.12019230769232 5.81818181818184  8.3076923076923 5.81818181818184  L 9.6923076923077 5.81818181818184  L 9.6923076923077 7.2727272727273  C 9.6923076923077 7.469696969697  9.7608173076922 7.64015151515154  9.89783653846148 7.78409090909093  C 10.0348557692308 7.9280303030303  10.1971153846154 8  10.3846153846154 8  C 10.5721153846154 8  10.734375 7.9280303030303  10.8713942307693 7.78409090909093  C 11.0084134615384 7.64015151515154  11.076923076923 7.469696969697  11.076923076923 7.2727272727273  L 11.076923076923 5.81818181818184  L 12.4615384615385 5.81818181818184  C 12.6490384615384 5.81818181818184  12.8112980769232 5.74621212121215  12.9483173076923 5.6022727272727  Z M 6.51742788461541 13.5170454545455  C 6.78786057692304 13.8011363636364  6.92307692307696 14.1439393939394  6.92307692307696 14.5454545454545  C 6.92307692307696 14.9469696969697  6.78786057692304 15.2897727272727  6.51742788461541 15.5738636363636  C 6.2469951923077 15.8579545454545  5.92067307692316 16  5.53846153846148 16  C 5.15624999999995 16  4.82992788461541 15.8579545454545  4.5594951923077 15.5738636363636  C 4.2890625 15.2897727272727  4.15384615384622 14.9469696969697  4.15384615384622 14.5454545454545  C 4.15384615384622 14.1439393939394  4.2890625 13.8011363636364  4.5594951923077 13.5170454545455  C 4.82992788461541 13.2329545454545  5.15624999999995 13.0909090909091  5.53846153846148 13.0909090909091  C 5.92067307692316 13.0909090909091  6.2469951923077 13.2329545454545  6.51742788461541 13.5170454545455  Z M 16.209735576923 13.5170454545455  C 16.4801682692307 13.8011363636364  16.6153846153846 14.1439393939394  16.6153846153846 14.5454545454545  C 16.6153846153846 14.9469696969697  16.4801682692307 15.2897727272727  16.209735576923 15.5738636363636  C 15.9393028846154 15.8579545454545  15.6129807692309 16  15.2307692307693 16  C 14.8485576923078 16  14.522235576923 15.8579545454545  14.2518028846154 15.5738636363636  C 13.9813701923077 15.2897727272727  13.8461538461538 14.9469696969697  13.8461538461538 14.5454545454545  C 13.8461538461538 14.1439393939394  13.9813701923077 13.8011363636364  14.2518028846154 13.5170454545455  C 14.522235576923 13.2329545454545  14.8485576923078 13.0909090909091  15.2307692307693 13.0909090909091  C 15.6129807692309 13.0909090909091  15.9393028846154 13.2329545454545  16.209735576923 13.5170454545455  Z M 17.7944711538462 1.67045454545454  C 17.9314903846154 1.81439393939392  18 1.98484848484847  18 2.18181818181815  L 18 8  C 18 8.18181818181816  17.9423076923078 8.342803030303  17.826923076923 8.48295454545454  C 17.7115384615384 8.62310606060607  17.5637019230768 8.70454545454546  17.3834134615385 8.7272727272727  L 6.09014423076926 10.1136363636364  C 6.09735576923076 10.1666666666667  6.11358173076914 10.2481060606061  6.13882211538459 10.3579545454545  C 6.16406250000005 10.467803030303  6.18569711538464 10.5681818181818  6.20372596153852 10.6590909090909  C 6.22175480769232 10.75  6.23076923076926 10.8333333333333  6.23076923076926 10.9090909090909  C 6.23076923076926 11.030303030303  6.14423076923074 11.2727272727273  5.97115384615378 11.6363636363636  L 15.923076923077 11.6363636363636  C 16.1105769230771 11.6363636363636  16.2728365384616 11.7083333333333  16.4098557692307 11.8522727272727  C 16.546875 11.9962121212122  16.6153846153846 12.1666666666667  16.6153846153846 12.3636363636364  C 16.6153846153846 12.5606060606061  16.546875 12.7310606060606  16.4098557692307 12.875  C 16.2728365384616 13.0189393939394  16.1105769230771 13.0909090909091  15.923076923077 13  L 4.84615384615378 13  C 4.65865384615373 13.0909090909091  4.49639423076914 13.0189393939394  4.359375 12.875  C 4.22235576923086 12.7310606060606  4.15384615384622 12.5606060606061  4.15384615384622 12.3636363636364  C 4.15384615384622 12.2575757575758  4.19350961538462 12.1079545454545  4.27283653846148 11.9147727272727  C 4.35216346153842 11.7215909090909  4.4585336538461 11.4962121212122  4.59194711538459 11.2386363636364  C 4.72536057692316 10.9810606060606  4.79927884615373 10.8371212121212  4.81370192307696 10.8068181818182  L 2.89903846153852 1.45454545454546  L 0.692307692307704 1.45454545454546  C 0.504807692307801 1.45454545454546  0.342548076922916 1.38257575757577  0.205528846153779 1.23863636363638  C 0.0685096153846416 1.094696969697  0 0.92424242424246  0 0.727272727272691  C 0 0.530303030303003  0.0685096153846416 0.359848484848465  0.205528846153779 0.215909090909079  C 0.342548076922916 0.0719696969696884  0.504807692307801 0  0.692307692307704 0  L 3.46153846153852 0  C 3.57692307692292 0  3.67968749999995 0.0246212121212276  3.76983173076926 0.0738636363636166  C 3.85997596153842 0.123106060606077  3.93209134615378 0.181818181818154  3.98617788461541 0.25  C 4.04026442307696 0.318181818181846  4.08713942307708 0.410984848484849  4.12680288461541 0.528409090909079  C 4.16646634615373 0.645833333333314  4.19350961538462 0.746212121212148  4.2079326923077 0.829545454545463  C 4.22235576923086 0.912878787878772  4.24218749999995 1.02462121212123  4.26742788461541 1.16477272727269  C 4.29266826923086 1.30492424242423  4.30889423076923 1.40151515151515  4.31610576923074 1.45454545454546  L 17.3076923076923 1.45454545454546  C 17.4951923076922 1.45454545454546  17.6574519230771 1.52651515151515  17.7944711538462 1.67045454545454  Z " fill-rule="nonzero" fill="#7f7f7f" stroke="none" transform="matrix(1 0 0 1 746 2240 )" />
  </g>
</svg>