<?xml version="1.0" encoding="utf-8"?>
<svg version="1.1" xmlns:xlink="http://www.w3.org/1999/xlink" width="23px" height="20px" xmlns="http://www.w3.org/2000/svg">
  <g transform="matrix(1 0 0 1 -745 -1857 )">
    <path d="M 16.5450721153846 7.00284090909087  C 16.7201522435898 6.82291666666664  16.8076923076924 6.60984848484846  16.8076923076924 6.36363636363635  C 16.8076923076924 6.11742424242423  16.7201522435898 5.90435606060606  16.5450721153846 5.72443181818183  C 16.3699919871796 5.5445075757576  16.1626602564102 5.45454545454548  15.923076923077 5.45454545454548  L 14.1538461538461 5.45454545454548  L 14.1538461538461 3.63636363636365  C 14.1538461538461 3.39015151515153  14.0663060897435 3.17708333333336  13.8912259615385 2.99715909090913  C 13.7161458333334 2.81723484848481  13.5088141025641 2.72727272727269  13.2692307692308 2.72727272727269  C 13.0296474358974 2.72727272727269  12.8223157051282 2.81723484848481  12.647235576923 2.99715909090913  C 12.4721554487178 3.17708333333336  12.3846153846154 3.39015151515153  12.3846153846154 3.63636363636365  L 12.3846153846154 5.45454545454548  L 10.6153846153846 5.45454545454548  C 10.3758012820513 5.45454545454548  10.1684695512822 5.5445075757576  9.993389423077 5.72443181818183  C 9.8183092948718 5.90435606060606  9.7307692307692 6.11742424242423  9.7307692307692 6.36363636363635  C 9.7307692307692 6.60984848484846  9.8183092948718 6.82291666666664  9.993389423077 7.00284090909087  C 10.1684695512822 7.18276515151519  10.3758012820513 7.2727272727273  10.6153846153846 7.2727272727273  L 12.3846153846154 7.2727272727273  L 12.3846153846154 9.09090909090912  C 12.3846153846154 9.33712121212125  12.4721554487178 9.55018939393942  12.647235576923 9.73011363636366  C 12.8223157051282 9.91003787878788  13.0296474358974 10  13.2692307692308 10  C 13.5088141025641 10  13.7161458333334 9.91003787878788  13.8912259615385 9.73011363636366  C 14.0663060897435 9.55018939393942  14.1538461538461 9.33712121212125  14.1538461538461 9.09090909090912  L 14.1538461538461 7.2727272727273  L 15.923076923077 7.2727272727273  C 16.1626602564102 7.2727272727273  16.3699919871796 7.18276515151519  16.5450721153846 7.00284090909087  Z M 8.3278245192308 16.8963068181818  C 8.6733774038461 17.2514204545455  8.8461538461539 17.6799242424242  8.8461538461539 18.1818181818182  C 8.8461538461539 18.6837121212121  8.6733774038461 19.1122159090909  8.3278245192308 19.4673295454545  C 7.9822716346154 19.8224431818182  7.56530448717959 20  7.076923076923 20  C 6.5885416666666 20  6.1715745192308 19.8224431818182  5.8260216346154 19.4673295454545  C 5.48046875 19.1122159090909  5.30769230769239 18.6837121212121  5.30769230769239 18.1818181818182  C 5.30769230769239 17.6799242424242  5.48046875 17.2514204545455  5.8260216346154 16.8963068181818  C 6.1715745192308 16.5411931818182  6.5885416666666 16.3636363636363  7.076923076923 16.3636363636363  C 7.56530448717959 16.3636363636363  7.9822716346154 16.5411931818182  8.3278245192308 16.8963068181818  Z M 20.7124399038461 16.8963068181818  C 21.0579927884615 17.2514204545455  21.2307692307692 17.6799242424242  21.2307692307692 18.1818181818182  C 21.2307692307692 18.6837121212121  21.0579927884615 19.1122159090909  20.7124399038461 19.4673295454545  C 20.3668870192308 19.8224431818182  19.949919871795 20  19.4615384615385 20  C 18.9731570512822 20  18.5561899038461 19.8224431818182  18.2106370192308 19.4673295454545  C 17.8650841346154 19.1122159090909  17.6923076923076 18.6837121212121  17.6923076923076 18.1818181818182  C 17.6923076923076 17.6799242424242  17.8650841346154 17.2514204545455  18.2106370192308 16.8963068181818  C 18.5561899038461 16.5411931818182  18.9731570512822 16.3636363636363  19.4615384615385 16.3636363636363  C 19.949919871795 16.3636363636363  20.3668870192308 16.5411931818182  20.7124399038461 16.8963068181818  Z M 22.7373798076924 2.08806818181817  C 22.9124599358974 2.2679924242424  23 2.48106060606058  23 2.72727272727269  L 23 10  C 23 10.2272727272727  22.9262820512822 10.4285037878788  22.7788461538461 10.6036931818182  C 22.6314102564102 10.7788825757576  22.4425080128204 10.8806818181818  22.212139423077 10.9090909090909  L 7.7818509615385 12.6420454545455  C 7.7910657051282 12.7083333333334  7.81179887820501 12.8101325757576  7.8440504807692 12.9474431818182  C 7.8763020833334 13.0847537878788  7.9039463141026 13.2102272727273  7.926983173077 13.3238636363637  C 7.9500200320513 13.4375  7.9615384615385 13.5416666666666  7.9615384615385 13.6363636363637  C 7.9615384615385 13.7878787878788  7.8509615384615 14.0909090909091  7.62980769230761 14.5454545454545  L 20.3461538461539 14.5454545454545  C 20.5857371794874 14.5454545454545  20.7930689102565 14.6354166666666  20.9681490384615 14.8153409090909  C 21.1432291666666 14.9952651515152  21.2307692307692 15.2083333333334  21.2307692307692 15.4545454545455  C 21.2307692307692 15.7007575757576  21.1432291666666 15.9138257575758  20.9681490384615 16.09375  C 20.7930689102565 16.2736742424242  20.5857371794874 16.3636363636363  20.3461538461539 16  L 6.19230769230761 16  C 5.95272435897421 16.3636363636363  5.74539262820501 16.2736742424242  5.5703125 16.09375  C 5.39523237179499 15.9138257575758  5.30769230769239 15.7007575757576  5.30769230769239 15.4545454545455  C 5.30769230769239 15.3219696969697  5.3583733974359 15.1349431818182  5.45973557692301 14.8934659090909  C 5.5610977564102 14.6519886363637  5.6970152243589 14.3702651515152  5.8674879807692 14.0482954545455  C 6.03796073717959 13.7263257575758  6.13241185897421 13.5464015151515  6.1508413461539 13.5085227272727  L 3.70432692307699 1.81818181818183  L 0.884615384615399 1.81818181818183  C 0.64503205128219 1.81818181818183  0.437700320512615 1.72821969696971  0.262620192307606 1.54829545454548  C 0.0875400641025976 1.36837121212125  0 1.15530303030307  0 0.909090909090864  C 0 0.662878787878753  0.0875400641025976 0.449810606060582  0.262620192307606 0.269886363636349  C 0.437700320512615 0.0899621212121104  0.64503205128219 0  0.884615384615399 0  L 4.42307692307699 0  C 4.57051282051262 0  4.7018229166666 0.0307765151515345  4.8170072115385 0.0923295454545207  C 4.9321915064102 0.153882575757596  5.02433894230761 0.227272727272692  5.0934495192308 0.3125  C 5.1625600961539 0.397727272727308  5.22245592948738 0.513731060606061  5.2731370192308 0.660511363636349  C 5.32381810897421 0.807291666666643  5.3583733974359 0.932765151515185  5.3768028846154 1.03693181818183  C 5.39523237179499 1.14109848484847  5.4205729166666 1.28077651515153  5.4528245192308 1.45596590909086  C 5.48507612179499 1.63115530303029  5.5058092948718 1.75189393939394  5.5150240384615 2  L 22.1153846153846 2  C 22.3549679487178 1.81818181818183  22.5622996794874 1.90814393939394  22.7373798076924 2.08806818181817  Z " fill-rule="nonzero" fill="#7f7f7f" stroke="none" transform="matrix(1 0 0 1 745 1857 )" />
  </g>
</svg>