<?xml version="1.0" encoding="utf-8"?>
<svg version="1.1" xmlns:xlink="http://www.w3.org/1999/xlink" width="24px" height="24px" xmlns="http://www.w3.org/2000/svg">
  <g transform="matrix(1 0 0 1 -1088 -354 )">
    <path d="M 1100 354  C 1106.72 354  1112 359.28  1112 366  C 1112 372.72  1106.72 378  1100 378  C 1093.28 378  1088 372.72  1088 366  C 1088 359.28  1093.28 354  1100 354  Z " fill-rule="nonzero" fill="#ffffff" stroke="none" fill-opacity="0.474509803921569" />
    <path d="M 1100 354.5  C 1106.44 354.5  1111.5 359.56  1111.5 366  C 1111.5 372.44  1106.44 377.5  1100 377.5  C 1093.56 377.5  1088.5 372.44  1088.5 366  C 1088.5 359.56  1093.56 354.5  1100 354.5  Z " stroke-width="1" stroke="#d7d7d7" fill="none" />
  </g>
</svg>