<?xml version="1.0" encoding="utf-8"?>
<svg version="1.1" xmlns:xlink="http://www.w3.org/1999/xlink" width="9px" height="17px" xmlns="http://www.w3.org/2000/svg">
  <g transform="matrix(1 0 0 1 -970 -440 )">
    <path d="M 6.625 0  C 7.64583333333333 0  8.4375 0.0408653846153845  9 0.122596153846153  L 9 2.81971153846154  L 7.36458333333333 2.81971153846154  C 6.76736111111111 2.81971153846154  6.36458333333333 2.94230769230769  6.15625 3.1875  C 5.94791666666667 3.43269230769231  5.84375 3.80048076923077  5.84375 4.29086538461538  L 5.84375 6.22175480769231  L 8.89583333333333 6.22175480769231  L 8.48958333333333 9.24579326923077  L 5.84375 9.24579326923077  L 5.84375 17  L 2.65625 17  L 2.65625 9.24579326923077  L 0 9.24579326923077  L 0 6.22175480769231  L 2.65625 6.22175480769231  L 2.65625 3.99459134615385  C 2.65625 2.72776442307692  3.01736111111111 1.74529246794872  3.73958333333333 1.04717548076923  C 4.46180555555556 0.349058493589745  5.42361111111111 0  6.625 0  Z " fill-rule="nonzero" fill="#aaaaaa" stroke="none" transform="matrix(1 0 0 1 970 440 )" />
  </g>
</svg>