<?xml version="1.0" encoding="utf-8"?>
<svg version="1.1" xmlns:xlink="http://www.w3.org/1999/xlink" width="15px" height="13px" xmlns="http://www.w3.org/2000/svg">
  <g transform="matrix(1 0 0 1 -1016 -442 )">
    <path d="M 13.2296954314721 2.0515625  C 13.8197969543147 1.98385416666667  14.4098984771574 1.81458333333333  15 1.54375  C 14.5748730964467 2.20729166666667  14.0609137055838 2.77265625  13.4581218274112 3.23984375  C 13.4644670050761 3.33463541666667  13.4676395939086 3.47682291666667  13.4676395939086 3.66640625  C 13.4676395939086 4.54661458333333  13.3470812182741 5.42513020833333  13.1059644670051 6.301953125  C 12.864847715736 7.17877604166667  12.4984137055838 8.02005208333333  12.0066624365482 8.82578125  C 11.5149111675127 9.63151041666667  10.9295685279188 10.344140625  10.2506345177665 10.963671875  C 9.57170050761421 11.583203125  8.75317258883249 12.0774739583333  7.79505076142132 12.446484375  C 6.83692893401015 12.8154947916667  5.81218274111675 13  4.72081218274112 13  C 3.001269035533 13  1.42766497461929 12.5091145833333  0 11.52734375  C 0.222081218274112 11.5544270833333  0.469543147208122 11.56796875  0.74238578680203 11.56796875  C 2.17005076142132 11.56796875  3.44225888324873 11.10078125  4.55901015228426 10.16640625  C 3.89276649746193 10.1528645833333  3.29631979695432 9.93450520833333  2.76967005076142 9.511328125  C 2.24302030456853 9.08815104166666  1.88134517766498 8.54817708333333  1.68464467005076 7.89140625  C 1.89403553299492 7.92526041666667  2.08756345177665 7.9421875  2.26522842639594 7.9421875  C 2.53807106598985 7.9421875  2.80774111675127 7.90494791666667  3.0742385786802 7.83046875  C 2.36357868020305 7.67473958333333  1.77506345177665 7.297265625  1.30869289340102 6.698046875  C 0.842322335025381 6.098828125  0.609137055837564 5.403125  0.609137055837563 4.6109375  L 0.609137055837563 4.5703125  C 1.04060913705584 4.82760416666667  1.50380710659898 4.96640625  1.99873096446701 4.98671875  C 1.57994923857868 4.68880208333333  1.24682741116751 4.29947916666667  0.999365482233503 3.81875  C 0.751903553299492 3.33802083333333  0.628172588832487 2.81666666666667  0.628172588832487 2.2546875  C 0.628172588832487 1.65885416666667  0.767766497461929 1.10703125  1.04695431472081 0.599218750000001  C 1.81472081218274 1.60807291666667  2.74904822335025 2.41549479166667  3.84993654822335 3.021484375  C 4.95082487309645 3.62747395833333  6.12944162436548 3.96432291666667  7.38578680203046 4.03203125  C 7.33502538071066 3.77473958333333  7.30964467005076 3.52421875  7.30964467005076 3.28046875  C 7.30964467005076 2.37317708333333  7.60945431472081 1.599609375  8.20907360406091 0.959765625  C 8.80869289340101 0.319921875000001  9.53362944162437 0  10.383883248731 0  C 11.2722081218274 0  12.0209390862944 0.345312500000001  12.630076142132 1.0359375  C 13.3217005076142 0.89375  13.9720812182741 0.6296875  14.5812182741117 0.243750000000001  C 14.3464467005076 1.02239583333333  13.8959390862944 1.625  13.2296954314721 2.0515625  Z " fill-rule="nonzero" fill="#aaaaaa" stroke="none" transform="matrix(1 0 0 1 1016 442 )" />
  </g>
</svg>