<?xml version="1.0" encoding="utf-8"?>
<svg version="1.1" xmlns:xlink="http://www.w3.org/1999/xlink" width="23px" height="15px" xmlns="http://www.w3.org/2000/svg">
  <g transform="matrix(1 0 0 1 -1040 -441 )">
    <path d="M 14.2252604166667 6.4256480218281  C 14.3051215277778 6.85538881309686  14.3450520833333 7.27148703956344  14.3450520833333 7.67394270122783  C 14.3450520833333 9.09276944065484  14.0555555555556 10.356412005457  13.4765625 11.4648703956344  C 12.8975694444444 12.5733287858117  12.072337962963 13.4396316507503  11.0008680555556 14.0637789904502  C 9.92939814814815 14.6879263301501  8.70153356481481 15  7.31727430555556 15  C 6.32566550925926 15  5.37731481481482 14.8021828103684  4.47222222222222 14.406548431105  C 3.56712962962963 14.0109140518417  2.7884837962963 13.4788540245566  2.13628472222222 12.8103683492497  C 1.48408564814815 12.1418826739427  0.964988425925926 11.343792633015  0.578993055555556 10.4160982264666  C 0.192997685185185 9.48840381991814  0 8.51637107776262  0 7.5  C 0 6.48362892223738  0.192997685185185 5.51159618008185  0.578993055555556 4.58390177353342  C 0.964988425925926 3.65620736698499  1.48408564814815 2.8581173260573  2.13628472222222 2.18963165075034  C 2.7884837962963 1.52114597544338  3.56712962962963 0.989085948158251  4.47222222222222 0.593451568894952  C 5.37731481481482 0.19781718963165  6.32566550925926 0  7.31727430555556 0  C 9.22063078703704 0  10.8544560185185 0.654843110504774  12.21875 1.96452933151432  L 10.2322048611111 3.91882673942701  C 9.45355902777778 3.14802182810368  8.48191550925926 2.76261937244202  7.31727430555556 2.76261937244202  C 6.49869791666667 2.76261937244202  5.74168113425926 2.97407912687585  5.04622395833333 3.39699863574352  C 4.35076678240741 3.81991814461119  3.80005787037037 4.39461118690314  3.39409722222222 5.12107776261937  C 2.98813657407407 5.84754433833561  2.78515625 6.64051841746248  2.78515625 7.5  C 2.78515625 8.35948158253752  2.98813657407407 9.15245566166439  3.39409722222222 9.87892223738063  C 3.80005787037037 10.6053888130969  4.35076678240741 11.1800818553888  5.04622395833333 11.6030013642565  C 5.74168113425926 12.0259208731241  6.49869791666667 12.237380627558  7.31727430555556 12.237380627558  C 7.86964699074074 12.237380627558  8.37709780092593 12.1589358799454  8.83962673611111 12.0020463847203  C 9.3021556712963 11.8451568894952  9.68315972222222 11.6490450204638  9.98263888888889 11.4137107776262  C 10.2821180555556 11.1783765347885  10.5433304398148 10.9106412005457  10.7662760416667 10.6105047748977  C 10.9892216435185 10.3103683492497  11.152271412037 10.0272851296044  11.2554253472222 9.7612551159618  C 11.3585792824074 9.49522510231924  11.4301215277778 9.24283765347885  11.4700520833333 9.00409276944065  L 7.31727430555556 9.00409276944065  L 7.31727430555556 6.4256480218281  L 14.2252604166667 6.4256480218281  Z M 20.9136284722222 6.4256480218281  L 23 6.4256480218281  L 23 8.5743519781719  L 20.9136284722222 8.5743519781719  L 20.9136284722222 10.7128240109141  L 18.8172743055556 10.7128240109141  L 18.8172743055556 8.5743519781719  L 16.7309027777778 8.5743519781719  L 16.7309027777778 6.4256480218281  L 18.8172743055556 6.4256480218281  L 18.8172743055556 4.28717598908595  L 20.9136284722222 4.28717598908595  L 20.9136284722222 6.4256480218281  Z " fill-rule="nonzero" fill="#aaaaaa" stroke="none" transform="matrix(1 0 0 1 1040 441 )" />
  </g>
</svg>