<?xml version="1.0" encoding="utf-8"?>
<svg version="1.1" xmlns:xlink="http://www.w3.org/1999/xlink" width="25px" height="17px" xmlns="http://www.w3.org/2000/svg">
  <g transform="matrix(1 0 0 1 -229 -4646 )">
    <path d="M 12.5 9.27272727272748  L 12.5 4.63636363636351  L 7.8125 4.63636363636351  L 7.8125 9.27272727272748  L 12.5 9.27272727272748  Z M 6.25 12.3636363636365  L 14.0625 12.3636363636365  L 14.0625 13.909090909091  L 6.25 13.909090909091  L 6.25 12.3636363636365  Z M 6.25 3.09090909090901  L 14.0625 3.09090909090901  L 14.0625 10.818181818182  L 6.25 10.818181818182  L 6.25 3.09090909090901  Z M 15.625 12.3636363636365  L 21.875 12.3636363636365  L 21.875 13.909090909091  L 15.625 13.909090909091  L 15.625 12.3636363636365  Z M 15.625 9.27272727272748  L 21.875 9.27272727272748  L 21.875 10.818181818182  L 15.625 10.818181818182  L 15.625 9.27272727272748  Z M 15.625 6.18181818181802  L 21.875 6.18181818181802  L 21.875 7.72727272727252  L 15.625 7.72727272727252  L 15.625 6.18181818181802  Z M 15.625 3.09090909090901  L 21.875 3.09090909090901  L 21.875 4.63636363636351  L 15.625 4.63636363636351  L 15.625 3.09090909090901  Z M 2.89306640625 15.2251420454545  C 3.04768880208331 15.072206439394  3.125 14.8910984848485  3.125 14.681818181818  L 3.125 3.09090909090901  L 2 3.09090909090901  L 2 14.681818181818  C 1.5625 14.8910984848485  1.63981119791669 15.072206439394  1.79443359375 15.2251420454545  C 1.94905598958331 15.378077651515  2.13216145833331 15.4545454545455  2.34375 15.4545454545455  C 2.55533854166669 15.4545454545455  2.73844401041669 15.378077651515  2.89306640625 15.2251420454545  Z M 23.20556640625 15.2251420454545  C 23.3601888020833 15.072206439394  23.4375 14.8910984848485  23 14.681818181818  L 23 1.5454545454545  L 5 1.5454545454545  L 5 14.681818181818  C 4.6875 14.947443181818  4.64274088541669 15.205018939394  4.55322265625 15.4545454545455  L 22.65625 15.4545454545455  C 22.8678385416667 15.4545454545455  23.0509440104167 15.378077651515  23.20556640625 15.2251420454545  Z M 3.125 0  L 25 0  L 25 14.681818181818  C 25 15.3257575757575  24.7721354166667 15.873106060606  24.31640625 16.3238636363635  C 23.8606770833333 16.774621212121  23.3072916666667 17  22.65625 17  L 2.34375 17  C 1.69270833333331 17  1.13932291666669 16.774621212121  0.68359375 16.3238636363635  C 0.227864583333314 15.873106060606  0 15.3257575757575  0 14.681818181818  L 0 1.5454545454545  L 3.125 1.5454545454545  L 3.125 0  Z " fill-rule="nonzero" fill="#b8741a" stroke="none" transform="matrix(1 0 0 1 229 4646 )" />
  </g>
</svg>