<?xml version="1.0" encoding="utf-8"?>
<svg version="1.1" xmlns:xlink="http://www.w3.org/1999/xlink" width="24px" height="21px" xmlns="http://www.w3.org/2000/svg">
  <g transform="matrix(1 0 0 1 -403 -1740 )">
    <path d="M 17.2644230769231 7.35298295454541  C 17.4471153846154 7.16406249999997  17.5384615384616 6.94034090909089  17.5384615384616 6.68181818181817  C 17.5384615384616 6.42329545454544  17.4471153846154 6.19957386363636  17.2644230769231 6.01065340909092  C 17.0817307692309 5.82173295454548  16.8653846153846 5.72727272727275  16.6153846153847 5.72727272727275  L 14.7692307692307 5.72727272727275  L 14.7692307692307 3.81818181818183  C 14.7692307692307 3.55965909090911  14.6778846153845 3.33593750000003  14.4951923076923 3.14701704545459  C 14.3125000000001 2.95809659090906  14.0961538461538 2.86363636363633  13.8461538461539 2.86363636363633  C 13.5961538461538 2.86363636363633  13.3798076923077 2.95809659090906  13.1971153846153 3.14701704545459  C 13.0144230769229 3.33593750000003  12.9230769230769 3.55965909090911  12.9230769230769 3.81818181818183  L 12.9230769230769 5.72727272727275  L 11.0769230769231 5.72727272727275  C 10.8269230769231 5.72727272727275  10.6105769230771 5.82173295454548  10.4278846153847 6.01065340909092  C 10.2451923076923 6.19957386363636  10.1538461538461 6.42329545454544  10.1538461538461 6.68181818181817  C 10.1538461538461 6.94034090909089  10.2451923076923 7.16406249999997  10.4278846153847 7.35298295454541  C 10.6105769230771 7.54190340909095  10.8269230769231 7.63636363636367  11.0769230769231 7.63636363636367  L 12.9230769230769 7.63636363636367  L 12.9230769230769 9.54545454545458  C 12.9230769230769 9.80397727272731  13.0144230769229 10.0276988636364  13.1971153846153 10.2166193181818  C 13.3798076923077 10.4055397727273  13.5961538461538 10.5  13.8461538461539 10.5  C 14.0961538461538 10.5  14.3125000000001 10.4055397727273  14.4951923076923 10.2166193181818  C 14.6778846153845 10.0276988636364  14.7692307692307 9.80397727272731  14.7692307692307 9.54545454545458  L 14.7692307692307 7.63636363636367  L 16.6153846153847 7.63636363636367  C 16.8653846153846 7.63636363636367  17.0817307692309 7.54190340909095  17.2644230769231 7.35298295454541  Z M 8.68990384615388 17.7411221590909  C 9.05048076923072 18.1139914772728  9.23076923076928 18.5639204545454  9.23076923076928 19.0909090909091  C 9.23076923076928 19.6178977272727  9.05048076923072 20.0678267045454  8.68990384615388 20.4406960227272  C 8.32932692307694 20.8135653409091  7.89423076923088 21  7.38461538461531 21  C 6.87499999999994 21  6.43990384615388 20.8135653409091  6.07932692307694 20.4406960227272  C 5.71875 20.0678267045454  5.53846153846163 19.6178977272727  5.53846153846163 19.0909090909091  C 5.53846153846163 18.5639204545454  5.71875 18.1139914772728  6.07932692307694 17.7411221590909  C 6.43990384615388 17.3682528409091  6.87499999999994 17.1818181818182  7.38461538461531 17.1818181818182  C 7.89423076923088 17.1818181818182  8.32932692307694 17.3682528409091  8.68990384615388 17.7411221590909  Z M 21.6129807692307 17.7411221590909  C 21.9735576923077 18.1139914772728  22.1538461538461 18.5639204545454  22.1538461538461 19.0909090909091  C 22.1538461538461 19.6178977272727  21.9735576923077 20.0678267045454  21.6129807692307 20.4406960227272  C 21.2524038461539 20.8135653409091  20.8173076923078 21  20.3076923076923 21  C 19.7980769230771 21  19.3629807692307 20.8135653409091  19.0024038461539 20.4406960227272  C 18.6418269230769 20.0678267045454  18.4615384615384 19.6178977272727  18.4615384615384 19.0909090909091  C 18.4615384615384 18.5639204545454  18.6418269230769 18.1139914772728  19.0024038461539 17.7411221590909  C 19.3629807692307 17.3682528409091  19.7980769230771 17.1818181818182  20.3076923076923 17.1818181818182  C 20.8173076923078 17.1818181818182  21.2524038461539 17.3682528409091  21.6129807692307 17.7411221590909  Z M 23.7259615384616 2.19247159090908  C 23.9086538461538 2.38139204545452  24 2.60511363636361  24 2.86363636363633  L 24 10.5  C 24 10.7386363636363  23.9230769230771 10.9499289772727  23.7692307692307 11.1338778409091  C 23.6153846153846 11.3178267045455  23.4182692307691 11.4247159090909  23.1778846153847 11.4545454545454  L 8.12019230769235 13.2741477272728  C 8.12980769230769 13.34375  8.15144230769218 13.4506392045455  8.18509615384612 13.5948153409091  C 8.21875000000006 13.7389914772727  8.24759615384619 13.8707386363637  8.27163461538469 13.9900568181818  C 8.29567307692309 14.109375  8.30769230769235 14.21875  8.30769230769235 14.3181818181818  C 8.30769230769235 14.4772727272727  8.19230769230765 14.7954545454546  7.96153846153837 15  L 21.2307692307693 15  C 21.4807692307694 15.2727272727272  21.6971153846155 15.3671875  21.8798076923077 15.5561079545454  C 22.0624999999999 15.745028409091  22.1538461538461 15.96875  22.1538461538461 16.2272727272728  C 22.1538461538461 16.4857954545455  22.0624999999999 16.7095170454546  21.8798076923077 16.8984375  C 21.6971153846155 17.0873579545454  21.4807692307694 17.1818181818182  21.2307692307693 17  L 6.46153846153837 17  C 6.21153846153831 17.1818181818182  5.99519230769218 17.0873579545454  5.8125 16.8984375  C 5.62980769230782 16.7095170454546  5.53846153846163 16.4857954545455  5.53846153846163 16.2272727272728  C 5.53846153846163 16.0880681818182  5.59134615384616 15.8916903409091  5.69711538461531 15.6381392045454  C 5.80288461538456 15.3845880681818  5.94471153846147 15.088778409091  6.12259615384612 14.7507102272728  C 6.30048076923088 14.4126420454546  6.39903846153831 14.2237215909091  6.41826923076928 14.1839488636363  L 3.86538461538469 1.90909090909092  L 0.923076923076938 1.90909090909092  C 0.673076923077068 1.90909090909092  0.456730769230554 1.8146306818182  0.274038461538372 1.62571022727275  C 0.0913461538461888 1.43678977272731  0 1.21306818181823  0 0.954545454545407  C 0 0.696022727272691  0.0913461538461888 0.472301136363611  0.274038461538372 0.283380681818167  C 0.456730769230554 0.094460227272716  0.673076923077068 0  0.923076923076938 0  L 4.61538461538469 0  C 4.76923076923055 0  4.90624999999994 0.0323153409091113  5.02644230769235 0.0969460227272467  C 5.14663461538456 0.161576704545475  5.24278846153837 0.238636363636327  5.31490384615388 0.328125  C 5.38701923076928 0.417613636363673  5.44951923076945 0.539417613636364  5.50240384615388 0.693536931818167  C 5.55528846153831 0.847656249999975  5.59134615384616 0.979403409090945  5.61057692307694 1.08877840909092  C 5.62980769230782 1.19815340909089  5.65624999999994 1.34481534090911  5.68990384615388 1.52876420454541  C 5.72355769230782 1.7127130681818  5.74519230769231 1.83948863636364  5.75480769230765 2  L 23.0769230769231 2  C 23.3269230769229 1.90909090909092  23.5432692307694 2.00355113636364  23.7259615384616 2.19247159090908  Z " fill-rule="nonzero" fill="#7f7f7f" stroke="none" transform="matrix(1 0 0 1 403 1740 )" />
  </g>
</svg>