<?xml version="1.0" encoding="utf-8"?>
<svg version="1.1" xmlns:xlink="http://www.w3.org/1999/xlink" width="17px" height="15px" xmlns="http://www.w3.org/2000/svg">
  <g transform="matrix(1 0 0 1 -334 -2999 )">
    <path d="M 12.2289663461538 5.25213068181815  C 12.3583733974359 5.11718749999998  12.423076923077 4.95738636363635  12.423076923077 4.77272727272726  C 12.423076923077 4.58806818181817  12.3583733974359 4.42826704545455  12.2289663461538 4.29332386363637  C 12.0995592948719 4.1583806818182  11.9463141025641 4.09090909090911  11.7692307692308 4.09090909090911  L 10.4615384615384 4.09090909090911  L 10.4615384615384 2.72727272727274  C 10.4615384615384 2.54261363636365  10.3968349358974 2.38281250000002  10.2674278846154 2.24786931818185  C 10.1380208333334 2.11292613636361  9.98477564102564 2.04545454545452  9.80769230769233 2.04545454545452  C 9.63060897435895 2.04545454545452  9.47736378205128 2.11292613636361  9.34795673076918 2.24786931818185  C 9.21854967948708 2.38281250000002  9.15384615384616 2.54261363636365  9.15384615384616 2.72727272727274  L 9.15384615384616 4.09090909090911  L 7.84615384615384 4.09090909090911  C 7.66907051282053 4.09090909090911  7.51582532051292 4.1583806818182  7.38641826923082 4.29332386363637  C 7.25701121794872 4.42826704545455  7.19230769230767 4.58806818181817  7.19230769230767 4.77272727272726  C 7.19230769230767 4.95738636363635  7.25701121794872 5.11718749999998  7.38641826923082 5.25213068181815  C 7.51582532051292 5.38707386363639  7.66907051282053 5.45454545454548  7.84615384615384 5.45454545454548  L 9.15384615384616 5.45454545454548  L 9.15384615384616 6.81818181818184  C 9.15384615384616 7.00284090909093  9.21854967948708 7.16264204545457  9.34795673076918 7.29758522727274  C 9.47736378205128 7.43252840909091  9.63060897435895 7.5  9.80769230769233 7.5  C 9.98477564102564 7.5  10.1380208333334 7.43252840909091  10.2674278846154 7.29758522727274  C 10.3968349358974 7.16264204545457  10.4615384615384 7.00284090909093  10.4615384615384 6.81818181818184  L 10.4615384615384 5.45454545454548  L 11.7692307692308 5.45454545454548  C 11.9463141025641 5.45454545454548  12.0995592948719 5.38707386363639  12.2289663461538 5.25213068181815  Z M 6.15534855769233 12.6722301136364  C 6.41075721153842 12.9385653409091  6.53846153846158 13.2599431818182  6.53846153846158 13.6363636363636  C 6.53846153846158 14.0127840909091  6.41075721153842 14.3341619318182  6.15534855769233 14.6004971590909  C 5.89993990384616 14.8668323863636  5.59174679487187 15  5.23076923076918 15  C 4.86979166666662 15  4.56159855769233 14.8668323863636  4.30618990384616 14.6004971590909  C 4.05078125 14.3341619318182  3.92307692307699 14.0127840909091  3.92307692307699 13.6363636363636  C 3.92307692307699 13.2599431818182  4.05078125 12.9385653409091  4.30618990384616 12.6722301136364  C 4.56159855769233 12.4058948863636  4.86979166666662 12.2727272727273  5.23076923076918 12.2727272727273  C 5.59174679487187 12.2727272727273  5.89993990384616 12.4058948863636  6.15534855769233 12.6722301136364  Z M 15.3091947115384 12.6722301136364  C 15.5646033653846 12.9385653409091  15.6923076923077 13.2599431818182  15.6923076923077 13.6363636363636  C 15.6923076923077 14.0127840909091  15.5646033653846 14.3341619318182  15.3091947115384 14.6004971590909  C 15.0537860576923 14.8668323863636  14.745592948718 15  14.3846153846154 15  C 14.0236378205129 15  13.7154447115384 14.8668323863636  13.4600360576923 14.6004971590909  C 13.2046274038462 14.3341619318182  13.076923076923 14.0127840909091  13.076923076923 13.6363636363636  C 13.076923076923 13.2599431818182  13.2046274038462 12.9385653409091  13.4600360576923 12.6722301136364  C 13.7154447115384 12.4058948863636  14.0236378205129 12.2727272727273  14.3846153846154 12.2727272727273  C 14.745592948718 12.2727272727273  15.0537860576923 12.4058948863636  15.3091947115384 12.6722301136364  Z M 16.805889423077 1.56605113636363  C 16.935296474359 1.7009943181818  17 1.86079545454544  17 2.04545454545452  L 17 7.5  C 17 7.67045454545452  16.9455128205129 7.82137784090907  16.8365384615384 7.95276988636363  C 16.7275641025641 8.08416193181819  16.5879407051281 8.16051136363637  16.4176682692308 8.18181818181816  L 5.75180288461541 9.48153409090911  C 5.75861378205128 9.53125000000003  5.77393830128196 9.60759943181819  5.79777644230767 9.71058238636363  C 5.82161458333338 9.81356534090907  5.84204727564105 9.90767045454548  5.85907451923082 9.99289772727274  C 5.87610176282053 10.078125  5.88461538461541 10.15625  5.88461538461541 10.2272727272727  C 5.88461538461541 10.3409090909091  5.80288461538459 10.5681818181818  5.63942307692301 10.9090909090909  L 15.0384615384616 10.9090909090909  C 15.215544871795 10.9090909090909  15.3687900641026 10.9765625  15.4981971153846 11.1115056818182  C 15.6276041666666 11.2464488636364  15.6923076923077 11.40625  15.6923076923077 11.5909090909091  C 15.6923076923077 11.7755681818182  15.6276041666666 11.9353693181818  15.4981971153846 12.0703125  C 15.3687900641026 12.2052556818182  15.215544871795 12.2727272727273  15.0384615384616 12  L 4.57692307692301 12  C 4.39983974358963 12.2727272727273  4.24659455128196 12.2052556818182  4.1171875 12.0703125  C 3.98778044871804 11.9353693181818  3.92307692307699 11.7755681818182  3.92307692307699 11.5909090909091  C 3.92307692307699 11.4914772727273  3.96053685897436 11.3512073863636  4.03545673076918 11.1700994318182  C 4.11037660256406 10.9889914772727  4.21083733974354 10.7776988636364  4.33683894230767 10.5362215909091  C 4.46284054487187 10.2947443181818  4.53265224358963 10.1598011363637  4.54627403846158 10.1313920454545  L 2.73798076923082 1.36363636363637  L 0.653846153846165 1.36363636363637  C 0.476762820512923 1.36363636363637  0.323517628204976 1.29616477272728  0.194110576923013 1.16122159090911  C 0.0647035256410504 1.02627840909093  0 0.866477272727306  0 0.681818181818148  C 0 0.497159090909065  0.0647035256410504 0.337357954545436  0.194110576923013 0.202414772727262  C 0.323517628204976 0.0674715909090828  0.476762820512923 0  0.653846153846165 0  L 3.26923076923082 0  C 3.37820512820498 0  3.47526041666662 0.0230823863636509  3.56039663461541 0.0692471590908905  C 3.64553285256406 0.115411931818197  3.71364182692301 0.170454545454519  3.76472355769233 0.234375  C 3.81580528846158 0.298295454545481  3.86007612179502 0.385298295454546  3.89753605769233 0.495383522727262  C 3.93499599358963 0.605468749999982  3.96053685897436 0.699573863636389  3.97415865384616 0.777698863636371  C 3.98778044871804 0.855823863636349  4.00651041666662 0.960582386363651  4.03034855769233 1.09197443181815  C 4.05418669871804 1.22336647727272  4.06951121794872 1.31392045454545  4.07632211538459 1.36363636363637  L 16.3461538461538 1.36363636363637  C 16.5232371794871 1.36363636363637  16.676482371795 1.43110795454545  16.805889423077 1.56605113636363  Z " fill-rule="nonzero" fill="#7f7f7f" stroke="none" transform="matrix(1 0 0 1 334 2999 )" />
  </g>
</svg>