<?xml version="1.0" encoding="utf-8"?>
<svg version="1.1" xmlns:xlink="http://www.w3.org/1999/xlink" width="19px" height="15px" xmlns="http://www.w3.org/2000/svg">
  <g transform="matrix(1 0 0 1 -154 -212 )">
    <path d="M 18.7985491071429 12.4751420454545  C 18.932849702381 12.6100852272727  19 12.7698863636364  19 12.9545454545455  L 19 14.3181818181818  C 19 14.5028409090909  18.932849702381 14.6626420454545  18.7985491071429 14.7975852272727  C 18.6642485119048 14.9325284090909  18.5052083333333 15  18.3214285714286 15  L 0.678571428571428 15  C 0.494791666666667 15  0.335751488095238 14.9325284090909  0.201450892857143 14.7975852272727  C 0.0671502976190476 14.6626420454545  0 14.5028409090909  0 14.3181818181818  L 0 12.9545454545455  C 0 12.7698863636364  0.0671502976190476 12.6100852272727  0.201450892857143 12.4751420454545  C 0.335751488095238 12.3401988636364  0.494791666666667 12.2727272727273  0.678571428571428 12  L 18.3214285714286 12  C 18.5052083333333 12.2727272727273  18.6642485119048 12.3401988636364  18.7985491071429 12.4751420454545  Z M 14.7271205357143 8.38423295454546  C 14.8614211309524 8.51917613636363  14.9285714285714 8.67897727272727  14.9285714285714 8.86363636363636  L 14.9285714285714 10.2272727272727  C 14.9285714285714 10.4119318181818  14.8614211309524 10.5717329545455  14.7271205357143 10.7066761363636  C 14.5928199404762 10.8416193181818  14.4337797619048 10.9090909090909  14.25 11  L 0.678571428571428 11  C 0.494791666666667 10.9090909090909  0.335751488095238 10.8416193181818  0.201450892857143 10.7066761363636  C 0.0671502976190476 10.5717329545455  0 10.4119318181818  0 10.2272727272727  L 0 8.86363636363636  C 0 8.67897727272727  0.0671502976190476 8.51917613636363  0.201450892857143 8.38423295454546  C 0.335751488095238 8.24928977272727  0.494791666666667 8.18181818181818  0.678571428571428 8  L 14.25 8  C 14.4337797619048 8.18181818181818  14.5928199404762 8.24928977272727  14.7271205357143 8.38423295454546  Z M 17.44140625 4.29332386363636  C 17.5757068452381 4.42826704545455  17.6428571428571 4.58806818181818  17.6428571428571 4.77272727272727  L 17.6428571428571 6.13636363636364  C 17.6428571428571 6.32102272727273  17.5757068452381 6.48082386363636  17.44140625 6.61576704545455  C 17.3071056547619 6.75071022727273  17.1480654761905 6.81818181818182  16.9642857142857 7  L 0.678571428571428 7  C 0.494791666666667 6.81818181818182  0.335751488095238 6.75071022727273  0.201450892857143 6.61576704545455  C 0.0671502976190476 6.48082386363636  0 6.32102272727273  0 6.13636363636364  L 0 4.77272727272727  C 0 4.58806818181818  0.0671502976190476 4.42826704545455  0.201450892857143 4.29332386363636  C 0.335751488095238 4.15838068181818  0.494791666666667 4.09090909090909  0.678571428571428 4  L 16.9642857142857 4  C 17.1480654761905 4.09090909090909  17.3071056547619 4.15838068181818  17.44140625 4.29332386363636  Z M 13.3699776785714 0.202414772727273  C 13.5042782738095 0.337357954545452  13.5714285714286 0.49715909090909  13.5714285714286 0.681818181818181  L 13.5714285714286 2.04545454545455  C 13.5714285714286 2.23011363636363  13.5042782738095 2.38991477272727  13.3699776785714 2.52485795454545  C 13.2356770833333 2.65980113636364  13.0766369047619 2.72727272727273  12.8928571428571 3  L 0.678571428571428 3  C 0.494791666666667 2.72727272727273  0.335751488095238 2.65980113636364  0.201450892857143 2.52485795454545  C 0.0671502976190476 2.38991477272727  0 2.23011363636363  0 2.04545454545455  L 0 0.681818181818181  C 0 0.49715909090909  0.0671502976190476 0.337357954545452  0.201450892857143 0.202414772727273  C 0.335751488095238 0.0674715909090895  0.494791666666667 0  0.678571428571428 0  L 12.8928571428571 0  C 13.0766369047619 0  13.2356770833333 0.0674715909090895  13.3699776785714 0.202414772727273  Z " fill-rule="nonzero" fill="#333333" stroke="none" transform="matrix(1 0 0 1 154 212 )" />
  </g>
</svg>