<!-- Generator: Adobe Illustrator 24.0.0, SVG Export Plug-In  -->
<svg version="1.1" xmlns="http://www.w3.org/2000/svg" xmlns:xlink="http://www.w3.org/1999/xlink" x="0px" y="0px" width="12.85px"
	 height="11.17px" viewBox="0 0 12.85 11.17" style="enable-background:new 0 0 12.85 11.17;" xml:space="preserve">
<style type="text/css">
	.st0{fill:#875E1C;}
	.st1{opacity:0;fill:#FFFFFF;}
	.st2{opacity:0.0278;fill:#FCFCFB;}
	.st3{opacity:0.0556;fill:#F9F8F7;}
	.st4{opacity:0.0833;fill:#F7F5F3;}
	.st5{opacity:0.1111;fill:#F4F2EF;}
	.st6{opacity:0.1389;fill:#F1EEEC;}
	.st7{opacity:0.1667;fill:#EEEBE8;}
	.st8{opacity:0.1944;fill:#ECE7E4;}
	.st9{opacity:0.2222;fill:#E9E4E0;}
	.st10{opacity:0.25;fill:#E6E1DC;}
	.st11{opacity:0.2778;fill:#E3DDD8;}
	.st12{opacity:0.3056;fill:#E1DAD4;}
	.st13{opacity:0.3333;fill:#DED7D0;}
	.st14{opacity:0.3611;fill:#DBD3CC;}
	.st15{opacity:0.3889;fill:#D8D0C9;}
	.st16{opacity:0.4167;fill:#D6CDC5;}
	.st17{opacity:0.4444;fill:#D3C9C1;}
	.st18{opacity:0.4722;fill:#D0C6BD;}
	.st19{opacity:0.5;fill:#CEC3B9;}
	.st20{opacity:0.5278;fill:#CBBFB5;}
	.st21{opacity:0.5556;fill:#C8BCB1;}
	.st22{opacity:0.5833;fill:#C5B8AD;}
	.st23{opacity:0.6111;fill:#C3B5A9;}
	.st24{opacity:0.6389;fill:#C0B2A6;}
	.st25{opacity:0.6667;fill:#BDAEA2;}
	.st26{opacity:0.6944;fill:#BAAB9E;}
	.st27{opacity:0.7222;fill:#B8A89A;}
	.st28{opacity:0.75;fill:#B5A496;}
	.st29{opacity:0.7778;fill:#B2A192;}
	.st30{opacity:0.8056;fill:#AF9E8E;}
	.st31{opacity:0.8333;fill:#AD9A8A;}
	.st32{opacity:0.8611;fill:#AA9786;}
	.st33{opacity:0.8889;fill:#A79383;}
	.st34{opacity:0.9167;fill:#A4907F;}
	.st35{opacity:0.9444;fill:#A28D7B;}
	.st36{opacity:0.9722;fill:#9F8977;}
	.st37{fill:#9C8673;}
	.st38{fill:url(#SVGID_1_);}
	.st39{fill:url(#SVGID_2_);}
</style>
<defs>
</defs>
<path class="st0" d="M12.36,0c-0.27,0-0.49,0.37-0.49,0.83h0.98C12.85,0.37,12.63,0,12.36,0z"/>
<g>
	<path class="st1" d="M12.85,11.17L6.97,9.51l-6,1.66V0.13h11.02c0.48,0,0.86,0.28,0.86,0.62V11.17z"/>
	<path class="st2" d="M0.98,0.15h10.97c0.46,0,0.87,0.27,0.87,0.6v10.38L6.95,9.49l-5.98,1.65L0.98,0.15z"/>
	<path class="st3" d="M0.99,0.17h10.93c0.45,0,0.87,0.26,0.87,0.59v10.35L6.94,9.47l-5.95,1.64L0.99,0.17z"/>
	<path class="st4" d="M1,0.19h10.88c0.44,0,0.88,0.25,0.88,0.57v10.33L6.92,9.45L1,11.08L1,0.19z"/>
	<path class="st5" d="M1,0.21h10.84c0.42,0,0.88,0.25,0.88,0.55v10.3L6.91,9.43l-5.9,1.62L1,0.21z"/>
	<path class="st6" d="M1.01,0.23h10.8c0.41,0,0.88,0.24,0.88,0.54v10.27l-5.8-1.63l-5.87,1.61L1.01,0.23z"/>
	<path class="st7" d="M1.02,0.25h10.75c0.4,0,0.89,0.23,0.89,0.52v10.24L6.87,9.39L1.03,11L1.02,0.25z"/>
	<path class="st8" d="M1.03,0.27h10.71c0.38,0,0.89,0.22,0.89,0.5v10.21L6.86,9.37l-5.82,1.6L1.03,0.27z"/>
	<path class="st9" d="M1.04,0.29H11.7c0.37,0,0.89,0.22,0.89,0.48v10.19L6.84,9.35l-5.8,1.59L1.04,0.29z"/>
	<path class="st10" d="M1.05,0.31h10.62c0.36,0,0.9,0.21,0.9,0.47v10.16l-5.74-1.6l-5.77,1.58L1.05,0.31z"/>
	<path class="st11" d="M1.06,0.33h10.57c0.34,0,0.9,0.2,0.9,0.45v10.13L6.81,9.32l-5.75,1.57L1.06,0.33z"/>
	<path class="st12" d="M1.06,0.35h10.53c0.33,0,0.9,0.19,0.9,0.43v10.1L6.79,9.3l-5.72,1.56L1.06,0.35z"/>
	<path class="st13" d="M1.07,0.37h10.49c0.32,0,0.91,0.19,0.91,0.41v10.08L6.78,9.28l-5.7,1.55L1.07,0.37z"/>
	<path class="st14" d="M1.08,0.39h10.44c0.31,0,0.91,0.18,0.91,0.4v10.05L6.76,9.26L1.09,10.8L1.08,0.39z"/>
	<path class="st15" d="M1.09,0.41h10.4c0.29,0,0.91,0.17,0.91,0.38v10.02L6.74,9.24L1.1,10.77L1.09,0.41z"/>
	<path class="st16" d="M1.1,0.43h10.35c0.28,0,0.92,0.16,0.92,0.36v9.99L6.73,9.22l-5.62,1.52L1.1,0.43z"/>
	<path class="st17" d="M1.11,0.45h10.31c0.27,0,0.92,0.15,0.92,0.35v9.96L6.71,9.2l-5.59,1.51L1.11,0.45z"/>
	<path class="st18" d="M1.12,0.47h10.26c0.25,0,0.93,0.15,0.93,0.33v9.94L6.7,9.18l-5.57,1.5L1.12,0.47z"/>
	<path class="st19" d="M1.13,0.48h10.22c0.24,0,0.93,0.14,0.93,0.31v9.91L6.68,9.16l-5.54,1.49L1.13,0.48z"/>
	<path class="st20" d="M1.13,0.5h10.18c0.23,0,0.93,0.13,0.93,0.29v9.88L6.66,9.15l-5.52,1.49L1.13,0.5z"/>
	<path class="st21" d="M1.14,0.52h10.13c0.21,0,0.94,0.12,0.94,0.28v9.85L6.65,9.13L1.16,10.6L1.14,0.52z"/>
	<path class="st22" d="M1.15,0.54h10.09c0.2,0,0.94,0.12,0.94,0.26v9.82L6.63,9.11l-5.47,1.47L1.15,0.54z"/>
	<path class="st23" d="M1.16,0.56H11.2c0.19,0,0.94,0.11,0.94,0.24v9.8L6.62,9.09l-5.44,1.46L1.16,0.56z"/>
	<path class="st24" d="M1.17,0.58h10c0.17,0,0.95,0.1,0.95,0.22v9.77L6.6,9.07l-5.42,1.45L1.17,0.58z"/>
	<path class="st25" d="M1.18,0.6h9.95c0.16,0,0.95,0.09,0.95,0.21v9.74l-5.5-1.5l-5.39,1.44L1.18,0.6z"/>
	<path class="st26" d="M1.19,0.62h9.91c0.15,0,0.95,0.08,0.95,0.19v9.71L6.57,9.03L1.2,10.46L1.19,0.62z"/>
	<path class="st27" d="M1.2,0.64h9.87c0.13,0,0.96,0.08,0.96,0.17v9.68L6.55,9.01l-5.34,1.42L1.2,0.64z"/>
	<path class="st28" d="M1.2,0.66h9.82c0.12,0,0.96,0.07,0.96,0.16v9.66L6.53,8.99l-5.31,1.41L1.2,0.66z"/>
	<path class="st29" d="M1.21,0.68h9.78c0.11,0,0.96,0.06,0.96,0.14v9.63L6.52,8.98l-5.29,1.4L1.21,0.68z"/>
	<path class="st30" d="M1.22,0.7h9.73c0.09,0,0.97,0.05,0.97,0.12v9.6L6.5,8.96l-5.26,1.39L1.22,0.7z"/>
	<path class="st31" d="M1.23,0.72h9.69c0.08,0,0.97,0.05,0.97,0.1v9.57l-5.4-1.46l-5.24,1.38L1.23,0.72z"/>
	<path class="st32" d="M1.24,0.74h9.65c0.07,0,0.98,0.04,0.98,0.09v9.54L6.47,8.92l-5.21,1.37L1.24,0.74z"/>
	<path class="st33" d="M1.25,0.76h9.6c0.05,0,0.98,0.03,0.98,0.07v9.52L6.45,8.9l-5.19,1.37L1.25,0.76z"/>
	<path class="st34" d="M1.26,0.78h9.56c0.04,0,0.98,0.02,0.98,0.05v9.49L6.44,8.88l-5.16,1.36L1.26,0.78z"/>
	<path class="st35" d="M1.26,0.8h9.51c0.03,0,0.99,0.02,0.99,0.03v9.46L6.42,8.86l-5.13,1.35L1.26,0.8z"/>
	<path class="st36" d="M1.27,0.82h9.47c0.01,0,0.99,0.01,0.99,0.02v9.43L6.41,8.84L1.3,10.18L1.27,0.82z"/>
	<polygon class="st37" points="11.7,10.24 6.39,8.82 1.31,10.15 1.28,0.83 11.7,0.83 	"/>
</g>
<linearGradient id="SVGID_1_" gradientUnits="userSpaceOnUse" x1="6.1785" y1="10.504" x2="6.1785" y2="0">
	<stop  offset="0" style="stop-color:#FFEAB0"/>
	<stop  offset="0.0572" style="stop-color:#F3D887"/>
	<stop  offset="0.1616" style="stop-color:#DFB941"/>
	<stop  offset="0.2103" style="stop-color:#D7AD25"/>
	<stop  offset="0.2462" style="stop-color:#D5AB24"/>
	<stop  offset="0.4027" style="stop-color:#D1A821"/>
	<stop  offset="0.4618" style="stop-color:#D4AC29"/>
	<stop  offset="0.5543" style="stop-color:#DBB83F"/>
	<stop  offset="0.6684" style="stop-color:#E7CA64"/>
	<stop  offset="0.7986" style="stop-color:#F7E496"/>
	<stop  offset="0.8541" style="stop-color:#FFF0AD"/>
	<stop  offset="0.8941" style="stop-color:#FCE794"/>
	<stop  offset="0.9789" style="stop-color:#F4D054"/>
	<stop  offset="1" style="stop-color:#F2CA43"/>
</linearGradient>
<path class="st38" d="M12.36,0c-0.27,0-0.49,0.37-0.49,0.83v9.67L6.18,8.94L0.49,10.5V0.83C0.49,0.37,0.27,0,0,0H12.36z"/>
</svg>
